<svg version="1.2" xmlns="http://www.w3.org/2000/svg" viewBox="0 0 1563 1563" width="1563" height="1563">
	<style>
		.s0 { fill: #ffbd59 } 
		.s1 { fill: #63b5f1 } 
		.s2 { fill: #7a42e1 } 
	</style>
	<g id="Background">
		<path id="Path 0" class="s0" d="m895.24 329.25c-0.69 1.52-0.81 151.51-0.38 463.18 0.51 366.67 0.9 461.2 1.89 462.25 1.01 1.07 14.35 1.32 70.18 1.32 59.9 0 69.13-0.2 70.5-1.5 1.42-1.36 1.57-44.76 1.57-463 0-408.89-0.17-461.67-1.5-463-1.3-1.3-10.6-1.5-71.37-1.5h-69.87zm-234.75 653.75c0 148.22 0.12 208.75 0.26 134.5 0.14-74.25 0.14-195.52 0-269.5-0.14-73.98-0.26-13.23-0.26 135z"/>
		<path id="Path 1" class="s1" d="m517.5 712.57c-1.52 1.45-1.64 22.3-1.59 270.25 0.05 231.86 0.25 268.95 1.49 270.68 1.41 1.96 2.73 2 70.02 2.25 44.23 0.16 69.29-0.11 70.58-0.75 1.99-1 2-2 2-272 0-240-0.17-271.06-1.5-271.5-0.83-0.28-32.52-0.5-70.43-0.5-61.3 0-69.11 0.17-70.57 1.57z"/>
		<path id="Path 2" class="s2" d="m707.05 523.66c-1.26 0.44-1.42 47.48-1.25 365.92 0.18 323.81 0.37 365.48 1.7 365.92 0.83 0.28 32.52 0.5 70.43 0.5 59.9 0 69.13-0.2 70.5-1.5 1.42-1.36 1.57-35.94 1.57-366 0-323.11-0.17-364.56-1.5-365-0.83-0.27-32.66-0.46-70.75-0.42-38.09 0.04-69.9 0.3-70.7 0.58z"/>
		<path id="Path 3" class="s1" d="m705.49 889.5c0 200.2 0.12 281.88 0.26 181.5 0.14-100.38 0.14-264.17 0-364-0.14-99.83-0.26-17.7-0.26 182.5zm-116.84-320.88c-1.46 1.58-6 8.73-10.07 15.88-4.08 7.15-10.94 19.25-15.25 26.89-4.3 7.64-8.96 15.82-10.33 18.18-1.38 2.36-4.98 8.65-8 13.97-3.02 5.33-6.4 11.2-7.5 13.04-1.1 1.84-3.69 6.28-5.75 9.88-2.06 3.6-3.75 7.44-3.75 8.54q0 2 2.75 2.75c1.51 0.41 7.48 0.7 13.25 0.64 10.4-0.11 10.52-0.14 13-3.12 1.37-1.65 5.15-7.23 8.39-12.39 3.24-5.16 6.88-10.96 8.1-12.88 1.22-1.92 4.22-6.65 6.66-10.5 2.45-3.85 5.78-9.14 7.4-11.75 1.62-2.61 3.29-4.75 3.7-4.75 0.41 0 4.24 5.63 8.5 12.51 4.26 6.87 8.79 14.19 10.06 16.25 1.27 2.06 3.61 5.76 5.19 8.24 1.59 2.48 4.26 6.86 5.94 9.75 1.68 2.89 4.3 6.02 5.81 6.96 1.9 1.19 5.67 1.85 12.25 2.17 6.22 0.3 10.54 0.03 12.5-0.77 2.31-0.94 2.9-1.73 2.58-3.42-0.24-1.2-3.09-6.92-6.35-12.69-3.26-5.77-9.66-17.02-14.23-25-4.57-7.98-11.9-20.8-16.28-28.5-4.38-7.7-11.15-19.63-15.03-26.5-3.89-6.88-7.92-13.35-8.97-14.38-1.87-1.85-1.96-1.83-4.57 1z"/>
	</g>
</svg>