<svg version="1.2" xmlns="http://www.w3.org/2000/svg" viewBox="0 0 2500 1000" width="2500" height="1000">
	<style>
		.s0 { opacity: 1;fill: #fcf6ec } 
		.s1 { opacity: 1;fill: #ecb561 } 
		.s2 { fill: #2e1707 } 
		.s3 { fill: #7843d5 } 
		.s4 { fill: #66b4f0 } 
	</style>
	<g id="Background">
		<path id="Path 0" class="s0" d="m0 1000v-1000h2500v1000z"/>
		<path id="Path 1" fill-rule="evenodd" class="s1" d="m2128 76l101 1v651l-103 1zm-880 117l8-1v1h-5zm57 0v-1l6 1h-2zm-68 1l11-1v1zm74 0v-1l9 1zm-80 1l4-1v1zm91 0v-1l5 1zm-99 1l5-1v1h-4zm107 0v-1l4 1zm-111 1l4-1v1zm-8 1l4-1v1h-3zm131 0v-1l3 1h-1zm-136 1l5-1v1zm139 0v-1l5 1zm-142 1l2-1v1zm-5 1l3-1v1h-2zm156 0v-1l3 1zm-159 1l3-1v1zm-3 1l2-1v1zm-4 1l3-1v1zm179 0l-3-1 4 1zm1 0h1v1h-1zm-1122 2l112-1v349h-1v-348zm311 0l112-1-2 368v-14l1-3v-350h-110zm625 0l3-1-2 1zm189 0v-1l2 1h-1zm-191 1l2-1v1zm193 0v-1l2 1zm140 329l1-330v330zm102-49v-281l1 280 2-1v1l-1 1zm-1059 75l1-355v355zm621-354l2-1v1zm208 3l-1-1 2 1zm1 1v-1l2 1zm-220 0h1v1h-1zm223 0h1v1h-1zm-226 2l2-1v1zm-1 0h1v1h-1zm-3 2l2-1-1 1zm236 0l-1-1 2 1zm-238 1l2-1v1zm239 0v-1l2 1zm-240 0h1v1h-1zm242 0h1v1h-1zm-244 1h1v1h-1zm247 1l-1-1 2 1zm-248 0h1v1h-1zm249 0h1v1h-1zm-251 1h1v1h-1zm253 0h1v1h-1zm1 1h1v1h-1zm-257 1h1v1h-1zm259 0h1v1h-1zm-261 1h1v1h-1zm262 0h1v1h-1zm-263 1h1v1h-1zm-2 1h1v1h-1zm268 0h1v1h-1zm-270 1h1v1h-1zm-1 1h1v1h-1zm274 0h1v1h-1zm-276 1h1v1h-1zm278 0h1v1h-1zm-279 1h1v1h-1zm280 0h1v1h-1zm-281 1h1v1h-1zm282 0h1v1h-1zm-283 1h1v1h-1zm285 1l-1-1 2 1zm-287 1l2-1-1 1zm288-1h1v1h-1zm-289 1h1v1h-1zm290 0h1v1h-1zm-291 1h1v1h-1zm292 0h1v1h-1zm-293 1h1v1h-1zm294 0h1v1h-1zm-296 3l1-2v1zm297-2h1v1h-1zm1 1h1v1h-1zm477 0h1v1h-1zm-475 1h1v1h-1zm-303 1h1v1h-1zm304 0h1v1h-1zm473 0h1v1h-1zm5 0h1v1h-1zm-477 1h1v1h-1zm-308 3l2-2v1l-1 1zm309-2h1v1h-1zm477 0h1v1h-1zm-476 1h1v1h-1zm468 0h1v1h-1zm9 0h1v1h-1zm-476 1h1v1h-1zm-313 1h1v1h-1zm314 0h1v1h-1zm464 3l2-3-1 3zm13 0l-1-3 2 3zm-792-2h1v1h-1zm316 0h1v1h-1zm-317 1h1v1h-1zm318 0h1v1h-1zm-319 1h1v1h-1zm320 0h1v1h-1zm1 1h1v1h-1zm459 0h1v1h-1zm15 0h1v1h-1zm-473 1h1v1h-1zm-324 1h1v1h-1zm-1 1h1v1h-1zm327 0h1v1h-1zm454 0h1v1h-1zm19 0h1v1h-1zm-801 1h1v1h-1zm329 0h1v1h-1zm-330 1h1v1h-1zm782 0h1v1h-1zm21 0h1v1h-1zm-471 2v-1l1 2zm472 1v-2l1 2zm-805-1h1v1h-1zm-1 1h1v1h-1zm335 0h1v1h-1zm447 0h1v1h-1zm25 1v-1l1 2zm-808 0h1v1h-1zm337 0h1v1h-1zm-338 1h1v1h-1zm339 0h1v1h-1zm-340 3l1-2v1zm341-1h1v1h-1zm-342 1h1v1h-1zm343 0h1v1h-1zm1 1h1v1h-1zm439 0h1v1h-1zm31 0h1v1h-1zm-816 2h1v1h-1zm-1 1h1v1h-1zm349 0h1v1h-1zm435 0h1v1h-1zm35 0h1v1h-1zm-469 1h1v1h-1zm-351 1h1v1h-1zm784 0h1v1h-1zm37 0h1v1h-1zm-822 1h1v1h-1zm784 2l1-2v1zm39-1v-1l1 2zm-469 0h1v1h-1zm-355 1h1v1h-1zm825 0h1v1h-1zm-468 2h1v1h-1zm-359 1h1v1h-1zm784 1h1v1h-1zm45 0h1v1h-1zm1 2h1v1h-1zm-832 1h1v1h-1zm365 1h1v1h-1zm-366 1h1v1h-1zm367 1v-1l1 2zm417-1h1v1h-1zm51 0h1v1h-1zm-836 3l1-2v2zm837-1v-1l1 2h-1zm-468 0h1v1h-1zm415 0h1v1h-1zm23 0h1v1h-1zm7 0h1v1h-1zm-649 2l3-1h27l1 1h7v1h-45v-1zm618 1l1-2v1zm55-1v-1l1 2zm-839 0h1v1h-1zm371 0h1v1h-1zm-219 2v-1h3zm59 0l-3-1h3zm595-1h1v1h-1zm-807 1h1v1h-1zm147 1v-1h5 1zm71 0l-6-1h1 5zm155-1h1v1h-1zm468 0h1v1h-1zm-842 1h1v1h-1zm223 1l-3-1h3zm-83 1v-1h2zm88 0l-3-1h3zm-91 1l2-1h1zm94 0l-3-1h1 2zm552-1h1v1h-1zm40 2l-1-2 1 1zm21-2h1v1h-1zm-611 1h1v1h-1zm143 0h1v1h-1zm429 0h1v1h-1zm-568 2l-3-1h1 2zm567-1h1v1h-1zm19 0h1v1h-1zm22 0h1v1h-1zm-847 3l1-2v2zm379-2h1v1h-1zm404 0h1v1h-1zm-403 3v-2l1 2zm425-2h1v1h-1zm21 0h1v1h-1zm-699 1h1v1h-1zm119 1l-2-1h2zm536-1h1v1h-1zm22 1l1-1-1 2zm24 1l-1-2 1 1zm21-2h1v1h-1zm-468 2h1v1h-1zm400 0h1v1h-1zm22 0h1v1h-1zm25 0h1v1h-1zm22 0h1v1h-1zm-728 1h1v1h-1zm128 0h1v1h-1zm530 2l1-2v1zm71-1h1v1h-1zm-50 1h1v1h-1zm29 0h1v1h-1zm-833 3l1-2v2zm258-2h1v1h-1zm597 0h1v1h-1zm-595 1h1v1h-1zm521 0h1v1h-1zm75 0h1v1h-1zm-595 1h1v1h-1zm126 1h1v1h-1zm393 0h1v1h-1zm77 0h1v1h-1zm-858 1h1v1h-1zm780 1h1v1h-1zm79 0h1v1h-1zm-860 5l1-4v4zm268-4h1v1h-1zm512 0h1v1h-1zm-509 2l-2-1h1zm530-1h1v1h-1zm39 0h1v1h-1zm-61 1h1v1h-1zm83 1h1v1h-1zm-863 4l1-3v1 2zm779-3h1v1h-1zm85 0h1v1h-1zm-587 3l-2-1h1zm501-1h1v1h-1zm87 0h1v1h-1zm-471 3v-2l1 2zm-117-1h1v1h-1zm-278 4l1-3v3zm279-3h1v1h-1zm568 0h1v1h-1zm-451 4v-2l1 2zm-397 3l1-4v1 3zm398 2v-4l1 4zm-113-2h1v1h-1zm-181 2h1v1h-1zm295 1v-1l1 3h-1zm-400 5l1-4v4zm104-2v-2h1l-1 3zm-1 3v-2h1zm298 2v-4l1 4zm-402 6l1-9v1 8zm293-6l-1-2 1 1zm-475 1l20-2v1h-9l-4 1zm25-1v-1l20 2h-6l-2-1zm260 2l1-3-1 24h-1v-20zm191 0l-1-2h1zm109-1v-1l1 6h-1zm-592 1l4-1v1h-3zm58 0l-4-1 5 1zm-65 1l7-1v1zm67 0v-1l5 1h-1zm5 1v-1l2 1zm-79 1l3-1-2 1zm83 0v-1l3 1h-1zm-86 1l3-1v1zm89 0v-1l3 1zm413 2l-1-3h1zm-508 0l3-1v1zm103 0v-1l2 1zm513 4v-4l1 4zm-692 537h-88l1-540v539h86zm12-484l-2-56 2 55zm59-56h1v1h-1zm114 1l-1-1 2 1zm767-1h1v1h-1zm-766 2v-1l2 1zm765-1h1v1h-1zm-884 1h1v1h-1zm122 0h1v1h-1zm761 0h1v1h-1zm-759 2v-1l2 1h-1zm395 2l-1-3h1zm363-3h1v1h-1zm-756 1h1v1h-1zm755 0h1v1h-1zm-887 1h1v1h-1zm134 0h1v1h-1zm752 1h1v1h-1zm-889 1h1v1h-1zm141 0h1v1h-1zm747 0h1v1h-1zm-890 1h1v1h-1zm145 0h1v1h-1zm744 0h1v1h-1zm-890 1h1v1h-1zm889 0h1v1h-1zm-891 1h1v1h-1zm152 1l-1-1 2 1zm738-1h1v1h-1zm-891 1h1v1h-1zm154 0h1v1h-1zm736 0h1v1h-1zm-734 1h1v1h-1zm-159 1h1v1h-1zm160 0h1v1h-1zm379 3l-1-3h1zm-197-1v-1l1 4zm-345 0h1v1h-1zm166 0h1v1h-1zm727 0h1v1h-1zm-1 1h1v1h-1zm-723 1h1v1h-1zm722 0h1v1h-1zm-895 1h1v1h-1zm174 0h1v1h-1zm720 0h1v1h-1zm126 0h1v1h-1zm-1021 1h1v1h-1zm894 0h1v1h-1zm126 0h1v1h-1zm-1021 1h1v1h-1zm179 0h1v1h-1zm-180 1h1v1h-1zm181 0h1v1h-1zm713 2l1-2v1zm-895-1h1v1h-1zm183 0h1v1h-1zm172 2v-2l1 2zm-356-1h1v1h-1zm186 0h1v1h-1zm709 0h1v1h-1zm-896 1h1v1h-1zm188 0h1v1h-1zm707 0h1v1h-1zm-896 1h1v1h-1zm359 0h1v1h-1zm536 0h1v1h-1zm-897 2l2-1-1 1zm193-1h1v1h-1zm703 0h1v1h-1zm-702 1h1v1h-1zm62 12l-1-12h1v11zm639-12h1v1h-1zm-897 3l1-2v1zm197-2h1v1h-1zm699 0h1v1h-1zm126 0h1v1h-1zm-1 1h1v1h-1zm-1022 1h1v1h-1zm201 0h1v1h-1zm695 0h1v1h-1zm125 0h1v1h-1zm-1022 1h1v1h-1zm203 0h1v1h-1zm165 0h1v1h-1zm528 0h1v1h-1zm125 0h1v1h-1zm-1022 1h1v1h-1zm205 0h1v1h-1zm691 0h1v1h-1zm-690 1h1v1h-1zm689 0h1v1h-1zm-896 1h1v1h-1zm208 0h1v1h-1zm164 0h1v1h-1zm523 0h1v1h-1zm-896 1h1v1h-1zm-1 1h1v1h-1zm895 2l1-2v1zm-896-1h1v1h-1zm-1 1h1v1h-1zm215 0h1v1h-1zm164 0h1v1h-1zm-381 4l2-3v1zm218-3h1v1h-1zm51 4l-1-4h1zm628-4h1v1h-1zm-678 1h1v1h-1zm677 0h1v1h-1zm-676 1h1v1h-1zm165 1l-1-1 2 1zm510-1h1v1h-1zm125 0h1v1h-1zm-1021 1h1v1h-1zm222 0h1v1h-1zm165 0h1v1h-1zm508 0h1v1h-1zm125 0h1v1h-1zm-797 1h1v1h-1zm165 0h1v1h-1zm506 0h1v1h-1zm-895 1h1v1h-1zm225 0h1v1h-1zm166 1l-1-1 2 1zm-165 0h1v1h-1zm166 0h1v1h-1zm502 0h1v1h-1zm-621 9l-2-8h1zm620-8h1v1h-1zm-895 1h1v1h-1zm229 0h1v1h-1zm168 1v-1l2 1zm497-1h1v1h-1zm-664 1h1v1h-1zm169 0h1v1h-1zm494 0h1v1h-1zm-492 2v-1l2 1h-1zm491-1h1v1h-1zm-489 2v-1l2 1zm-407 3l2-3-1 3zm894-3h1v1h-1zm-657 1h1v1h-1zm656 0h1v1h-1zm125 0h1v1h-1zm-1 1h1v1h-1zm-1018 1h1v1h-1zm240 1v-1l1 2zm179 0v-1l2 1zm474-1h1v1h-1zm-1 1h1v1h-1zm-651 1h1v1h-1zm40 2l-1-2h1zm145-1v-1l2 1zm465-1h1v1h-1zm-462 2v-1l4 1h-1zm461-1h1v1h-1zm-457 2v-1l2 1zm456-1h1v1h-1zm-646 1h1v1h-1zm39 4l-1-4h1v3zm156-3v-1l2 1zm3 1v-1l4 1zm446 0l2-1-1 1zm-643 0h1v1h-1zm202 1v-1l2 1zm564 0l1-1-1 2zm-765 0h1v1h-1zm204 1v-1l4 1h-1zm437-1h1v1h-1zm-603 3l-1-2h1zm170-1v-1l2 1zm432-1h1v1h-1zm-639 1h1v1h-1zm212 1v-1l2 1zm426-1h1v1h-1zm124 0h1v1h-1zm-547 2v-1l4 1zm422-1h1v1h-1zm124 0h1v1h-1zm-541 2v-1l2 1zm416-1h1v1h-1zm124 0h1v1h-1zm-758 1h1v1h-1zm36 2l-1-2h1v1zm186-1v-1l3 1h-1zm411-1h1v1h-1zm124 0h1v1h-1zm-532 2v-1l3 1zm-224 0h1v1h-1zm36 2l-1-2h1zm193-1v-1l2 1zm402-1h1v1h-1zm-399 2v-1l4 1zm398-1h1v1h-1zm-1 1h1v1h-1zm-627 1h1v1h-1zm239 1v-1l3 1h-1zm387-1h1v1h-1zm-384 2v-1l4 1zm383-1h1v1h-1zm-378 2v-1l2 1zm3 1v-1l4 1zm497-1h1v1h-1zm-745 1h1v1h-1zm744 0h1v1h-1zm-487 2v-1l3 1h-1zm363-1h1v1h-1zm123 0h1v1h-1zm-742 1h1v1h-1zm259 1v-1l4 1zm359-1h1v1h-1zm123 0h1v1h-1zm-706 3l-1-2 1 1zm582-2h1v1h-1zm-350 2v-1l7 2zm349-1h1v1h-1zm-580 3l-1-2h1zm579-2h1v1h-1zm-613 1h1v1h-1zm276 1l-2-1 3 1zm336-1h1v1h-1zm-335 2v-1l5 1h-1zm334 1l1-2v1zm-329 0v-1l2 1zm-281 0h1v1h-1zm285 1v-1l3 1zm324-1h1v1h-1zm-608 1h1v1h-1zm607 0h1v1h-1zm122 1l1-1h1l-2 2zm-435 1l-2-1 3 1zm312-1h1v1h-1zm-311 2v-1l4 1zm310-1h1v1h-1zm123 0h1v1h-1zm-727 1h1v1h-1zm299 1v-1l2 1zm304-1h1v1h-1zm-299 2v-1l2 1zm298 1l1-2v1zm-601 1v-2l1 2zm34-2h1v1h-1zm279 3v-1l4 1h-1zm286-1h1v1h-1zm-598 1h1v1h-1zm316 1v-1l2 1zm281-1h1v1h-1zm-1 1h1v1h-1zm-273 2v-1l3 1zm272-1h1v1h-1zm121 2l1-1-1 2zm-387 1v-1l3 1zm264 1l1-2v1zm-591 1v-2l1 2zm713-2h1v1h-1zm-378 2l-1-1 2 1zm255-1h1v1h-1zm122 0h1v1h-1zm-376 2v-1l3 1zm253-1h1v1h-1zm122 0h1v1h-1zm-371 1h1v1h-1zm248 0h1v1h-1zm-547 3l-1-2 1 1zm546-2h1v1h-1zm-1 1h1v1h-1zm-584 3v-2l1 2zm39-2h1v1h-1zm307 0h1v1h-1zm237 0h1v1h-1zm-582 3v-1l1 3h-1zm349-1h1v1h-1zm232 0h1v1h-1zm-229 1h1v1h-1zm228 0h1v1h-1zm-1 1h1v1h-1zm122 0h1v1h-1zm-345 1h1v1h-1zm222 0h1v1h-1zm122 0h1v1h-1zm-342 2v-1l2 1zm219-1h1v1h-1zm122 0h1v1h-1zm-698 3v-2l1 2zm359-2h1v1h-1zm338 0h1v1h-1zm-335 2l-1-1 2 1zm211 1l2-2-1 2zm-572 0v-1l1 4h-1zm362 0v-1l2 1zm2 0h1v1h-1zm2 1h1v1h-1zm205 0h1v1h-1zm-1 1h1v1h-1zm-200 2l-1-1 2 1zm199-1h1v1h-1zm-568 3v-2l1 2zm370-1v-1l2 1zm197-1h1v1h-1zm-195 1h1v1h-1zm194 0h1v1h-1zm121 1l1-1-1 2zm-313 0h1v1h-1zm191 2l1-2v1zm-190-1h1v1h-1zm311 0h1v1h-1zm-685 4v-3l1 3zm376-2l-1-1 2 1zm187-1h1v1h-1zm121 0h1v1h-1zm-307 1h1v1h-1zm185 0h1v1h-1zm-184 1h1v1h-1zm183 0h1v1h-1zm-560 2v-1l1 4h-1zm58-1h1v1h-1zm321 0h1v1h-1zm180 0h1v1h-1zm-500 1h1v1h-1zm321 0h1v1h-1zm178 0h1v1h-1zm-497 1h1v1h-1zm321 0h1v1h-1zm175 0h1v1h-1zm-493 2l-2-1h1zm319-1h1v1h-1zm1 1h1v1h-1zm172 0h1v1h-1zm-490 1h1v1h-1zm319 0h1v1h-1zm170 0h1v1h-1zm120 1l1-1-1 2zm-606 1l-2-1h1zm317-1h1v1h-1zm168 0h1v1h-1zm-553 4v-3l1 3zm386-3h1v1h-1zm166 0h1v1h-1zm-480 2l-2-1h2zm316-1h1v1h-1zm163 0h1v1h-1zm121 0h1v1h-1zm-598 2l-2-1h1zm315-1h1v1h-1zm161 0h1v1h-1zm121 0h1v1h-1zm-281 1h1v1h-1zm-389 7v-6l1 6zm390-6h1v1h-1zm158 0h1v1h-1zm-157 1h1v1h-1zm156 0h1v1h-1zm-155 1h1v1h-1zm154 0h1v1h-1zm-153 1h1v1h-1zm152 0h1v1h-1zm-460 1h1v1h-1zm309 0h1v1h-1zm150 0h1v1h-1zm-456 2l-2-1h1 1zm307 0v-1l2 2h-1zm148-1h1v1h-1zm-1 1h1v1h-1zm-541 5v-4l1 4zm396-3h1v1h-1zm264 0h1v1h-1zm-263 1h1v1h-1zm262 0h1v1h-1zm-261 1h1v1h-1zm-290 4l-4-2 4 1zm291-2h1v1h-1zm1 1h1v1h-1zm-288 2l-2-1h2zm4 1l-4-1h1zm2 1l-2-1h2zm284-1h1v1h-1zm-401 8v-7l2 13h-1v-4zm121-6l-2-1h2zm281 0v-1l1 2zm-278 1l-3-1h1 2zm4 1l-2-1h2zm275-1h1v1h-1zm-270 2l-4-1h4zm271 0v-1l1 2zm-268 1l-3-1h1zm269 0h1v1h-1zm-260 2l-4-1h4zm261 0h1v1h-1zm-252 2l-4-1h4zm253 0v-1l1 2zm-250 1l-3-1h1zm9 2l-4-1h4zm242-1h1v1h-1zm1 3v-2l1 2zm255-1v-1l1 2zm-489 1l-4-1h4zm3 1l-3-1h1 2zm5 1l-2-1h2zm227-1h1v1h-1zm256 1v-1l1 2h-1zm-478 1l-5-1h1 4zm3 1l-3-1h1zm220-1h1v1h-1zm-215 2l-3-1h3zm216 0v-1l1 2h-1zm-212 1l-4-1h1 3zm4 1l-2-1h2zm5 1l-4-1h4zm3 1l-3-1h1 2zm201-1h1v1h-1zm-192 3l-7-2 7 1zm193 1v-2l1 2zm-184 1l-4-1h4zm185 0v-1l1 2zm-182 1l-3-1h1 2zm5 1l-2-1h2zm5 1l-5-1h1zm173 1v-2l1 2zm-166 1l-3-1h3zm167 0v-1l1 3h-1zm-164 1l-3-1h1 2zm423 0v-1l1 2h-1zm-419 1l-2-1h2zm4 1l-4-1h1 3zm416 0v-1l1 2zm-414 1l-2-1h1 1zm4 1l-2-1h2zm2 1l-2-1h1 1zm410 0v-1l1 2h-1zm-404 2l-2-1h2zm144 3v-3l1 3zm16 12v-12h1v12zm-148-10l-2-1h2zm133 2v-3l1 3zm-130-1h1v1h-1zm3 2l-2-1h1 1zm2 1l-2-1h1zm0 0h1v1h-1zm3 2l-2-1h1zm123 3v-3l1 3zm1 9v-7l1 7zm-421 1v-5h1l-1 13h-1v-5zm307-3l-2-2h1zm384-1v-1l1 2zm-1412 6v-2l1 5h-1zm1031 0h1v1h-1zm-835 16l2-13v10l-1 1v2zm947-6v-6l1 8h-1zm158-5h1v1h-1zm-1300 8v-7l2 10h-1v-2zm720-6v-1l97 2zm97 12v-11l1 11zm487-7l-1-2h1v1zm117-1v-1l1 2zm-132 1l1-1h1l-2 2zm-253 23l-1-23h1l1 23zm268-23h1v1h-1zm-162 3v-2h1zm145-1l1-1h1l-2 2zm18 0h1v1h-1zm-1417 6l-1-5h1v3zm1398-5h1v1h-1zm-1 1h1v1h-1zm-978 6v-5h1l-1 6zm977-5h1v1h-1zm-1 1h1v1h-1zm-465 2v-1l1 6zm337 148l-1-149h1zm127-149h1v1h-1zm27 2l-1-2h1v1zm-1420 7l-1-8h1zm1420-7h1v1h-1zm-1306 4v-3l1 3zm1425-2v-1l1 2zm-1235 3l1-3v3zm113 6v-9h1zm1004-9h1v1h-1zm-169 12v-11h1zm-1137-8v-1l1 3zm815 2v-2l1 2zm-627-1h1v1h-1zm628 2v-1l1 3h-1zm-930 4l-1-4h1zm301-1l1-2v2zm1124-1h1v1h-1zm119 1v-1l1 2zm-1244 2l1-2v1 1zm631-1h1v1h-1zm214 5l1-4v1zm-1144 1l-1-4h1zm116-4h1v1h-1zm815 2v-2l1 2zm318 2v-4h1zm-1132-2v-1l1 3zm181-1h1v1h-1zm115 3v-3h1l-1 4zm1014-3h1v1h-1zm119 1v-1l1 2zm-1249 2l1-2v2zm635-1h1v1h-1zm-814 1h1v1h-1zm-117 3l-1-2h1zm295-2h1v1h-1zm116 4v-4h1zm731-2l1-2v2zm286-2h1v1h-1zm-607 2v-1h2v1 1h-2zm111-1h1v1h-1zm435 1l1-1-1 2zm-1073 0h1v1h-1zm847 3l1-3v1 2zm-848 0l1-2v1zm531 2l-1-4h1zm-4 0v-3h1l-1 4zm114-3h1v1h-1zm313 3v-3h1l-1 4zm118-3h1v1h-1zm-1364 4l-1-3h1zm1363 119v-122h1zm67-122h1v1h-1zm-1311 1h1v1h-1zm172 0h1v1h-1zm848 0h1v1h-1zm-321 4v-2h1zm6 0l-1-2h1zm111-2h1v1h-1zm310 4v-4h1zm306-3v-1l1 2zm-1550 4l-1-4h1zm120-4h1v1h-1zm168 0h1v1h-1zm647 0h1v1h-1zm496 0h1v1h-1zm-1024 5v-4h1zm529-3v-1l1 2zm-814 1h1v1h-1zm164 0h1v1h-1zm530 2l1-2-1 3zm8 2l-1-4h1v3zm113-4h1v1h-1zm616 2v-1l1 2zm-1552 2l-1-2h1zm937-2h1v1h-1zm196 0h1v1h-1zm109 2v-2h1zm-1119-1h1v1h-1zm160 0h1v1h-1zm531 2v-2h1zm124-2h1v1h-1zm194 0h1v1h-1zm-1008 1h1v1h-1zm158 0h1v1h-1zm542 2l-1-2h1zm115-2h1v1h-1zm-938 4l-1-3h1v2zm124-3h1v1h-1zm279 2l1-2-1 3zm536-2h1v1h-1zm191 0h1v1h-1zm-1005 1h1v1h-1zm815 0h1v1h-1zm189 0h1v1h-1zm111 3v-3h1zm194-3h1v1h-1zm-1308 2v-1l1 2zm153-1h1v1h-1zm849 0h1v1h-1zm-1127 3l-1-2h1zm277-2h1v1h-1zm124 3v-3h1zm540-2l-1-1 2 1zm185 1l1-2v1zm-1000-1h1v1h-1zm150 0h1v1h-1zm546 0h1v1h-1zm-695 1h1v1h-1zm148 0h1v1h-1zm535 1v-1h1l-1 2zm315-1h1v1h-1zm-997 1h1v1h-1zm146 0h1v1h-1zm669 0h1v1h-1zm181 0h1v1h-1zm312 0h1v1h-1zm-1307 1h1v1h-1zm144 0h1v1h-1zm127 2v-2h1zm409 0v-2h1zm314-2h1v1h-1zm-993 1h1v1h-1zm141 1l2-1-1 1zm675-1h1v1h-1zm176 0h1v1h-1zm-991 1h1v1h-1zm139 0h1v1h-1zm554 0h1v1h-1zm297 0h1v1h-1zm116 2v-2h1l-1 3zm-1105-1h1v1h-1zm137 0h1v1h-1zm130 2v-2h1l-1 3zm549-2h1v1h-1zm170 2l2-2v1zm320-2h1v1h-1zm-1304 2l-1-1 2 1zm134-1h1v1h-1zm540 1v-1h1l-1 2zm141-1h1v1h-1zm491 2l-1-2 1 1zm-1305-1h1v1h-1zm691 2l-1-2h1v1zm291-2h1v1h-1zm119 2v-2h1zm-1099 0l-1-1 2 1zm261-1h1v1h-1zm409 2v-2h1zm145-2h1v1h-1zm488 0h1v1h-1zm120 1v-1l1 2zm-1296 0h1v1h-1zm563 2l-1-2h1zm126-2h1v1h-1zm161 0h1v1h-1zm-1109 5l-2-4h1zm134-4h1v1h-1zm123 0h1v1h-1zm693 0h1v1h-1zm-815 1h1v1h-1zm121 0h1v1h-1zm695 0h1v1h-1zm-814 1h1v1h-1zm117 0h1v1h-1zm569 2l-1-2 1 1zm130-2h1v1h-1zm151 0h1v1h-1zm333 0h1v1h-1zm-209 4l1-3h1zm330-2v-1l1 2zm-1418 0h1v1h-1zm684 2l-1-2h1zm132-2h1v1h-1zm145 0h1v1h-1zm-1100 3l-1-2 1 1zm142-1l-1-1 2 1zm105 0l2-1-1 1zm710-1h1v1h-1zm140 1l2-1-1 1zm342 1l-1-2 1 1zm-1296 0v-1l2 1zm102 0l2-1v1zm850 0l2-1v1zm-1094 2l-1-2h1zm242-2h1v1h-1zm145 2v-2h1zm435-2h1v1h-1zm138 0h1v1h-1zm132 0h1v1h-1zm346 0h1v1h-1zm-1290 2l-2-1 3 1zm91 0l2-1v1zm557 0l1-1-1 2zm293 0l2-1v1zm136-1h1v1h-1zm-1076 1h1v1h-1zm674 0h1v1h-1zm-671 2v-1l2 1zm81 0l2-1v1h-1zm562 1v-2h1zm174-1l-2-1 3 1zm114 0l2-1v1h-1zm141 1v-2h1zm-995 0l4-1v1zm741 0v-1l3 1zm110 0l3-1v1zm360-1h1v1h-1zm-1439 1h1v1h-1zm384 1l1-1-1 2zm589-1h1v1h-1zm103 1l2-1v1zm-914 1v-1l3 1h-1zm58 0l3-1v1h-2zm573-1h1v1h-1zm31 0h1v1h-1zm152 1v-1l6 2zm95 0l3-1v1h-2zm-906 1v-1l2 1zm52 0l3-1v1zm166 1v-2h1zm685-1l3-1v1zm374 1l-1-2 1 1zm-1234 0l6-1-5 1zm584 0v-1h1l-1 2zm193 0v-1l3 1zm75 0l4-1v1zm161-1h1v1h-1zm-1219 1h1v1h-1zm206 1l-33-1h33zm781 0v-1l6 1h-1zm63 0l7-1v1zm390-1h1v1h-1zm-651 1h1v1h-1zm204 1v-1l4 1zm51 0l5-1v1zm-665 0h1v1h-1zm626 1v-1h32v1zm212 0l1-1-1 2zm-392 0h1v1h-1zm391 3v-2h1zm347-1v-1l1 2zm-776 1v-1h1l-1 2zm-410 0h1v1h-1zm450 0h1v1h-1zm-823 1h1v1h-1zm782 0h1v1h-1zm659 2l-1-2 1 1zm-231-1h1v1h-1zm-429 1h1v1h-1zm661 2l-1-2h1zm-1438 2l-2-3h1zm823-1l-1-2 1 1zm-457-1h1v1h-1zm457 1h1v1h-1zm616 1h1v1h-1zm-1075 2l1-1-1 2zm410 0l1-1-1 2zm-411 1h1v1h-1zm410 0h1v1h-1zm428 0h1v1h-1zm241 2l-1-2 1 1zm-1081 1l1-1-1 2zm411-1h1v1h-1zm671 2l-1-2h1zm-1438 1l-1-2 1 1zm766-2h1v1h-1zm58 2l-1-2 1 1zm-469-1h1v1h-1zm-355 1h1v1h-1zm765 0h1v1h-1zm795 1v-1l1 2zm-1559 0h1v1h-1zm352 1l1-1-1 2zm472-1h1v1h-1zm614 0h1v1h-1zm-613 1h1v1h-1zm365 0h1v1h-1zm-839 1h1v1h-1zm-349 1h1v1h-1zm826 2l-1-2 1 1zm613 0l-1-2 1 1zm-1438-1h1v1h-1zm1184 1l1-1-1 2zm375 0v-1l1 2zm-1213 0h1v1h-1zm411 0h1v1h-1zm682 2l-1-2h1zm-613-1h1v1h-1zm357 0h1v1h-1zm-660 4l1-2 1 1v1zm232-2h1v1h-1zm-751 1h1v1h-1zm1436 0h1v1h-1zm-1434 2h1v1h-1zm335 0h1v1h-1zm412 0h1v1h-1zm-746 1h1v1h-1zm519 0h1v1h-1zm226 0h1v1h-1zm-744 1h1v1h-1zm331 0h1v1h-1zm-330 1h1v1h-1zm329 0h1v1h-1zm1106 2l-1-2h1v1zm-1434-1h1v1h-1zm327 0h1v1h-1zm412 1l1-1-1 2zm-738 0h1v1h-1zm325 0h1v1h-1zm1108 0h1v1h-1zm-1432 1h1v1h-1zm323 0h1v1h-1zm413 0h1v1h-1zm-735 1h1v1h-1zm734 0h1v1h-1zm698 0h1v1h-1zm-1431 1h1v1h-1zm1156 0h1v1h-1zm-1155 1h1v1h-1zm516 0h1v1h-1zm638 0h1v1h-1zm-1153 1h1v1h-1zm1553 1v-1l1 2zm-1552 0h1v1h-1zm312 1h1v1h-1zm1120 2l-1-2h1v1zm-1122 0l1-1h1zm207-1h1v1h-1zm208 0h1v1h-1zm422 0h1v1h-1zm-1 1h1v1h-1zm286 0h1v1h-1zm-709 1h1v1h-1zm-1 1h1v1h-1zm711 0h1v1h-1zm-1127 1h1v1h-1zm836 0h1v1h-1zm-1133 1h1v1h-1zm295 1l1-1h1zm217-1h1v1h-1zm198 1l1-1h1zm421 0l1-1h1zm-1128 1l-2-1h1zm510-1h1v1h-1zm-509 2h1v1h-1zm288 0h1v1h-1zm835 0h1v1h-1zm301 2l-1-2 1 1zm0 0h1v1h-1zm-1420 1h1v1h-1zm2 1h1v1h-1zm1111 0h1v1h-1zm-1108 2l-2-1h1zm823-1h1v1h-1zm283 1l1-1h1zm-1 0h1v1h-1zm-1103 1h1v1h-1zm266 0h1v1h-1zm241 0h1v1h-1zm594 0h1v1h-1zm-1100 1h1v1h-1zm263 1l1-1h1zm244-1h1v1h-1zm318 0h1v1h-1zm273 1l1-1h1zm-419 1h1v1h-1zm-674 1h1v1h-1zm825 0h1v1h-1zm263 0h1v1h-1zm-1083 3l-3-2 3 1zm246-2h1v1h-1zm256 0h1v1h-1zm-258 2l1-1h1zm261 0l-2-1h1zm160-1h1v1h-1zm159 0h1v1h-1zm255 0h1v1h-1zm-1078 1h1v1h-1zm4 2l-3-1h1zm235 0v-1h2zm590 0l-2-1h2zm245 0v-1h2zm-1070 0h1v1h-1zm233 1l1-1h1zm422-1h1v1h-1zm172 1l-2-1h1zm241-1h1v1h-1zm-837 1h1v1h-1zm600 2l-3-2 3 1zm234-2h1v1h-1zm-1061 1h1v1h-1zm225 1l1-1h1zm277-1h1v1h-1zm557 1v-1h1 1zm-1057 0h1v1h-1zm1055 0h1v1h-1zm-1051 2l-2-1h2zm1048 0v-1h2zm-1046 1l-2-1h1 1zm634-1h1v1h-1zm410 1l1-1h1zm-413 0h1v1h-1zm198 0h1v1h-1zm212 1v-1h2zm-536 1l-2-1h2zm124 0v-1h1 1zm204 0l-3-1h1 2zm205 0l2-1h1zm-1031 0h1v1h-1zm1029 0h1v1h-1zm-197 2l-2-1h2zm193 0v-1h3zm470 0l-104-1h104zm-992 0h1v1h-1zm331 1l-2-1h1 1zm189 0v-1h1 1zm-1013 1l-2-1h2zm496-1h1v1h-1zm514 1v-1h2zm-1006 1l-4-1h1 3zm167 0v-1h4zm330 0l-4-1h1zm98 0v-1h2zm234 0l-4-1h4zm174 0v-1h2 1zm-1000 1l-2-1h2zm161 0l2-1h1zm334-1h1v1h-1zm334 1l-2-1h2zm-822 2l-5-2 5 1zm147-1l5-1-5 2zm427 0l5-1-5 2zm253 0l-3-1h3zm156 0l1-1h3l-6 2zm-153 1l-3-1h1 2zm-826 1l-2-1h2zm137 0v-1h3zm426 0v-1h4zm410 0v-1h2zm-968 1l-5-1h1 4zm125 0v-1h6zm374 0l-6-1h6zm52 0v-1h6 1zm281 0l-6-1h6zm131 0v-1h4zm-958 1l-4-1h1zm116 0v-1h3 1zm716 0l-5-1h1 4zm121 0v-1h3 1zm-946 1l-4-1h4zm101 0l1-1h4l-7 2v-1zm428-1l-12 2-20-2zm304 1l-4-1h4zm106 0v-1h4zm-935 1l-4-1h1 3zm834 0l-5-1h1 4zm97 0v-1h3 1zm-920 1l-6-1h6zm72 0v-1h6zm763 0l-6-1h6zm74 0v-1h6zm-895 1l-13-1h13zm44 0v-1h12zm792 0l-12-1h12zm45 0v-1h12zm-225 11h1v1h-1zm10 0h1v1h-1zm-249 2l6-1v1h-5zm12 0v-1l6 1h-1zm508 0h3-2zm83 0l8-1v1h-6zm15 0v-1l7 1h-1zm-621 1l3-1v1zm21 0v-1l3 1zm500-1h1v1h-1zm83 1l2-1v1zm24 0v-1l3 1zm-631 0h1v1h-1zm28 1v-1l2 1h-1zm494-1h1v1h-1zm10 0h1v1h-1zm103 1v-1l2 1zm-605 1v-1l2 1zm491-1h1v1h-1zm12 0h1v1h-1zm67 1l2-1v1zm-604 0h1v1h-1zm37 0h1v1h-1zm487 3l1-3v3zm78-3h1v1h-1zm42 0h1v1h-1zm-646 1h1v1h-1zm41 1l-1-1 2 1zm560 0l2-1v1h-1zm48 0l-1-1 2 1zm-650 0h1v1h-1zm43 0h1v1h-1zm499 3v-3l1 3zm59-3h1v1h-1zm50 0h1v1h-1zm663 0l51 1 19 10 5 11v14l-4 8-11 9 13 7 5 19-5 14-16 11-72 2v-105zm-1316 1h1v1h-1zm47 1l-1-1 2 1zm554-1h1v1h-1zm54 1l-1-1 2 1zm-656 0h1v1h-1zm49 0h1v1h-1zm552 0h1v1h-1zm56 0h1v1h-1zm-658 1h1v1h-1zm51 0h1v1h-1zm35 22v-22l1 22zm380 1h-31v-23l1 22 31 1zm81-22v-1 11-1zm54-1h1v1h-1zm58 0h1v1h-1zm-660 1h1v1h-1zm22 1l2-1h6l2 1h2v1h-14v-1zm31-1h1v1h-1zm23 4l2-4v1l-1 2zm350-4h1v1h-1zm174 0h1v1h-1zm31 1v-1h4l3 1h2v1zm31 0v-1l2 2h-1zm-663 0h1v1h-1zm55 0h1v1h-1zm356 21l14-1 2-20v20zm123-19l-1-2h1v1zm66-2h1v1h-1zm25 1v-1h4 3zm-588 0h1v1h-1zm562 0h1v1h-1zm-600 1h1v1h-1zm41 1l-2-1h1 1zm16-1h1v1h-1zm478 0h1v1h-1zm64 0h1v1h-1zm20 1v-1h3zm30 0l-2-1h2zm18 0v-1l2 3zm-668 0h1v1h-1zm16 0h1v1h-1zm43 0h1v1h-1zm198 26l2 1 1-27v29h-1l-1-1zm280-26h1v1h-1zm62 0h1v1h-1zm19 1l1-1h1zm34 0l-2-1h1zm-638 1l1-1h1zm32 1l-2-2 2 1zm14-1v-1l1 2zm481 0l-3-1h1zm57-1h1v1h-1zm-599 1h1v1h-1zm546 5v-4l-4-1h2 2l1 5zm70-5h1v1h-1zm55 0h1v1h-1zm-609 1h1v1h-1zm610 0h1v1h-1zm-660 2l1-1-1 2zm51 0v-1l1 3zm534-1h1v1h-1zm-1 1h1v1h-1zm65 3l-2-3 2 2zm12-3h1v1h-1zm-675 3l1-2v2zm13-2h1v1h-1zm39 0h1v1h-1zm501 4v-4h1zm44-2l1-2v1zm16-2h1v1h-1zm-547 1h1v1h-1zm546 0h1v1h-1zm-600 1h1v1h-1zm535 0h1v1h-1zm49 0h1v1h-1zm67 0h1v1h-1zm14 0h1v1h-1zm-67 1h1v1h-1zm54 0h1v1h-1zm-652 11l-1-10h1zm55-7v-2l1 2zm478-2h1v1h-1zm-1 1h1v1h-1zm7 1l1-1-1 2zm43-1h1v1h-1zm14 0h1v1h-1zm59 2l-1-2h1v1zm12 0v-2l1 2zm-611-1h1v1h-1zm475 0h1v1h-1zm64 1l1-1-1 2zm-543 1l3-1h1l-4 2zm472 0l5-1v1h-4zm14-1h1v1h-1zm117 0h1v1h-1zm331 2l8-2 5 2h-6-1zm-940 1l-2-2h1l1 1zm477 0l1-2v1 1zm71-2h1v1h-1zm190 1l4-1v1zm7 0v-1l5 1zm-744 1v-1h2zm165 0l2-1v1zm79 0l2-1v1zm21 0v-1l2 1zm57 0l3-1-2 1zm21 0v-1l2 1zm94 0l2-1v1zm22 0l-2-1 3 1zm74 1l1-2v2zm77 0l-1-2 1 1zm124-2h1v1h-1zm17 0h1v1h-1zm185 1l2-1v1h-1zm-937 0h1v1h-1zm36 1v-1h31l1 10-32 1v46h-1v-47l32-1-1-8zm36 52l-1-52h11l-10 1v48zm53-7v-45l12 1h-1-9l-1 1v3 36 4zm38-45l2-1v1zm26 0v-1l2 1zm52 0l3-1v1h-2zm79 0l3-1v1zm28 0l-2-1 3 1zm87 0l3-1-2 1zm26 0v-1l3 1zm86 0v-1h1l-1 2zm104 0l2-1v1zm29 0v-1l2 1zm53-1h1v1h-1zm21 1v-1l2 1h-1zm32 0l3-1v1zm27 0v-1l3 1h-1zm47 0l3-1v1zm27 0v-1l3 1h-1zm48 0l2-1v1h-1zm-853 0h1v1h-1zm79 0h1v1h-1zm31 0h1v1h-1zm48 0h1v1h-1zm66 0h1v1h-1zm13 0h1v1h-1zm30 0h1v1h-1zm7 6l2-6v7h-2zm60-5v-1 9zm18-1h1v1h-1zm30 0h1v1h-1zm148 4l-1-4h1zm110 1l-1-5 2 5zm9-4l2-1-1 1zm25-1h1v1h-1zm29 0h1v1h-1zm31 0h1v1h-1zm43 0h1v1h-1zm31 0h1v1h-1zm36 71l-11 1 1-72v1 70zm-2-69v-2l1 2zm10-2h1v1h-1zm24 0h1v1h-1zm-799 1h1v1h-1zm35 0h1v1h-1zm44 0h1v1h-1zm36 1l-1-1 2 1zm43-1h1v1h-1zm34 0h1v1h-1zm81 0h1v1h-1zm34 0h1v1h-1zm15 1l-4-1h1 3zm1 0v-1h4zm64 1v-2h1zm139-2h1v1h-1zm26 63l2-63v65h-1l-1-1zm19-63h1v1h-1zm27 0h1v1h-1zm25 1l2-1-1 1zm36-1h1v1h-1zm38 1l2-1-1 1zm36-1h1v1h-1zm41 0h1v1h-1zm27 0h1v1h-1zm-765 1h1v1h-1zm80 0h1v1h-1zm77 0h1v1h-1zm129 0h1v1h-1zm205 0h1v1h-1zm43 0h1v1h-1zm29 0h1v1h-1zm23 0h1v1h-1zm74 0h1v1h-1zm70 2v-2l1 7zm7-2h1v1h-1zm29 0h1v1h-1zm-805 1h1v1h-1zm41 0h1v1h-1zm38 0h1v1h-1zm42 0h1v1h-1zm37 0h1v1h-1zm39 0h1v1h-1zm76 0h1v1h-1zm40 0h1v1h-1zm153 0h1v1h-1zm66 0h1v1h-1zm40 0h1v1h-1zm31 0h1v1h-1zm20 0h1v1h-1zm42 0h1v1h-1zm32 0h1v1h-1zm42 0h1v1h-1zm67 0h1v1h-1zm-1007 1h1v1h-1zm243 0h1v1h-1zm35 1l2-1-1 1zm45-1h1v1h-1zm34 1l2-1-1 1zm42-1h1v1h-1zm74 0h1v1h-1zm42 0h1v1h-1zm75 2v-2h1zm72-1v-1h4zm25-1h1v1h-1zm47 0h1v1h-1zm38 0h1v1h-1zm33 0h1v1h-1zm18 0h1v1h-1zm44 0h1v1h-1zm30 0h1v1h-1zm111 1v-1l1 2zm-1007 0h1v1h-1zm243 0h1v1h-1zm80 0h1v1h-1zm28 4v-4l3 3-1 1zm48-4h1v1h-1zm116 0h1v1h-1zm61 3l1-3v3zm109-3h1v1h-1zm49 0h1v1h-1zm36 0h1v1h-1zm51 0h1v1h-1zm46 0h1v1h-1zm28 0h1v1h-1zm-894 1h1v1h-1zm195 0h1v1h-1zm48 0h1v1h-1zm31 0h1v1h-1zm49 0h1v1h-1zm31 0h1v1h-1zm16 1l2-1 10 1v1h-14v-1zm118 0l2-1h4l2 1 3 1h-13v-1zm27-1h1v1h-1zm219 0h1v1h-1zm159 0h1v1h-1zm49 0h1v1h-1zm29 0h1v1h-1zm36 0h1v1h-1zm-1006 1h1v1h-1zm193 0h1v1h-1zm50 0h1v1h-1zm29 0h1v1h-1zm51 0h1v1h-1zm29 0h1v1h-1zm163 0h1v1h-1zm71 4v-4h1zm116-3v-1h12v1zm32-1h1v1h-1zm33 0h1v1h-1zm13 1v-1h8v1zm111-1h1v1h-1zm51 0h1v1h-1zm41 1v-1l8 1zm24 1v-2l1 2zm-1006-1h1v1h-1zm191 0h1v1h-1zm79 0h1v1h-1zm53 0h1v1h-1zm58 0h1v1h-1zm85 0h1v1h-1zm16 0h1v1h-1zm90 6l1-6v1 5zm144-6h1v1h-1zm18 1v-1l1 2zm31-1h1v1h-1zm102 0h1v1h-1zm22 0h1v1h-1zm53 1v-1l1 2zm37-1h1v1h-1zm12 0h1v1h-1zm-1006 3l-1-2h1v1zm17-1v-1l3 2zm63 33l-1-33-14-1 15 1v2 1l1 23v6zm204-34h1v1h-1zm55 0h1v1h-1zm37 1v-1h2zm23 0l-2-1h1 1zm16 0v-1l15 1v47l-2-47zm25 45v-46h32l-31 1v45zm40-44l1-2v2zm15-1v-1h1 1zm21 0l-2-1h2zm14-1h1v1h-1zm163 0h1v1h-1zm17 1v-1h2zm25 0l-3-1h1zm44-1h1v1h-1zm26 0h1v1h-1zm14 0h1v1h-1zm10 0h1v1h-1zm54 0h1v1h-1zm20 0h1v1h-1zm89 1v-1h1 1zm17 0l-2-1h1zm13 0v-1l1 2h-1zm-817 0h1v1h-1zm169 1l1-1h1zm25-1h1v1h-1zm15 0h1v1h-1zm117 0h1v1h-1zm161 0h1v1h-1zm16 1l1-1h1zm27-1h1v1h-1zm15 0h1v1h-1zm56 0h1v1h-1zm22 0h1v1h-1zm56 0h1v1h-1zm18 0h1v1h-1zm56 0h1v1h-1zm33 0h1v1h-1zm-991 1h1v1h-1zm22 1v-1l2 1h-1zm182-1h1v1h-1zm136 0h1v1h-1zm33 0h1v1h-1zm29 2l-2-2h1l1 1zm13 0v-2l1 2zm64 0l1-2v1 1zm39-2h1v1h-1zm269 0h1v1h-1zm40 0h1v1h-1zm74 0h1v1h-1zm-877 2v-1l4 1zm179-1h1v1h-1zm79 0h1v1h-1zm59 0h1v1h-1zm31 0h1v1h-1zm147 0h1v1h-1zm13 0h1v1h-1zm159 0h1v1h-1zm60 2v-2l1 2zm35-2h1v1h-1zm22 0h1v1h-1zm18 2l1-2v1zm74 0l1-2v1zm-871 0v-1l2 1zm173 1l1-2v1 1zm79 0l1-2v1zm121-2h1v1h-1zm14 1v-1l1 3h-1zm369-1h1v1h-1zm101 0h1v1h-1zm74 0h1v1h-1zm63 2v-2l1 2zm-990 0v-1l4 1h-1zm309-1h1v1h-1zm28 0h1v1h-1zm382 1v-1l1 2h-1zm69 4v-5 6zm4-5h1v1h-1zm-788 2v-1l3 1zm243-1h1v1h-1zm63 2v-2l1 2zm26-2h1v1h-1zm320 2l1-2v2zm122 0l-1-2 1 1zm150-2h1v1h-1zm63 1v-1l-1 5zm-823 0h1v1h-1zm203 0h1v1h-1zm297 1l1-1-1 2zm41 7l-1-8h1l1 8zm41-8h1v1h-1zm-777 1h1v1h-1zm40 1v-1l3 1zm233-1h1v1h-1zm252 1v-1h2zm281 3l-1-4h1zm76-4h1v1h-1zm-881 1h1v1h-1zm193 0h1v1h-1zm144 0h1v1h-1zm62 3l-1-3h1zm11 37v-40l1 53zm111-39v-1h2zm172-1h1v1h-1zm53 7v-7l1 7zm70-7h1v1h-1zm74 0h1v1h-1zm-698 3l1-2v1 1zm79 0l1-2v1 1zm-267-1h1v1h-1zm678 0h1v1h-1zm92 0h1v1h-1zm37 1l2-1h1zm78 2l1-3v3zm-839-2h1v1h-1zm288 2v-2l1 2zm673-2h1v1h-1zm-1000 2l-3-1h3zm41 0v-1l3 2zm218 2l1-3v3zm418-2l-2-1h2zm195 2v-3l1 3zm74 0v-3l1 3zm-943-1l-3-1h1zm325 0v-1l1 4zm145-1h1v1h-1zm205 0h1v1h-1zm2 0h1v1h-1zm82 4v-4h1l-1 49-11-1h10v-43zm41-1l1-3v3zm-792 0l-7-2 7 1zm33-2h1v1h-1zm136 0h1v1h-1zm282 3l-1-3 1 2zm12-3h1v1h-1zm249 0h1v1h-1zm154 2l1-2v2zm-832-1h1v1h-1zm213 3l1-3v1 2zm88 1v-4h1l-1 47h-9v-1h8v-41zm376-4h1v1h-1zm225 1v-1l1 8zm-768 3l1-3v3zm299-3h1v1h-1zm395 5v-5l1 5zm-853-3l-4-1h4zm27-1h1v1h-1zm415 0h1v1h-1zm18 1v-1l7 2zm225 1l13-2v1h-6l-1 1zm-681 0l-3-1h1zm24-1h1v1h-1zm1 1h1v1h-1zm443 1l-3-1 4 1zm78 4l-1-5h1zm127-4l4-1v1h-3zm38 29v-30h1v30zm-705-28l-2-1h2zm464 0v-1l4 1zm197 0l5-1v1h-4zm-660 0h1v1h-1zm658 1l2-1v1zm-656 0h1v1h-1zm18 0h1v1h-1zm415 0h1v1h-1zm37 1v-1l2 1zm79 2v-3l1 3zm77-3h1v1h-1zm2 1v-1l4 1h-1zm24 0l3-1-2 1zm-218 0h1v1h-1zm198 1v-1l3 1zm18 0l2-1v1zm-631 2v-2l1 2zm457-2h1v1h-1zm161 4l-1-4 1 5zm11-4h1v1h-1zm-644 1h1v1h-1zm436 1l-2-1h2zm98 2l-1-3h1zm-533-2h1v1h-1zm15 1v-1l1 5h-1zm459-1h1v1h-1zm166 0h1v1h-1zm-199 2l-3-1h3zm35-1h1v1h-1zm162 0h1v1h-1zm-696 2l6 1h-1zm503 0l-4-1h1 3zm32-1h1v1h-1zm160 0h1v1h-1zm214 1l59-1-59 2zm-401 1l-2-1h2zm28-1h1v1h-1zm153 4v-4h1zm5-4h1v1h-1zm140 2l59-2h1l-59 1v4h-1v-2zm-840-1h1v1h-1zm519 1l-5-1h1 4zm24-1h1v1h-1zm55 2l-1-2h1zm101-2h1v1h-1zm215 3v-3h1v3zm-902 2v-4l1 4zm532-4h1v1h-1zm138 0h1v1h-1zm16 2l1-2v1zm-413 2l-1-3h1v2zm242-2l-2-1h2zm84-1h1v1h-1zm-610 4l-1-3h1zm205 0l-1-3h1zm323-2l-2-1h1 1zm16-1h1v1h-1zm152 0h1v1h-1zm133 4l-1-4h1zm-742-1v-2h1v2zm442-2h1v1h-1zm151 0h1v1h-1zm13 0h1v1h-1zm210 2l-1-2h1zm-891 0v-1l1 2zm273 2l-1-3h1zm247-2l-2-1h1zm13 11v-12l2 7zm66-12h1v1h-1zm84 2l1-2v2zm-617 4v-5h1l-1 6zm534-5h1v1h-1zm80 2v-2h1zm222-2h1v1h-1zm-727 3l1-2v2zm18-2h1v1h-1zm286 0h1v1h-1zm122 1v-1l1 2zm65-1h1v1h-1zm16 3l1-3v1 2zm-694-2h1v1h-1zm485 1l5-1v1zm7-1h1v1h-1zm107 0h1v1h-1zm-512 3v-2h1v2zm59 0v-2l1 2zm140 0l-1-2h1zm11-2h1v1h-1zm183 3l5-3-2 2-1 2h-2zm134-3h1v1h-1zm63 0h1v1h-1zm-675 3l-1-2h1zm12-2h1v1h-1zm112 2l2-1-1 1zm60 0l1-2v2zm21 0l-1-2h1zm268-1l4 1h-3zm140-1h1v1h-1zm61 0h1v1h-1zm166 0h1v1h-1zm74 0h1v1h-1zm-851 3l1-2v2zm63-1v-1l2 1zm170-1h1v1h-1zm392 0h1v1h-1zm140 0h1v1h-1zm13 1v-1l1 2zm61-1h1v1h-1zm-827 3v-2h1zm11 4l-1-6h1zm37-4l1-2v2zm6-2h1v1h-1zm1 1l3-1h1v4 1l-2 1zm53 1l1-2v1zm161-2h1v1h-1zm5 0h1v1h-1zm250 0h1v1h-1zm16 1v-1l2 2h-1zm273-1h1v1h-1zm27 0h1v1h-1zm-901 1h1v1h-1zm329 0h1v1h-1zm8 1v-1l2 1zm491-1h1v1h-1zm45 2l1-2v1zm10-1l-2-1 3 1zm19-1h1v1h-1zm56 5l-3-5 4 1zm-957-4h1v1h-1zm47 0h1v1h-1zm60 2l1-2v1 1zm60-2h1v1h-1zm116 0h1v1h-1zm44 0h1v1h-1zm11 0h1v1h-1zm545 1v-1l-1 5zm63-1h1v1h-1zm-960 1h1v1h-1zm15 0h1v1h-1zm45 0h1v1h-1zm120 2l1-2v1zm25-2h1v1h-1zm81 2l-1-2 1 1zm12-2h1v1h-1zm55 0h1v1h-1zm92 1v-1l1 3zm47-1h1v1h-1zm39 0h1v1h-1zm86 0h1v1h-1zm51 0h1v1h-1zm16 1l1-1-1 2zm8 3l-1-4h1v3zm137-4h1v1h-1zm14 1v-1l1 2zm42-1h1v1h-1zm32 1v-1l2 2h-1zm42-1h1v1h-1zm-958 1h1v1h-1zm15 0h1v1h-1zm43 0h1v1h-1zm14 0h1v1h-1zm23 1v-1l1 2zm203-1h1v1h-1zm53 2v-2h1zm141-2h1v1h-1zm108 0h1v1h-1zm17 0h1v1h-1zm49 0h1v1h-1zm217 0h1v1h-1zm21 2l-1-2 1 1zm53-2h1v1h-1zm-955 3l-1-2 1 1zm14-2h1v1h-1zm103 0h1v1h-1zm14 2l-1-2h1zm12-2h1v1h-1zm33 0h1v1h-1zm27 0h1v1h-1zm81 2l-1-2h1v1zm13-2h1v1h-1zm38 0h1v1h-1zm131 0h1v1h-1zm25 0h1v1h-1zm108 0h1v1h-1zm17 0h1v1h-1zm47 0h1v1h-1zm17 0h1v1h-1zm200 0h1v1h-1zm74 0h1v1h-1zm-900 1h1v1h-1zm90 0h1v1h-1zm31 0h1v1h-1zm123 0h1v1h-1zm36 0h1v1h-1zm109 0h1v1h-1zm22 2l1-2v1zm12-2h1v1h-1zm15 0h1v1h-1zm34 0h1v1h-1zm12 0h1v1h-1zm80 1v-1l3 2zm43 0l2-1-1 1zm182-1h1v1h-1zm35 0h1v1h-1zm24 0h1v1h-1zm15 0h1v1h-1zm-917 1h1v1h-1zm17 0h1v1h-1zm36 0h1v1h-1zm30 3l-1-3h1v2zm11-3h1v1h-1zm38 3l-1-3 1 2zm42-3h1v1h-1zm110 0h1v1h-1zm49 0h1v1h-1zm99 2l-1-2h1v1zm12-1v-1l1 2zm34-1h1v1h-1zm15 0h1v1h-1zm32 0h1v1h-1zm135 0h1v1h-1zm30 2l-1-2h1zm65-1v-1l1 4zm89-1h1v1h-1zm33 0h1v1h-1zm41 0h1v1h-1zm33 0h1v1h-1zm-932 1h1v1h-1zm32 0h1v1h-1zm44 0h1v1h-1zm51 0h1v1h-1zm26 0h1v1h-1zm33 0h1v1h-1zm80 0h1v1h-1zm16 0h1v1h-1zm30 0h1v1h-1zm133 0h1v1h-1zm12 0h1v1h-1zm19 1l-1-1 2 1zm28 0l2-1-1 1zm14 0v-1h1l-1 2zm85-1h1v1h-1zm35 1l2-1-1 1zm107-1h1v1h-1zm67 2l-1-2 1 1zm15-2h1v1h-1zm74 0h1v1h-1zm29 1l2-1-1 1zm-928 1v-1l2 1zm46-1h1v1h-1zm29 0h1v1h-1zm17 1l2-1-1 1zm13 1v-2h1zm21-2h1v1h-1zm59 0h1v1h-1zm59 11l-3-1v-10h1v6l1 3 1 1zm38-10v-1l2 1zm130 1l-1-2h1zm12-2h1v1h-1zm17 1l2-1-1 1zm34 0v-1l2 1zm25 0l2-1v1zm134 0l2-1v1zm87 0l1-1h1v2h-2zm23-1h1v1h-1zm182 1l2-1v1zm-900 0h1v1h-1zm36 0h1v1h-1zm14 0h1v1h-1zm15 0h1v1h-1zm20 0h1v1h-1zm16 0h1v1h-1zm21 0h1v1h-1zm12 1l2-1v2zm78 0l1-1-1 2zm68-1h1v1h-1zm119 0h1v1h-1zm15 0h1v1h-1zm19 0h1v1h-1zm40 0h1v1h-1zm16 0h1v1h-1zm91 1v-1l2 1zm63-1h1v1h-1zm76 0h1v1h-1zm158 0h1v1h-1zm-898 2v-1l5 1h-1zm15 0l4-1v1h-3zm111 0l-2-1 3 1zm28 0l1-1-1 2zm128 0v-1l4 1h-1zm4 0l14-1-14 2zm33-1h1v1h-1zm104 1l-2-1 3 1zm52 0v-1l4 1h-1zm4 0l14-1-14 2zm100-1h1v1h-1zm25 1v-1l6 1h-2zm16 0l5-1v1h-3zm95-1h1v1h-1zm16 1l-1-1 2 1zm1 0l3-1v1l-3 1zm9-1h1v1h-1zm65 0h1v1h-1zm20 1v-1l5 1h-2zm5 0l13-1v1h-3l-1 1h-9zm49-1h1v1h-1zm23 1l-3-1 14 1v1h-10zm11 0l4-1v1h-3zm-909 1v-1h10v1zm102-1h1v1h-1zm20 1v-1l4 1zm31 6l-1-7h1zm74-7h1v1h-1zm86 0h1v1h-1zm89 0h1v1h-1zm17 1v-1l3 1zm156-1h1v1h-1zm31 1v-1h9v1zm103-1h1v1h-1zm93 0h1v1h-1zm74 0h1v1h-1zm-773 1h1v1h-1zm123 0h1v1h-1zm33 0h1v1h-1zm183 0h1v1h-1zm414 0h1v1h-1zm-880 1h1v1h-1zm170 1l1-1h1zm79-1h1v1h-1zm35 0h1v1h-1zm181 0h1v1h-1zm266 0h1v1h-1zm148 0h1v1h-1zm74 0h1v1h-1zm-705 1h1v1h-1zm355 0h1v1h-1zm59 0h1v1h-1zm242 0h1v1h-1zm-824 1h1v1h-1zm33 1l1-1h1zm55-1h1v1h-1zm78 1l1-1h1zm41-1h1v1h-1zm142 0h1v1h-1zm34 0h1v1h-1zm60 0h1v1h-1zm82 0h1v1h-1zm55 0h1v1h-1zm28 0h1v1h-1zm40 0h1v1h-1zm11 2l-1-2 1 1zm22-1l1-1 1 3-2-1zm115-1h1v1h-1zm31 1l-2-1h1 1zm43-1h1v1h-1zm-869 1h1v1h-1zm50 0h1v1h-1zm35 1l1-1h1zm42-1h1v1h-1zm37 0h1v1h-1zm185 0h1v1h-1zm31 1l1-1h1zm20-1h1v1h-1zm40 1l1-1h1zm87 0l-2-1h1 1zm50 0l1-1h1zm33 0l-2-1h1zm36-1h1v1h-1zm106 0h1v1h-1zm76 1l-2-1h1zm-860 0h1v1h-1zm60 1l3-1-3 2zm56-1h1v1h-1zm48 2l-3-2 3 1zm30-2h1v1h-1zm48 0h1v1h-1zm169 0h1v1h-1zm27 2l-4-2 4 1zm126 0l-4-2 4 1zm112-2h1v1h-1zm147 0h1v1h-1zm74 0h1v1h-1zm-899 2v-1h1 1zm37-1h1v1h-1zm79 1v-1h1 1zm14-1h1v1h-1zm9 0h1v1h-1zm55 1v-1h1 1zm24-1h1v1h-1zm30 1l-3-1h1zm30 0v-1h2zm22-1h1v1h-1zm54 0h1v1h-1zm9 1v-1h1 1zm48 0v-1h1 1zm265 0v-1h1 1zm116 0l-2-1h2zm30 0l2-1h1zm44 0l-2-1h2zm30 0l2-1h1zm-931 0h1v1h-1zm33 0h1v1h-1zm62 0h1v1h-1zm108 0h1v1h-1zm220 0h1v1h-1zm21 0h1v1h-1zm59 0h1v1h-1zm136 1v-1h2zm90-1h1v1h-1zm126 0h1v1h-1zm49 1l-2-1h2zm25-1h1v1h-1zm-923 2l-4-1h4zm22 0v-1h3zm62 0v-1h4zm40 0l-3-1h3zm13 0v-1h4zm83-1l-4 2-17-2h5l2 1h8l1-1zm83 0l-4 2-18-2h5l1 1h10l1-1zm134 0l-3 2-15-2zm40 1l-4-1h4zm13 0l1-1h4l-18 1h2zm113 0l-4-1h4zm25 0v-1h3zm56 0l-4-1h4zm13 0v-1h5zm30 0l-2-1h2zm8 0v-1h3zm108 0v-1h5zm74 0v-1h5zm-913 1l-4-1h1 3zm14 0v-1h3 1zm590 0l-5-1h1 4zm15 0v-1h4 1zm-671 19v-1h1 1z"/>
		<path id="Path 2" class="s0" d="m1852 361l1-1h1l-1 335-1-2-1-1v-1l-1-1-1-2-1-1v-1l-1-1-1-2-1-1v-1l-1-1-1-1v-1l-1-2-1-1-1-2-1-2-1-1v-1l-1-1-1-2-1-1v-1l-1-1-1-1v-1l-1-1v-1l-1-1v-1l-1-1-1-2-1-1v-1l-1-1-1-2-1-1v-1l-1-1-1-1v-1l-1-1v-1l-1-1-1-1v-1l-1-2-1-1v-1l-1-1-1-2-1-1v-1l-1-1-1-2-1-1v-1l-1-1-1-1v-1l-1-1-1-2-1-1v-1l-1-2-1-1v-1l-1-1-1-2-1-1v-1l-1-1-1-2-1-1v-1l-1-1-1-1v-1l-1-2-1-1-1-1v-1l-1-2-1-1v-1l-1-1-1-2-1-1v-1l-1-1-1-2-1-1-1-2-1-1v-1l-1-1v-1l-1-1-1-2-1-2-1-1v-1l-1-1-1-1v-1l-1-1v-1l-1-1-1-1v-1l-1-1-1-2-1-1v-1l-1-2-1-1-1-2-1-2-1-1-1-2-1-1v-1l-1-1-1-2-1-1v-1l-1-1-1-2-1-1v-1l-1-2-1-1-1-2-1-2-1-1v-1l-1-1-1-1v-1l-1-1-1-2-1-1v-1l-1-1-1-2-1-1v-1l-1-2-1-1-1-2-1-1v-1l-1-1v-1l-1-1-1-1v-1l-1-1-1-2-1-1v-1l-2-3v-1l1-1 1-1 1-1 1-1 1-1v-1l2-2 1-1 1-1 1-1 1-1 1-1 1-1 1-1 1-1v-1h1l1-2 1-1 1-1 1-1 1-1 1-1 1-1 1-1 1-1 1-1 1-2 1-1 1-1 1-1 1-1 1-1 1-1 1-1 1-1 1-1 1-1 1-1v-1l1-1 1-1 1-1 1-1 1-1 1-1 1-1 1-1 1-1 1-2 1-1 1-1 1-1 1-1 1-1 1-1 1-1 1-1 1-1 2-2v-1l1-1 1-1 1-1 1-1 1-1 1-1 1-1 1-1 1-1 1-1v-1l1-1 1-1 1-1 1-1 1-1 1-1 1-1 1-1 1-1 1-1v-1h1l1-2 1-1 1-1 1-1 1-1 1-1 1-1 1-1 1-1 1-1v-1l2-2 1-1 1-1 1-1 1-1 1-1 1-1 1-1 1-1v-1l1-1 1-1 1-1 1-1 1-1 1-1 1-1 1-1 1-1 1-1 1-1 1-1v-1l1-1 1-1 1-1 1-1 1-1 1-1z"/>
		<path id="Path 3" fill-rule="evenodd" class="s2" d="m1256 193l3-1h18 7 17l4 1h4l2 1h9 1l1 1h5 1l2 1h4l4 1h3l1 1h2l1 1h5l2 1h1l1 1h3l3 1h1l3 1 3 1 1 1h1 1l1 1h1l1 1h2 1l2 1 3 1 2 1h1l1 1 1 1h2l1 1h1l2 1 2 1 1 1 1 1h2l1 1h1l1 1 1 1h1l1 1 1 1h1l1 1h1l1 1 2 1 1 1 2 1 1 1 1 1 1 1h1l1 1 1 1 1 1h1v1l1 1h1l1 1 1 1 1 1 1 1 1 1h1l1 1 1 1 1 1 1 1 1 1 1 1 1 1 1 1 1 1 1 1 1 1v1l1 1h1v1l1 1 1 1 1 1 1 1v1l1 1 1 1 1 1 1 1 1 2 1 1 1 1 1 2 1 1 1 2 1 1v1l2 2v1l1 1v1l1 1 1 1v1l1 1v1l1 1v1l1 1 1 2v1l1 1 1 1v2l1 1 1 1v1l1 2 1 2v1 1l1 1 1 3 1 2v1l1 2v2l1 1v1 2l1 1v4l1 1v2l1 1v1 4l1 1v5l1 2v4l1 1v9 7h-104l-1-1v-3-3l-1-1v-1l-1-5v-3l-1-1v-1l-1-2v-3l-1-1-1-2v-2l-1-1-1-1v-1l-2-4-1-1v-1l-1-1v-1l-1-1-1-1-1-2-1-1-1-1v-1l-1-1-1-1-1-1-1-1-2-2-1-1-1-1-1-1h-1l-1-1-1-1-1-1-1-1-1-1h-1l-1-1h-1l-3-2-1-1h-1l-2-1-1-1-1-1h-2l-2-1h-1l-1-1-1-1h-2l-1-1h-1-1l-1-1h-2l-1-1h-3-1l-1-1h-3l-1-1h-5l-1-1h-3-3l-1-1h-7l-1-1h-27l-3 1h-7l-1 1h-3-3l-1 1h-5l-2 1-3 1h-1-2l-1 1-2 1h-1l-2 1-3 1-2 1h-1l-2 1h-1l-1 1-1 1-2 1h-1l-1 1-1 1-2 1-1 1h-1l-1 1-1 1-3 2-1 1-1 1-1 1-1 1-1 1-1 1-1 1-2 3-1 1-1 2-1 1-1 2-1 2-1 1v1l-1 1v2l-1 1v2 1l-1 3-1 1v20l1 1 1 3v2l1 2v2l1 1v1l1 1 1 2 1 2 1 1 1 2 1 1v1l2 2 1 1 2 2 1 1 1 1h1l1 1 1 1 1 1h1l1 1 1 1h2l1 1 1 1h1l1 1h2l2 1 3 1 2 1h1l1 1h2l3 1h1l1 1h2l1 1h3l1 1h2 2l1 1h2l1 1h4l1 1h2l1 1h3l1 1h2 2l1 1h2l1 1h4l1 1h2 1l1 1h2l1 1h3 1l1 1h2l1 1h4l2 1h2l1 1h2l1 1h4l1 1h2l1 1h4l3 1h1l1 1h2l1 1h4 1l2 1 1 1 7 1h2l2 1 1 1h4l1 1h2 1l1 1h3l3 1h2l2 1 1 1h4l1 1h2 2l1 1h2l4 1h1l2 1 1 1h3l1 1h2 2l2 1 1 1h3l2 1 1 1h3l2 1h2l1 1 1 1h3l1 1h1 1l5 2 1 1h1l3 1 1 1h1l1 1h1l2 1h1l1 1 1 1h2l1 1h1l1 1 1 1h2l1 1 1 1h1l2 1 1 1 1 1h2l1 1 1 1h1l1 1 1 1 1 1h1l1 1h1l1 1 1 1 1 1 1 1h1l1 1 1 1 1 1 1 1 1 1h1l1 1 1 1 1 1v1l1 1h1v1l1 1 1 1 1 1 1 1 1 1v1l1 1 1 1 1 1v1l1 1 1 1v1l1 1 1 1v1l1 1 1 1v1l1 1v1l1 1 1 1v1l1 1v2l1 1 1 1v1 1l1 1v1l1 1v1l1 1v1 2l1 1 1 1v1 2l1 1v2l1 2 1 2v2 3l1 1v3l1 1v3 3l1 2v7l1 13v2l-1 12v11l-1 1v4 3l-1 2v3l-1 1v4 1l-1 1v2 1l-1 1v3l-1 3v1l-1 1v2l-1 1v2 1l-1 1v1l-1 1-1 3v1l-1 1v1l-1 1v2l-1 2-1 1v1l-1 2-1 1-1 1v2l-1 1-1 1v1l-1 2-1 1v1l-1 1-1 1-1 1v1l-1 1-1 1v1l-1 1-1 1-1 1v1l-1 1-1 1-1 1-1 1v1l-1 1-1 1-1 1-1 1-1 1-1 1-1 1-1 1-1 1-1 1-1 1-1 1h-1l-1 1v1l-2 1-1 1-1 1h-1l-1 1-1 1-1 1-1 1h-1l-1 1-1 1-1 1h-1l-1 1h-1l-1 1-1 1-2 1-1 1h-1l-1 1-1 1h-1l-1 1h-1l-1 1-1 1h-1l-1 1-2 1h-1l-1 1-2 1h-1l-1 1-1 1h-2l-1 1h-1l-1 1h-1-1l-1 1h-1l-1 1h-1l-1 1h-2l-1 1-1 1h-1-2l-1 1-2 1h-1-1l-1 1h-3l-1 1h-1l-1 1h-2l-1 1h-2l-1 1h-1l-2 1h-2-3l-1 1-2 1h-2-2l-1 1h-4l-2 1h-3l-1 1h-2-4l-1 1h-3l-2 1h-3-6l-1 1h-1-12l-7 1h-28l-10-1h-12-1l-2-1h-6-4l-2-1h-4l-1-1h-4-3l-1-1h-4l-1-1h-6l-2-1h-2l-1-1h-2l-1-1h-3-1l-1-1h-2l-1-1h-4l-3-1h-1l-1-1h-1l-1-1h-2-1l-2-1-1-1h-2l-1-1h-1-2l-2-1-3-1-2-1-1-1-3-1h-1l-1-1-1-1h-2l-2-1-1-1h-1l-2-1-1-1h-1l-2-1-1-1-1-1h-1l-2-1-1-1-1-1h-1l-2-1-1-1-2-1-1-1-2-1-1-1-1-1-2-1-1-1-1-1-1-1h-1l-1-1-1-1-1-1-1-1-1-1-1-1-1-1-1-1-1-1-1-1-1-1-1-1-1-1-1-1-1-1-1-1-1-1-1-1-1-1v-1l-1-1-1-1-1-1-1-1v-1l-1-1h-1v-1l-1-1-1-1-1-1-2-3v-1l-1-1v-1l-1-1-1-1-1-1-1-2v-1l-1-1-1-1v-1l-1-1-1-2-1-2v-1l-1-1-1-2v-1l-1-1v-1l-1-1v-2l-1-1-1-1v-1-2l-1-1v-1l-1-1v-1-1l-1-1-1-3v-1l-1-1v-2-2l-1-1v-3l-1-1v-1-2l-1-1v-4l-1-1v-1h-2v1l-1 2v3l-1 1v2 2l-1 2-1 1v2 1l-1 2v1l-1 1v1l-1 1v2 1l-1 1v1l-1 1v2 1l-1 1v1l-1 2-1 2v1l-1 1-1 1v2l-1 1v1l-1 1v1l-1 1v1 1l-1 1-1 1v1l-1 1v1l-1 1v1l-1 2-1 2-1 1-1 1v1l-1 1-1 1v1l-1 1v1l-1 1-1 2-1 1-1 1v1l-1 1-1 1v1l-1 1-1 1-1 1v1l-1 1-1 1-1 1-1 1-1 1v1l-1 1-1 1-1 2h-1l-1 1-1 1v1h-1l-1 1-1 1-1 1-1 1-1 1-1 1-1 1-1 1-1 1-1 1-3 2-1 1-3 2-1 1h-1l-1 1-1 1-1 1h-1l-1 1-1 1-2 1h-1l-1 1-3 2h-1l-1 1-2 1h-1l-1 1h-1-1l-1 1h-1l-1 1-2 1h-1l-2 1-2 1h-1l-2 1h-2l-1 1-3 1h-2l-5 1-1 1h-2-4l-1 1h-6l-1 1-4 1h-5-32-5l-4-1-1-1h-6l-4-1h-2l-5-2h-1l-1-1h-1-1l-3-1-1-1h-1-1l-1-1h-1l-2-1h-1l-1-1-1-1h-2l-1-1h-1l-2-1-2-1-1-1-1-1h-1l-1-1h-1l-1-1-2-1-1-1-1-1-1-1h-1l-1-1-1-1-1-1-1-1-1-1h-1l-1-1-1-1-1-1-1-1-1-1-1-1-1-1-1-1v-1l-1-1-1-1-1-1-1-1-1-1v-1l-1-1-1-1-1-1v-1l-1-1-1-1v-1l-1-1-1-1v-1l-1-1v-1l-1-1-1-1v-1l-1-1-1 2v183l-1 15h-1-14-86v-539h97l2 56 1-1 1-1 1-3 2-3 1-1 1-2 1-1v-1l1-1 2-2 1-1v-1l1-1 1-1 1-1 1-1 1-1 1-1v-1l1-1 1-1 1-1 1-1 1-1 1-1 1-1 1-1 1-1 1-1 1-1h1l1-1 1-1 2-2 1-1 2-1 1-1h1l1-1h1l1-1 1-1 1-1h1l1-1 1-1 2-1h1l1-1 2-1 2-1h1l1-1 2-1h1l1-1h1l2-1h3l1-1 2-1h3l1-1 2-1h1l3-1h7l1-1h3l1-1h2 7l4-1h9 5 12l2 1h6 2l4 1 2 1h4l1 1h2 1l1 1h2l1 1h3 1l3 1 1 1h2l2 1h1l1 1 1 1h2l1 1h1l1 1h1l1 1h1 1l1 1 2 1 1 1h1l1 1h1l2 1 1 1 1 1h1l1 1h1l1 1 2 1 1 1 2 1 1 1 1 1 2 1 1 1 1 1 1 1 1 1 1 1h1l1 1 1 1 1 1 1 1 2 1 1 1 1 1 1 1v1l1 1h1l2 3 1 1 1 1 1 1 1 1 1 1 1 1v1l1 1 1 1 1 1 1 1v1l2 2 1 1v1l1 1 1 1 1 1 1 2 1 1v1l1 1v1l1 1 1 1 1 2 1 1v1l1 1 1 2 1 1v1l1 2v1l1 1v1l1 1 1 2v1l1 1v1l1 1v1l1 1v1l1 1v1 2l1 1v1l1 1v1l1 2v2l1 1 1 2v1 2l1 1v2l1 1v1 2l1 1v3l1 1v2l1 1v1 3l1 1v3l1 2v1 3l1 1v6l1 1v4l1 2v4 7l1 2v4l1 9v29l-1 8v5l-1 3v5l1 1 97 1v11l1 1 1 5v2 2l1 1v2l1 2v1l1 1v2l1 1v1l1 1v1l1 1 1 2v1l1 1 1 2 1 1v1l1 1 1 1 1 1v1l1 1 1 1v1l1 1 1 1 1 1 1 1 1 1 1 1 1 1 1 1 1 1 1 1h1v1l1 1h1l1 1 1 1h1l1 1 1 1 1 1h1l1 1h1l2 1 1 1h1l1 1 2 1h1l1 1h1l4 2h1l2 1 1 1h3l1 1h1 1l1 1 6 1h2l1 1h3l1 1h5l1 1h4 4l4 1h32l4-1h3 5l1-1h7l1-1h4l1-1h3 3l1-1h2l1-1h1 2l1-1h3l1-1h1l1-1h1l2-1h2l1-1h1l1-1h2l1-1 1-1h1l1-1 2-1h1l1-1 3-2 1-1 2-1 1-1 2-1 1-1 1-1 1-1 1-1 1-1 1-1 1-1 1-1v-1l1-1 1-1 1-1 1-1v-1l1-2 1-2 1-2 1-1v-1l1-1v-2l1-1v-2-2l1-3 1-1-1-23-1-1v-1l-1-2-1-3v-1l-1-1-1-2v-1l-1-1-1-1-1-2-1-1-1-2-1-1-1-1-1-1-1-1-1-1-1-1-3-2-1-1-1-1h-1l-1-1-1-1h-1l-1-1h-1-1l-1-1-1-1h-2l-1-1h-1l-2-1-2-1h-1l-2-1-1-1h-2l-2-1h-1l-1-1h-1l-1-1h-2-1l-1-1h-1l-1-1h-3l-1-1h-2-1l-1-1h-2l-1-1h-3-1l-3-1-4-1-1-1h-2-2l-1-1h-2l-1-1h-4l-3-1h-1l-1-1-7-1h-1l-1-1h-2l-1-1h-4l-1-1h-2-1l-1-1h-3l-1-1h-3-2l-2-1-1-1h-4l-1-1h-2-2l-1-1h-2l-1-1h-4-1l-3-1-1-1h-4l-3-1h-2l-2-1-1-1h-4-1l-3-1-1-1h-4l-3-1h-2l-2-1-1-1h-4l-1-1h-2-1l-1-1h-2l-1-1h-2-1l-1-1h-2l-3-1-1-1h-2-1l-1-1-4-1h-1l-2-1-3-1-2-1h-1l-2-1-3-1-2-1-1-1h-1l-1-1h-1-1l-2-1-3-1-1-1h-1l-2-1-2-1-1-1-1-1h-2l-1-1h-1l-1-1-1-1h-1-1l-1-1-1-1-1-1h-1l-1-1-1-1h-1l-2-1-3-2-1-1-1-1-2-1-1-1-1-1-1-1-2-1-1-1-1-1-1-1-1-1-1-1-1-1-1-1-1-1-1-1-1-1v-1l-1-1-1-1-1-1-1-1-1-1-1-2-1-1-1-2-1-1v-1l-1-1v-1l-1-1-1-1-1-2-1-2-1-2v-2l-1-1-1-1v-1l-1-1-1-3-1-2v-1-2l-1-1v-1l-1-1v-1-2l-1-1v-3l-1-1v-2l-1-1v-1l-1-8-1-1v-2-4l-1-1v-11l-1-4v-20l1-6v-8l1-1v-4-2l1-2v-3l1-1v-3-1l1-1v-2l1-1v-4l1-1v-1-1l1-1v-2l1-3 1-2 1-1v-2l1-2v-1l1-1 1-1v-1-1l1-1 1-1v-2l1-1v-1l1-1 1-3 1-1 1-2 1-1 1-1 1-1v-1l1-1v-1l1-1 1-2 1-1 1-1 1-1v-1l1-1 1-1 1-1 1-1v-1l1-1 1-1 1-1 1-1 1-1 1-1 1-1 1-1 1-1 1-1 1-1 1-1 1-1 1-1 1-1 1-1 1-1 1-1h1l1-1 1-1 1-1 1-1 1-1h1l1-1 1-1 1-1h1l1-1 1-1h1l1-1 1-1h1l1-1 2-1 1-1h1l1-1h1l1-1 1-1h2l1-1 1-1h1l1-1h2l1-1 1-1h1l3-2h1l2-1 3-1h2l1-1h2l1-1 2-1h1l2-1h3l1-1h2l1-1h3l1-1h2l1-1h1 2l1-1h5l1-1h3l1-1h3 4l1-1h4l2-1h1 4l2-1h11l3-1zm-1010 364v-351h111v348l1 7v3l1 2v1 7l1 1v2l1 2v2l1 2v3l1 2 1 2v1l2 5v1 1l1 1 1 2v1l1 1 1 2 1 2v1l1 1 1 2 1 1 1 2 1 1v1l1 1 1 1 1 1 1 1v1l1 1 1 1 1 1 1 1 1 1 1 1 1 1 1 1 1 1 1 1 1 1h1l1 1 1 1h1l1 1 1 1h1l1 1 2 1 1 1h1l1 1 1 1h2l2 1 2 1 1 1h1 1l1 1h2l4 1 2 1h2l1 1h2l1 1h2 2l6 1 33 1 1-1 5-1h3 3l1-1h2l2-1h1l2-1h4l1-1h1l1-1h1l2-1h2l1-1h1l1-1h2l1-1 1-1 2-1 2-1h1l1-1 1-1h1l1-1 1-1 2-1 1-1 1-1 1-1h1l1-1 1-1 1-1 1-1 1-1 1-1 1-1 1-1 1-2 1-1 1-1 1-1v-1l1-1 1-2 1-1 1-2 1-1v-1l1-1 1-1v-1-1l1-1 1-1v-2l1-1v-1l1-1v-1l1-1v-2-1l1-1v-1-1l1-1v-3l1-4v-2l1-1v-2l1-1v-10-1l1-1v-355l1-1h110v350l-1 3v14 4l-1 1v5l-1 1v9l-1 3v1l-1 1v3l-1 1v4 2l-1 3-1 1v4l-1 2v1l-1 2-1 1v3l-1 1v2l-1 1v2l-1 1v1 1l-1 2-1 3-1 1-1 1v2l-1 2v1l-1 1-1 1v2l-1 1-1 1v1l-1 2-1 1v1l-1 2-1 1-1 1v1l-1 2-1 1-1 1v1l-1 1-1 1-1 1v1l-1 1-1 1-1 1v1l-1 1-1 1v1l-1 1-1 1-1 1-1 1-1 1-1 1-1 1-1 1-1 1-1 1-1 1v1l-1 1-1 1-1 1-1 1-1 1h-1l-1 1-1 1-1 1-1 1-1 1h-1l-1 1-1 1-1 1-1 1h-1l-1 1-1 1-2 1-1 1h-1l-2 2h-1l-1 1h-1l-1 1-1 1-1 1-2 1-2 1h-1-1l-1 1-1 1-2 1h-2l-1 1-1 1h-1-1l-1 1-1 1h-1l-1 1-3 1-2 1h-1l-2 1-3 1-2 1h-1l-3 1-2 1h-1l-3 1h-4l-1 1-2 1h-2l-5 1-1 1h-2-3l-1 1h-6l-1 1h-3l-1 1h-2-4l-1 1h-2l-2 1h-4-6l-1 1h-1-12l-9 1h-28l-7-1h-13l-1-1h-6-4l-1-1h-3l-1-1h-4-3l-3-1-2-1h-4l-1-1h-2-1l-1-1-5-1h-1l-1-1h-2l-1-1h-3l-1-1h-2-1l-2-1-3-1-1-1h-1-1l-4-2h-1l-1-1h-1l-1-1h-2l-1-1h-1l-1-1h-1l-2-1-1-1h-1l-2-1-1-1h-1l-1-1-3-1-1-1h-1l-2-1-1-1-1-1-1-1h-1-1l-1-1-1-1-1-1h-1l-1-1h-1l-1-1-1-1-1-1h-1l-1-1-1-1-1-1h-1l-1-1-3-2-1-1-2-2-1-1-1-1h-1v-1l-1-1-1-1-1-1-1-1h-1v-1l-1-1-1-1h-1v-1l-1-1h-1v-1l-1-1-1-1-1-1-1-1-1-1v-1l-1-1-1-1-1-1v-1l-1-1-1-1-1-1-1-1v-1l-1-1-1-2-1-1-1-3-1-1-1-1v-1l-1-1-1-1v-1l-1-1-1-2v-1l-1-1-1-2v-1l-1-1v-1l-1-1v-2l-1-1-1-1v-1l-1-4-1-1-1-2v-1l-1-3-1-2v-1-2l-1-1v-2l-1-1v-2l-1-1v-4l-1-1v-3l-1-1v-2-2l-1-1v-4l-1-2v-4l-1-1v-1-8l-1-2v-3l-1-6zm1268-21v-330h101v281h2l1-1 1-1v-1l1-1 1-1 1-1 1-1 1-1 1-1 1-1 1-1v-1l1-1 1-1 1-1 1-1 1-1v-1l1-1 1-1 1-1 1-1 1-1 1-1 1-1 1-1v-1l1-1 1-1 1-1 1-1 1-2 1-1h1l1-1v-1l1-1 1-1 1-1 1-1 1-1v-1l1-1 1-1 1-1 1-1 1-1 1-1v-1h1l1-1v-1l1-1 1-1 1-1 1-1 1-1v-1l1-1 1-1 1-1 1-1 1-1 1-1 1-1 1-1v-1l1-1 1-1 1-1 2-2v-1l1-1 1-1 1-1 1-1 1-1 1-1 1-1v-1l1-1 1-1 1-1 1-1 1-1 1-1 1-1 1-1v-1l1-1 1-1 1-1 1-1 1-1v-1l1-1 1-1 1-1 1-1 1-1 1-1 1-1 1-1v-1l1-1 1-1 1-1 1-1 1-1 1-1 1-1v-1l1-1 1-1 1-1 1-1 1-1 1-1v-1l1-1 1-1 1-1 1-1 1-1 1-1 1-1 1-1v-1l1-1 1-1 1-1 1-2 1-1 1-1 1-1 1-1 1-1 1-1 1-1 1-1v-1l1-1 1-1 1-1 1-1h110l1 1v2 12l-1 2v1h-1l-1 1v1l-1 1-1 1-1 1-1 1-1 1-1 1-1 1-1 1-1 1-1 1-1 1v1l-1 1-1 1-1 1-1 1-1 1-1 1-1 1-1 1v1h-1l-1 1v1l-1 1-1 1-1 1-1 1-1 1-1 1-2 2-1 1-1 1v1l-1 1-1 1-1 1-1 1-1 1-1 1-1 1-1 1-1 1-1 1-1 1v1h-1l-1 1v1l-1 1-1 1-1 1-1 1-1 1-1 1-1 1-1 1v1h-1l-1 1v1l-1 1-1 1-1 1-1 1-1 1-1 1-1 1-1 1-1 1v1l-1 1-1 1-1 1-1 1-1 1-1 1-1 1-1 1-1 1-1 1v1h-1l-1 1v1l-1 1-1 1-1 1-1 1-1 1-1 1-1 1-1 1v1h-1l-1 1v1l-1 1-1 1-1 1-1 1-1 1-1 1-1 1-1 1-1 1-1 1v1l-1 1-1 1-1 1-1 1-1 1-1 1-1 1-1 1-1 1v1h-1l-1 1v1l-1 1-1 1-1 1-1 1-1 1-1 1-2 2-1 1-1 1v1l-1 1-1 1-1 1v1l2 3v1l1 1 1 2 1 1v1l1 1v1l1 1 1 1v1 1l1 1 1 1v1l1 1v1l1 1 1 1 1 2 1 1v1l1 1 1 2 1 1v1l1 1v1l1 1v1l1 1v1l1 1 1 1v1l1 1v1l1 1 1 1 1 2v1l1 1 1 1 1 2 1 1v1l1 1 1 2 1 1 1 2 1 2v1l1 1 1 1v1l1 1 1 2 1 1v1l1 1v1l1 1 1 1v1l1 1v1l1 1v1l1 1 1 1 1 2v1l1 1 1 1v1l1 1 1 2v1l1 1 1 1v1l1 1 1 1 1 2v1l1 1v1l1 1 1 1v1l1 1v1l1 1 1 1v1l1 1v1l1 1 1 1 1 2v1l1 1v1l1 1 1 1v1l1 1v1l1 1 1 1v1l1 1 1 2 1 1v1l1 1v1l1 1 1 1 1 2v1l1 1v1l1 1 1 1v1l1 1v1l1 1 1 1v1l1 1v1l1 1 1 1v1l1 1v1l1 1 1 1 1 2v1l1 1v1l1 1 1 1v1l1 1v1l1 1 1 1v1l1 1v1l1 1 1 1 1 2v1l1 1v1l1 1 1 1 1 2v1l1 1 1 1v1l1 1v1l1 1 1 1 1 2v1l1 1 1 1 1 2v1l1 1v1l1 1 1 1v1l1 1v1l1 2v1 7 1 3 2l-1 15h-104l-1-2v-1l-1-1-1-2-1-1v-1l-1-1-1-2-1-2-2-3v-1l-1-1-1-2-1-1v-1-1l-1-1-1-1v-1l-1-1-1-2v-1l-1-1v-1l-1-1v-1l-1-1-1-1-1-2v-1l-1-1v-1l-1-1v-1l-1-1-1-1-1-2v-1l-1-1-1-1v-2l-1-1-1-1-1-2v-1l-1-1-1-1v-2l-1-1-1-1-1-2v-1l-1-1-1-1v-2l-1-1-1-1v-1l-1-1-1-2-1-1v-1-1l-1-1-1-1v-1l-1-1v-1l-1-1-1-1v-1-1l-1-1-1-1v-1l-1-1v-1l-1-1-1-1v-1-1l-1-1-1-1v-1l-1-1-1-2v-1l-1-1-1-1-1-2v-1l-1-1-2-3v-1l-1-1-1-2v-1l-1-1-1-2v-1l-1-1-1-1-1-2v-1l-1-1-1-2v-1l-1-1-1-1-1-2v-1l-1-1-2-3v-1l-1-1-1-2v-1l-1-1v-1l-1-1v-1l-1-1-1-1v-1l-1-1v-1l-1-1v-1l-1-1v-1l-1-1-1-1v-1l-1-1v-1l-1-1h-3l-1 1-1 1-1 1-1 1-2 2-1 1-1 1-1 1-1 1-1 1-1 1-1 1-1 1-1 1v1l-1 1-1 1-1 1-1 1-1 1-1 1-1 1-1 1-1 1-1 1-1 1-1 1-1 1-1 1-1 1-1 1-1 1-1 1-1 1-2 2-1 1-1 1-1 1-1 1-1 1v122h-101v-149-30-12zm390-298v-1h2l1 2 1 1v1 1l1 1 1 1 1 3 1 1 1 1 1 2v1l1 1 1 1v2l1 1 1 1 2 3v1l1 1 1 2 1 1v1 1l1 1 1 1v1l1 1 1 2 1 1v1l1 1 1 2v1l1 1v1l1 1 1 1v1l1 1 1 2 1 1v1l1 1 1 2v1l1 1v1l1 1 1 1v1l1 1v1l1 1 1 1v1l1 1 1 2v1l1 1v1l1 1 1 1v1 2h-19v-1l-1-1-1-1-1-2-1-1v-1l-1-1v-1l-1-1-1-1-1-2-1-1v-1l-1-1v-1l-1-1-1-1v-1l-1-1-1-1v-1l-1-1v-1l-1-1-1-1-1-1-1-2-1-1v-1l-1-1v-1l-1-1-1-1-1-2-1-1-1 1-1 2-1 1-1 1v1l-1 1-1 1v1l-1 2-1 1-1 1-1 1v1l-1 1v1l-1 1-1 1v1l-1 1-1 1v1l-1 1v1l-1 1-1 2-1 1-1 1v1l-1 1v1l-1 1-1 1v1l-1 1-1 2h-19v-3l1-1v-1l1-1 1-1v-1-1l1-1 1-1v-1l1-1v-1l1-1 1-2 1-1 1-1v-1l1-1v-1l1-1v-1l1-2 1-1 1-2 1-2 1-1 1-1v-1l1-1v-1l1-2 1-2 1-1 1-2 1-1v-1l1-1 1-1v-1-1l1-1 1-2 1-1v-1l2-3 1-1v-1l1-2 1-1v-1l1-1 1-2 1-1 1-1 1-3 1-1v-1l1-2 1-1zm-815 560l1-43h9v103h-7l-1-1-1-3v-6l-1-1-1 1-1 1-1 1-1 1-1 1-1 1-1 1-1 1-1 1h-1l-1 1h-1l-1 1h-1l-1 1-2 1h-5l-1 1h-8l-2-1h-5l-1-1h-1-1l-1-1-3-1-1-1h-1l-2-1-1-1-1-1-1-1-1-1-1-1-1-1v-1l-1-1-1-1-1-1v-1l-1-1v-1l-1-1-1-2v-2l-1-1v-1-1l-1-1v-3-14-3l1-1v-1-1l1-2v-1l1-1v-1-1l1-1 1-1v-1l1-1v-1l1-1 1-1 1-1 1-1 1-1 1-1 2-2 1-1 2-1h1l1-1h1l1-1h2l1-1h2l1-1h1 14 2l2 1 1 1h2l1 1h1l1 1 1 1h1 1v1l1 1h1l1 1v1l1 1h1l1 2 1 1zm-239-41l1-1h5 6 5l1 1h3l1 1h1l1 1h2l1 1h1l1 1 1 1h1l1 1 1 1 1 1 1 1 1 1 1 1 1 1v1l1 1 1 1v1l1 1 1 2v1l1 1v2 2 1l-3 1-1 1h-2-2-1l-1-1-1-1-1-3-1-2v-1l-1-1v-1l-1-1-2-2-1-1-2-1-1-1-1-1h-1l-1-1h-1-1l-1-1h-2l-2-1h-6l-2 1h-2l-1 1h-1l-2 1-2 1h-1l-1 1-1 1-1 1-1 1-1 1-1 1v1l-1 1v1l-1 1 1 10 1 2v1l1 1 1 1 1 1h1l1 1 1 1 3 1h1l1 1h1l1 1h4l1 1h2 1l1 1h3l1 1h3 2l3 1 1 1h3l2 1h1l5 2 1 1 1 1 3 1 1 1 1 1 1 1 1 1 1 1 1 1 1 2v1l1 1v2l1 1v4 5 5l-1 1v2 1l-1 1v1l-1 2-1 1-1 1v1l-1 1-1 1-1 1-1 1-1 1-1 1-2 1-1 1h-1-1l-1 1h-1l-1 1h-1l-1 1h-1-3l-1 1h-3l-3 1h-8l-3-1h-3l-1-1h-4l-1-1h-1-1l-4-2h-1l-1-1-2-1-1-1-1-1h-1l-1-1-1-1-1-1-1-1-1-1-1-1v-1l-1-1-1-1v-1l-1-1-1-1-1-2v-2l-1-1v-1l-1-1v-1-3l-1-1v-1l1-1 3-1h2l5 1 1 1v4l1 1 1 1v1l1 2 1 1v1l1 1 1 1 1 1 1 1 1 1 1 1 2 1 1 1 1 1h1l1 1h2l2 1 1 1h4l1 1h10l1-1h3l2-1h1l1-1 2-1h1l1-1 1-1h1l1-1 1-1 1-1v-1l1-1 1-1v-2l1-2v-7l-1-2-1-2-1-1v-1l-1-1-1-1h-1l-1-1-1-1h-1l-1-1h-1l-1-1h-2l-2-1h-2l-2-1-2-1h-4l-3-1h-1l-1-1-7-1h-1l-2-1-1-1h-3l-1-1h-1l-1-1h-1l-2-1-1-1-1-1h-1l-1-1-3-3-1-1v-1l-1-1v-1l-1-1-1-2v-1-13-1l1-1v-2l1-3 1-1 1-1v-1l1-1v-1h1l1-1v-1l1-1 1-1 1-1h1l1-1 1-1h1l1-1 3-1h1l1-1h1zm519 0l2-1h2l3 1 1 1 1 1 1 2v3l1 1v9l-1 1v4l-1 1v1l-1 1-1 1v1l-1 1-1 1-2 1-1 1h-1-4-1-3v-2-1l1-1h4l1-1h1l1-1 1-1 1-1 1-2 1-1 1-1-1-5h-2-2l-2-1-1-1h-1v-1l-1-1v-1-4-3l1-1h1l1-1zm84 0l2-1h6 7 6l1 1h3l1 1h2l3 1 1 1h1l1 1 1 1h1l1 1 1 1h1l1 1 1 1 1 1 1 1 1 1 2 2 1 1v1l1 1 1 1 1 2v1l1 1 1 2v2l1 1 1 2v1 3h-1l-1 1h-4l-1 1-4-1v-4l-1-1-1-1v-1-1l-1-1v-1l-1-1-1-1v-1l-1-1-1-1-2-2-3-2-1-1-2-1-1-1-1-1h-2l-2-1h-2l-1-1h-2l-3-1h-4l-3 1h-4l-1 1h-1l-2 1h-3l-1 1-1 1-2 1h-1l-1 1-1 1-1 1-1 1h-1l-1 1v1h-1l-1 1v1l-1 1-1 1v1l-1 1-1 1v1l-1 1v1l-1 1v2l-1 1v2l-1 1v4l-1 5v11l1 5v3l1 1v1l1 2v1l1 2v1l1 1v1l1 1v1l1 1 1 1 1 1v1l1 1 1 1 1 1 1 1 1 1h1l1 1 1 1 1 1 3 1 1 1h1l3 1 1 1h2l1 1h4l3 1h9l2-1h3l1-1h1l2-1h2l1-1 1-1h1 1l1-1 1-1 1-1h1l1-1 1-1 1-1 1-2h1l1-1v-1l1-1 1-1v-1l1-2 1-1v-1l1-1v-1l1-3v-1l1-3 1-1h1 3l1 1h3 1l1 4-1 1v4l-1 1v1l-1 1v2l-1 2-1 1v1l-1 2-1 1-1 1-1 1v1l-1 1-1 1-1 1-1 1-1 1-1 1-1 1h-1l-2 2h-1l-1 1h-1l-1 1-1 1h-1l-4 2h-2l-1 1h-1-3l-1 1h-4l-3 1h-10l-2-1h-4l-1-1h-4-1l-2-1-1-1-4-1-1-1h-1l-1-1h-1l-1-1h-1l-2-2-1-1-1-1h-1l-1-1-1-1-1-1-1-1-1-1v-1l-1-1-1-1-1-1-1-1v-1l-1-1-1-2v-1l-1-1-1-2-1-3v-2l-1-1v-1-3l-1-1v-5l-1-4v-6l1-5v-5l1-1v-3-2l1-2 1-1v-2l1-2 1-1v-1l1-2v-1l1-1 1-1 1-1v-1l1-1 1-2 1-1 1-1 1-1 1-1h1l1-1 1-1 1-1 1-1h1l1-1h1l1-1h1l1-1 1-1h1 2l1-1 2-1h2zm-541 8l7-1v22l1 1h30l1 8-32 1v47l1 1 1 1v1l1 1 1 1 1 1 1 1 6 2h2l6-2h1l1-1 1-1 1-1 1-2 1-1 1-1v-1l1-1v-2h1 1 2l1 1h1l2 5v1l-1 1-1 1v2l-1 1-1 1-1 2h-1l-1 1-1 1-1 1-3 1-1 1h-1l-1 1h-4l-1 1-13-1h-1l-1-1-1-1h-1l-1-1h-1v-1l-1-1h-1l-1-1-1-2-1-1v-1-1l-1-1v-2l-1-1v-6-1-2-3-2-2-6l-1-23v-1-2l-15-1v-8l1-1 14-2v-1-1l1-15 1-2 1-1zm349 0l3-1h4v23h31l1 1v8h-32v46l1 1 1 2v1l1 1 1 1 1 1 1 1 2 1 1 1h3 2l4-1 2-1h1l1-1 1-1 1-1 1-1 1-1v-1l1-2 1-3h1 3l1 1h2l1-2 2-2h5 2l1 1v1l1 2 1 2 1 1v1l1 1 1 1h1l1 1 1 1 1 1h2l2 1 1 1h3l1 1 14-2h1l1-1h2l1-1 1-1 1-1 1-1 1-2 1-1v-1-4l-1-2-1-1-1-1-1-1-1-1h-1l-1-1h-1l-1-1h-2-2l-3-1-1-1h-4l-1-1h-2-2l-1-1h-3l-1-1h-3-1l-1-1-1-1h-2l-2-1-1-1-1-1h-1l-1-1-1-1-1-1v-1-1l-1-1-1-2v-2-6-2l1-1v-1l1-1v-2l1-1 1-2 1-1 1-1 1-1 2-1h1l1-1h1l1-1 2-1h2l1-1h1 14 2l2 1 1 1h3l1 1 1 1h1l2 1 1 1 1 1 1 1 1 1 1 1v1l1 1 1 1v1l1 1v1 3h-2l-1 1h-2l-1 1h-3l-1-1v-1l-1-1v-1l-1-1-1-1v-1l-1-1h-1l-1-1-1-1h-2l-1-1h-1l-3-1-2-1h-4l-2 1h-2l-1 1h-1l-1 1h-1l-1 1-1 1-1 1-1 1-1 2 1 8 1 1 1 1 2 1 1 1h1l1 1 7 1h2l3 1 2 1h4l3 1h1l1 1h2l2 1h1l1 1h1l2 1 1 1 1 1h1l1 1 1 1 1 1v1l1 1v1l1 1v12l-1 1v1l-1 1v1l-1 1v1l-1 1-1 1-1 1-1 1-1 1h-1l-1 1-1 1-2 1-2 1h-1-1l-1 1h-1-4l-1 1h-11l-2-1h-4-1l-2-1-1-1-4-1-1-1h-1l-2-1-1-1-1-1-1-1-1-1-1-1v-1l-1-1-1-1v-1l-1-1h-1v1l-1 1v1l-1 2-1 1-1 1-1 1v1l-1 1h-1l-1 1-1 1h-1l-1 1h-1l-1 1h-1l-1 1h-18l-1-1h-1l-2-1-1-1-1-1-1-1h-1v-1l-2-2v-1l-1-1v-2l-1-1v-1l-1-1v-1-47l-15-1-1 1 1 1v2l1 1v2l1 1v1 40 13h-1-8-1l-1-50v-3l-1-1v-1l-1-1-1-1v-1l-1-1-1-1-1-1-1-1h-1l-1-1h-1l-1-1-10-1-2 1h-2l-1 1h-1l-1 1h-2l-1 1-1 1h-1l-1 1-1 1-1 1-1 1v1l-1 1-1 2-1 2-1 2v1l-1 1v4l-1 1v41h-8-1-1v-70l9-1 1 1v4 4h2l1-1 1-1 1-1 1-1 1-1 1-1 2-1h1l1-1 1-1h3l1-1 2-1h2 14 1l1 1h2l2 1 1 1h1l1 1 1 1h1l1 1 1 1 1 1v1h2v-7l16-1v-20l1-1zm-130 21l1-1h1 15 1l1 1h2l3 1 2 1 1 1 1 1h1l1 1 1 1h1l1 1 1 1 1 1 1 1v1l1 1 1 1 1 1v1l1 1v2l1 1 1 1v2 2l1 1 1 3v3 9l-59 1v2 2l1 2 1 3v1l1 1 1 1 1 2 1 1 1 1 1 1 1 1 1 1 2 1 1 1 1 1h2l2 1 1 1h3l1 1 14-2h1 1l1-1 2-1h1l1-1 1-1 1-1 1-1 2-2 1-1 1-1 1-1h3 1l1 1 1 1h2v1 1 2 1l-1 1-1 1-1 1v1h-1l-1 1-1 1-1 1-1 1-1 1-2 1-2 1h-1l-1 1h-2l-1 1-2 1h-1-5l-1 1h-10l-1-1h-5-1l-2-1h-1l-2-1-1-1h-1-1l-1-1-1-1h-1l-1-1-1-1-1-1h-1l-1-1-1-1-1-1-1-1v-1l-1-1-1-1v-1l-1-1-1-1-2-4v-2l-1-1v-3l-1-1v-2l-1-4v-6l1-4v-2l1-1v-3l1-1v-1l1-2v-1l1-1v-1l1-1 1-1v-1l1-1 1-1 1-1v-1l1-1 1-1h1l1-1 1-1 1-1 2-1h1l1-1h1l1-1h2l1-1zm407 0l3-1h2 15 2l3 1 1 1h2l2 1 1 1 1 1h1l1 1 1 1h1l1 1 1 1v1l1 1 1 1v1l1 1v2l1 1v1l1 1v1 7 4 30l1 1 1 3 1 1 1 1 3-1 1-1 2-2h1l1 1 1 1v1l1 1 1 1h1v-65l1-1h7l1 5 1 2v2 1h1l1-1v-1l1-1v-1l1-1 1-1 1-1 1-1h1l1-1 1-1h1l1-1h1l1-1h1 4 3 5 1l1 1h1l1 1h1l1 1h1l1 1 1 1 1 1v1l1 1 1 1 1 2v1l1 1v1l1 2v5l-1 1-2 1h-1l-2 1h-2l-1-1v-4l-1-1-1-1v-1l-1-1v-1l-1-1-1-1-1-1h-1l-2-1-1-1h-8l-1 1-2 1-2 1-1 1h-1l-1 1-1 1v1l-1 1-1 1v1l-1 2-1 1v1 1l-1 1v4l-1 1v43h-10l-1-3-1 1-1 1-1 1-1 1h-1l-1 1h-3l-1 1h-6l-1-1h-2l-1-1h-1l-1-1v-1l-1-1-1-1-1-3v-2-2h-1l-1 1-1 1-1 1v1l-1 1h-1l-1 1-1 1h-1l-1 1-1 1h-1l-1 1h-1l-1 1-2 1h-5l-1 1h-11l-1-1h-4-1l-1-1h-1l-2-1-2-1-1-1-1-1h-1l-1-1-1-1-1-1-1-2v-1l-1-1v-2l-1-1v-3l-1-1v-2l1-2v-2l1-1v-2-1l1-1 1-1 1-1 1-1v-1h1l1-1 1-1 1-1 2-1h1l1-1h2l1-1 2-1h1 2l1-1h4l2-1h3l1-1h3 6l1-1h6l2-1 2-1h1l1-1 1-1-1-8-1-1-1-1-1-1-1-1-1-1-1-1h-1l-2-1-1-1h-1-2l-1-1h-12l-1 1h-1l-2 1h-2l-1 1-1 1-2 1-1 1-1 1-1 1-1 1-1 1-1 1v1 1l-1 1v1l-1 1h-1-1l-1-1h-2l-2-1-1-1h-1v-2l1-1v-2l1-2 1-1v-1l1-1 1-1 1-1 2-2 1-1 1-1h1l1-1 3-2h1l2-1h2zm136 0l2-1h2 14 2l2 1 1 1h2l1 1h1l1 1h1l2 1 1 1 1 1 1 1 2 2 1 1 1 1 1 1 1 2 1 1v1l1 2v1l1 1 1 2v1 3l1 1v5l1 1v6l-1 1-59 2v1 2l1 1v1l2 4v1l1 1 1 1v1l1 1 1 1 1 1 1 1 1 1h1l1 1 1 1h1l2 1 2 1 1 1h3l2 1h9l1-1h3l1-1 2-1 2-1 2-1 1-1h1l1-1 1-1 1-1 1-1 1-1 1-1v-1h3 1l2 1 2 1 1 1-1 4-1 1-1 2-1 1-1 1-1 1h-1l-1 1-1 1-1 1h-1l-1 1-1 1h-1-1l-1 1-2 1h-1-1l-1 1h-5l-1 1h-10l-2-1h-5-1l-2-1-1-1h-2l-2-1-1-1h-1l-2-1-1-1-1-1-1-1-1-1-1-1h-1v-1l-1-1-1-1-1-1-1-1-1-2v-1l-1-1-1-2v-1l-1-1v-1l-1-2v-4l-1-1v-1-13l1-2v-3l1-2v-1l1-1v-1l1-2 1-1v-1l1-1 1-1v-1l1-1 1-1 1-1 2-2 1-1 1-1h1l1-1h1l1-1 1-1h1l1-1h3zm74 0l2-1h2 14 2l2 1 1 1h2l1 1h1l1 1h1l2 1 1 1 2 2 1 1 1 1 1 1 1 1 1 1 1 2v1l1 1 1 1 1 3 1 2v1 3l1 1 1 7v5l-59 1-1 1v3l1 1v2l1 1 1 3 1 1v1l1 1v1l1 1 1 1 1 1 1 1 1 1h1l1 1 1 1h1l2 1 1 1h1 1l3 1 1 1h10l1-1h3l1-1 2-1h2l1-1 1-1 1-1 2-1 1-1 1-1 1-1 1-1 1-2h3 1l2 1 3 5-1 1-2 3-1 1-1 1-1 1-1 1h-1l-1 1-1 1h-1l-1 1-1 1h-1-1l-1 1-2 1h-1-1l-1 1h-5l-1 1h-10l-2-1h-5l-1-1h-2l-1-1h-2l-1-1h-1l-1-1-1-1h-1l-1-1h-1l-1-1-1-1-1-1-1-1h-1v-1l-2-2-1-1v-1l-1-1-1-1v-1l-1-1-1-2v-1l-1-1-1-4v-2l-1-1v-4-8-4l1-1v-2l1-1v-3l1-1v-1l1-2 1-2 1-1 1-1v-1l1-1 1-1 1-1 1-1 1-1 1-1 1-1 1-1h1 1l1-1 1-1h1l1-1h3zm75 0l1-1h6 1 6 1l2 1 2 1 1 1 1 1 1 1h1v1l1 1 1 1 1 1v2l1 1v1l1 1v1 2l1 1-1 4-2 1h-2-1l-1 1h-2l-1-4-1-2v-1l-1-2-1-1-1-1-1-1-1-1-1-1h-1-1l-8-1-1 1h-1-1l-1 1h-1l-1 1-1 1-1 1-1 1-1 2-1 1-1 2-1 2v1l-2 50h-10v-70l1-1h7v2l1 2 1 5h1l1-2 1-1 2-2 1-1 1-1 1-1h1l1-1h1l1-1zm-867 50v-48l10-1 1 1v48 2l1 1 1 3 1 2v1l1 1 1 1 1 1 1 1h1l1 1h1l2 1 1 1h4 3l5-1 3-1h1l1-1 2-1h1l1-1 1-1 1-1 1-1 1-1 1-1v-1l1-1 1-1v-2l1-1v-2l1-2v-4-36-3l1-1h9v70h-8-1v-7l-1-2-2 1-1 1-1 1-1 1-1 1-1 1h-1l-1 1-1 1h-1l-1 1h-1l-1 1-2 1h-1-4l-1 1h-11l-1-1h-3-1l-2-1-2-1-1-1-1-1h-1l-1-1-1-1-1-1v-1l-1-1-1-1v-1l-1-1-1-2v-2l-1-1v-4z"/>
		<path id="Path 4" fill-rule="evenodd" class="s3" d="m1256 193v-1h3zm49 0l-4-1h4zm-57 1v-1h3zm63 0l-2-1h2zm-76 1v-1h2zm86-1h1v1h-1zm-93 2v-1h2zm102 0l-2-1h2zm-107 0h1v1h-1zm-8 1h1v1h-1zm126 0h1v1h-1zm-130 1h1v1h-1zm133 0h1v1h-1zm-139 1h1v1h-1zm-4 1h1v1h-1zm152 0h1v1h-1zm-155 1h1v1h-1zm-4 1h1v1h-1zm-3 1h1v1h-1zm176 1h1v1h-1zm3 1h1v1h-1zm-813 1h1v1h-1zm625 0h1v1h-1zm190 0h1v1h-1zm619 523v-523h101l1 1v519l-1 3h-1zm-812-522h1v1h-1zm206 4h1v1h-1zm3 1h1v1h-1zm-223 1h1v1h-1zm-6 3h1v1h-1zm236 0h1v1h-1zm-240 2h1v1h-1zm246 1h1v1h-1zm2 1h1v1h-1zm1 1h1v1h-1zm2 1h1v1h-1zm-264 4h1v1h-1zm-3 2h1v1h-1zm276 0h1v1h-1zm-277 1h1v1h-1zm278 0h1v1h-1zm4 3h1v1h-1zm-287 1h1v1h-1zm-1 1h1v1h-1zm290 0h1v1h-1zm-293 2h1v1h-1zm-2 2h1v1h-1zm300 0h1v1h-1zm476 0h1v1h-1zm-777 1h1v1h-1zm302 0h1v1h-1zm-303 1h1v1h-1zm-1 1h1v1h-1zm784 1h1v1h-1zm-786 1h1v1h-1zm778 0h1v1h-1zm9 0h1v1h-1zm-788 1h1v1h-1zm-1 1h1v1h-1zm-1 1h1v1h-1zm-1 1h1v1h-1zm780 0h1v1h-1zm13 0h1v1h-1zm-794 1h1v1h-1zm-1 1h1v1h-1zm325 3h1v1h-1zm473 0h1v1h-1zm-802 2h1v1h-1zm331 0h1v1h-1zm473 2h1v1h-1zm-24 1h1v1h-1zm-784 2h1v1h-1zm339 0h1v1h-1zm-344 7h1v1h-1zm-1 2h1v1h-1zm784 0h1v1h-1zm37 0h1v1h-1zm-822 1h1v1h-1zm783 2h1v1h-1zm41 0h1v1h-1zm-465 6h1v1h-1zm1 2h1v1h-1zm418 1h1v1h-1zm51 0h1v1h-1zm-836 2h1v1h-1zm369 0h1v1h-1zm415 0h1v1h-1zm53 0h1v1h-1zm-467 2h1v1h-1zm-227 2l2-1v1zm-145 0h1v1h-1zm373 0h1v1h-1zm-374 1h1v1h-1zm376 3h1v1h-1zm405 2h1v1h-1zm-783 1h1v1h-1zm380 1h1v1h-1zm402 0h1v1h-1zm67 0h1v1h-1zm-68 2h1v1h-1zm69 0h1v1h-1zm-853 5h1v1h-1zm856 0h1v1h-1zm-469 2h1v1h-1zm-388 1h1v1h-1zm778 4h1v1h-1zm-779 1h1v1h-1zm863 1h1v1h-1zm-864 2h1v1h-1zm394 2h1v1h-1zm-395 3h1v1h-1zm396 1h1v1h-1zm-397 5v-2h1zm398 0h1v1h-1zm1 3h1v1h-1zm-400 3h1v1h-1zm-163 3v-1h5v1zm564 0h1v1h-1zm-587 1h1v1h-1zm-4 1h1v1h-1zm60 1l-2-1h1 1zm4 0h1v1h-1zm4 1h1v1h-1zm-82 1h1v1h-1zm85 0h1v1h-1zm118 2v-1h1l-1 6zm404 1l-1-2h1zm-613-1h1v1h-1zm99 0h1v1h-1zm-106 2h1v1h-1zm991 0h1v1h-1zm-878 1h1v1h-1zm-117 1h1v1h-1zm120 0h1v1h-1zm2 1h1v1h-1zm502 0h1v1h-1zm-500 1h1v1h-1zm-130 1h1v1h-1zm886 0h1v1h-1zm-750 2h1v1h-1zm-141 1h1v1h-1zm143 0h1v1h-1zm-146 2h1v1h-1zm-1 1h1v1h-1zm152 0h1v1h-1zm-154 1h1v1h-1zm156 0h1v1h-1zm183 2h1v1h-1zm-347 4h1v1h-1zm-1 1h1v1h-1zm894 0h1v1h-1zm-1 1h1v1h-1zm-1 1h1v1h-1zm-712 2h1v1h-1zm66 4v-4l1 4zm-65-3h1v1h-1zm170 0h1v1h-1zm1 2h1v1h-1zm-361 1h1v1h-1zm-1 1h1v1h-1zm896 0h1v1h-1zm-1 1h1v1h-1zm-898 3h1v1h-1zm-1 1h1v1h-1zm206 1h1v1h-1zm688 1h1v1h-1zm-1 1h1v1h-1zm-2 2h1v1h-1zm-896 1h1v1h-1zm383 3h1v1h-1zm509 1h1v1h-1zm-1 1h1v1h-1zm-670 1h1v1h-1zm166 0h1v1h-1zm-165 1h1v1h-1zm167 0h1v1h-1zm1 1h1v1h-1zm4 2h1v1h-1zm2 1h1v1h-1zm488 2h1v1h-1zm-1 1h1v1h-1zm-893 1h1v1h-1zm238 0h1v1h-1zm179 0h1v1h-1zm-418 1h1v1h-1zm425 1h1v1h-1zm3 1h1v1h-1zm4 1h1v1h-1zm458 0h1v1h-1zm-453 1h1v1h-1zm452 0h1v1h-1zm-449 1h1v1h-1zm5 1h1v1h-1zm442 0h1v1h-1zm-439 1h1v1h-1zm-203 1h1v1h-1zm207 0h1v1h-1zm5 1h1v1h-1zm3 1h1v1h-1zm5 1h1v1h-1zm4 1h1v1h-1zm413 0h1v1h-1zm-410 1h1v1h-1zm409 0h1v1h-1zm-404 1h1v1h-1zm3 1h1v1h-1zm9 2h1v1h-1zm3 1h1v1h-1zm5 1h1v1h-1zm3 1h1v1h-1zm-247 2h1v1h-1zm256 0h1v1h-1zm3 1h1v1h-1zm-258 1h1v1h-1zm266 1h1v1h-1zm350 1h1v1h-1zm-1 1h1v1h-1zm-613 1h1v1h-1zm276 0h1v1h-1zm336 0h1v1h-1zm-331 1h1v1h-1zm4 1h1v1h-1zm-283 2h1v1h-1zm294 1h1v1h-1zm5 1h1v1h-1zm5 1h1v1h-1zm300 0h1v1h-1zm-2 2h1v1h-1zm-600 1h1v1h-1zm312 0h1v1h-1zm4 1h1v1h-1zm-315 1h1v1h-1zm322 1h1v1h-1zm274 0h1v1h-1zm-268 2h1v1h-1zm266 0h1v1h-1zm-592 3h1v1h-1zm335 0h1v1h-1zm4 1h1v1h-1zm8 3h1v1h-1zm239 0h1v1h-1zm-1 1h1v1h-1zm-583 1h1v1h-1zm352 1h1v1h-1zm-351 2h1v1h-1zm357 1h1v1h-1zm221 0h1v1h-1zm-577 3h1v1h-1zm362 0h1v1h-1zm211 1h1v1h-1zm-207 1h1v1h-1zm-365 2h1v1h-1zm370 1h1v1h-1zm198 1h1v1h-1zm-567 1h1v1h-1zm373 0h1v1h-1zm193 0h1v1h-1zm-189 3h1v1h-1zm-376 2h1v1h-1zm382 2h1v1h-1zm1 1h1v1h-1zm175 0h1v1h-1zm-556 3l-1-2h1zm387 2h1v1h-1zm164 1h1v1h-1zm-551 1h1v1h-1zm550 0h1v1h-1zm-158 3h1v1h-1zm2 2h1v1h-1zm1 1h1v1h-1zm-394 1h1v1h-1zm396 1h1v1h-1zm146 0h1v1h-1zm-144 3h1v1h-1zm-396 3l-1-2h1zm397-2h1v1h-1zm2 3h1v1h-1zm1 1h1v1h-1zm1 2h1v1h-1zm2 3h1v1h-1zm2 3h1v1h-1zm1 2h1v1h-1zm255 0h1v1h-1zm2 4h1v1h-1zm-661 10l-1-9h1zm407-8h1v1h-1zm256 1h1v1h-1zm1 2h1v1h-1zm-255 1h1v1h-1zm1 2h1v1h-1zm2 6h1v1h-1zm260 4h1v1h-1zm-258 1h1v1h-1zm259 1h1v1h-1zm-257 4l-1-2h1zm258-2h1v1h-1zm2 3h1v1h-1zm1 2h1v1h-1zm-244 4v-2h1v2zm-16 0h1v1h-1zm263 1h1v1h-1zm-262 3h1v1h-1zm-419 12l1-8v8zm421-3l-1-2h1zm13 29v-30h1v30zm-1155-19l-1-7h1v5zm1411-7h1v1h-1zm-268 17l-1-13h1v7zm-945-9h1v1h-1zm-197 4l-1-2h1zm1416-2h1v1h-1zm-697 3h1v1h-1zm700 2h1v1h-1zm-1532 7v-6l1 6zm1533-5h1v1h-1zm-279 14l1-12v1 2 9zm282-9h1v1h-1zm-1421 3l-1-2h1zm193-2h1v1h-1zm-307 4v-2l1 2zm929-1h1v1h-1zm610 3h1v1h-1zm-1423 5l-1-2h1v1zm1425-2h1v1h-1zm-1236 1h1v1h-1zm-1 3h1v1h-1zm627 0h1v1h-1zm613 1h1v1h-1zm-611 4l-1-2h1zm612-2h1v1h-1zm-1242 1h1v1h-1zm-301 3v-2l1 2zm300-1h1v1h-1zm631 0h1v1h-1zm215 0h1v1h-1zm-1029 2h1v1h-1zm1429 0h1v1h-1zm-614 1h1v1h-1zm-634 2h1v1h-1zm635 0h1v1h-1zm-814 1h1v1h-1zm1430 1h1v1h-1zm-727 3l1-2v1 1zm322-2h1v1h-1zm105 2l1-2v2zm-953-1h1v1h-1zm640 2h1v1h-1zm207 0h1v1h-1zm409 1h1v1h-1zm-410 1h1v1h-1zm411 1h1v1h-1zm-614 2h1v1h-1zm616 1h1v1h-1zm1 2h1v1h-1zm-1429 1h1v1h-1zm162 0h1v1h-1zm849 1h1v1h-1zm-1 1h1v1h-1zm-193 1h1v1h-1zm1 1h1v1h-1zm-814 1h1v1h-1zm815 0h1v1h-1zm188 1h1v1h-1zm-186 1h1v1h-1zm1 1h1v1h-1zm613 1h1v1h-1zm-611 1h1v1h-1zm1 1h1v1h-1zm-674 1h1v1h-1zm675 0h1v1h-1zm174 1h1v1h-1zm-172 1h1v1h-1zm610 0h1v1h-1zm-1424 1h1v1h-1zm133 0h1v1h-1zm683 0h1v1h-1zm1 1h1v1h-1zm608 0h1v1h-1zm-1422 1h1v1h-1zm126 1h1v1h-1zm691 0h1v1h-1zm1 1h1v1h-1zm606 0h1v1h-1zm-1301 1h1v1h-1zm697 0h1v1h-1zm153 0h1v1h-1zm452 1h1v1h-1zm-1414 3h1v1h-1zm105 0h1v1h-1zm850 0h1v1h-1zm-853 1h1v1h-1zm850 0h1v1h-1zm-852 1h1v1h-1zm850 0h1v1h-1zm467 0h1v1h-1zm-1410 1h1v1h-1zm3 1h1v1h-1zm84 0h1v1h-1zm850 0h1v1h-1zm-852 1h1v1h-1zm736 0h1v1h-1zm114 0h1v1h-1zm-110 1h1v1h-1zm106 0h1v1h-1zm-917 1h1v1h-1zm62 1v-1h2zm752-1h1v1h-1zm99 0h1v1h-1zm486 0h1v1h-1zm-1396 1h1v1h-1zm56 0h1v1h-1zm851 0h1v1h-1zm-87 1h1v1h-1zm80 0h1v1h-1zm-856 1h1v1h-1zm780 0h1v1h-1zm71 0h1v1h-1zm-65 1h1v1h-1zm57 0h1v1h-1zm-44 2l-4-1h4zm32 0v-1h4zm524-1h1v1h-1zm1 2h1v1h-1zm2 3h1v1h-1zm1 2h1v1h-1zm3 5h1v1h-1zm3 5h1v1h-1zm1 2h1v1h-1zm3 5h1v1h-1zm3 5h1v1h-1zm3 5h1v1h-1zm3 5h1v1h-1zm1 2h1v1h-1zm-1459 45v-1l2 1h-1zm961 0l2-1v1h-1zm-852 3l2-1v1zm741 0v-1l2 1zm95 0l2-1v1zm-83 1v-1l2 1zm-821 1v-1l7 1h-6zm35 0l9-1v1h-2zm801 0v-1l10 1h-8zm38 0l7-1v1h-2zm-217 12v-1h9v1zm-234 1v-1h6v1zm233 13v-14h1l-1 43zm10 89v-103h1v2 101zm362-102v-1h7v1zm-611 0h1v1h-1zm17 0h1v1h-1zm502 1v-1h1 1zm84 0v-1h2zm21-1h1v1h-1zm-629 1h1v1h-1zm26 0h1v1h-1zm496 0h1v1h-1zm111 0h1v1h-1zm-605 1h1v1h-1zm573 0h1v1h-1zm-570 1h1v1h-1zm565 1h1v1h-1zm-562 1h1v1h-1zm560 0h1v1h-1zm48 0h1v1h-1zm-123 2v-1h1v4h-1v-1zm73-1h1v1h-1zm593 1l2-1h3 17 8 1l1 1v2l1 1v1l1 2v1l1 1v2l1 2 1 2v2l1 1v1l1 1v2l1 1v2l1 1v1l1 1v3l1 1v1l1 1v2l1 1v2l1 1v1l1 1v2l1 1v2l1 2 1 1v3l1 1v1l1 1v2l1 1v2l1 2 1 1v3l1 1v1l1 1v2l1 1v2l1 1v1l1 1v3l1 1v1l1 1v2l1 1v2l1 1v1l1 1v2l1 1v2l1 1v1l1 1v3 2h-24l-1-1-1-3-1-1v-1l-1-1-1-6-1-1v-1l-1-1v-3l-1-1-1-1h-39l-1 1v1l-1 2v1l-1 1v3l-1 1v1l-1 1v2l-1 1v2l-1 2v1l-1 1h-24l-1-2v-1l1-2v-1l1-1v-2l1-2 1-2v-2l1-1v-1l1-2v-1l1-1v-2l1-1v-1l1-2v-1l1-1v-2l1-2 1-2v-2l1-1v-1l1-2v-1l1-1v-2l1-1v-1l1-1 1-5 1-2v-1l1-1v-2l1-1v-1l1-1v-2l1-1v-2l1-2 1-2v-2l1-1v-1l1-1v-2l1-1v-2l1-1v-1l1-1 1-5 1-1v-1l1-2v-2l1-1 1-2v-2l1-1v-1zm-1148 0h1v1h-1zm608 0h1v1h-1zm-607 1h1v1h-1zm496 0h1v1h-1zm-495 1h1v1h-1zm26 0h1v1h-1zm523 0h1v1h-1zm27 1l3-1v1zm33-1h1v1h-1zm-661 1h1v1h-1zm53 0h1v1h-1zm547 0h1v1h-1zm-546 1h1v1h-1zm609 0h1v1h-1zm-587 2l1-1-1 15v-13zm588-1h1v1h-1zm-667 2h1v1h-1zm59 0h1v1h-1zm2 3h1v1h-1zm610 0h1v1h-1zm-76 2h1v1h-1zm-50 1h1v1h-1zm-548 1h1v1h-1zm66 0h1v1h-1zm611 1h1v1h-1zm-610 4h1v1h-1zm527 0h1v1h-1zm-53 1h1v1h-1zm138 0h1v1h-1zm-143 1h1v1h-1zm264 1v-1h3v1zm-742 0h1v1h-1zm168 0h1v1h-1zm79 0h1v1h-1zm18 0h1v1h-1zm78 0h1v1h-1zm97 0h1v1h-1zm296 0h1v1h-1zm15 0h1v1h-1zm188 0h1v1h-1zm-904 1h1v1h-1zm130 0h1v1h-1zm23 0h1v1h-1zm56 0h1v1h-1zm79 0h1v1h-1zm137 0h1v1h-1zm17 2v-2h1v2zm176-2h1v1h-1zm26 0h1v1h-1zm55 0h1v1h-1zm19 0h1v1h-1zm36 0h1v1h-1zm23 0h1v1h-1zm51 0h1v1h-1zm23 0h1v1h-1zm51 0h1v1h-1zm-928 1h1v1h-1zm153 0h1v1h-1zm29 0h1v1h-1zm50 0h1v1h-1zm107 0h1v1h-1zm67 0h1v1h-1zm20 0h1v1h-1zm99 0h1v1h-1zm179 0h1v1h-1zm42 0h1v1h-1zm60 0h1v1h-1zm74 0h1v1h-1zm27 0h1v1h-1zm19 0h1v1h-1zm-799 71v-70h1v70zm24-70h1v1h-1zm33 0h1v1h-1zm46 0h1v1h-1zm79 0h1v1h-1zm32 0h1v1h-1zm83 0h1v1h-1zm32 0h1v1h-1zm16 0h1v1h-1zm203 0h1v1h-1zm47 0h1v1h-1zm86 0h1v1h-1zm74 0h1v1h-1zm68 0h1v1h-1zm-765 1h1v1h-1zm80 0h1v1h-1zm77 0h1v1h-1zm334 0h1v1h-1zm97 0h1v1h-1zm74 0h1v1h-1zm69 2l-1-2h1zm35-2h1v1h-1zm-684 1h1v1h-1zm368 0h1v1h-1zm43 0h1v1h-1zm93 0h1v1h-1zm151 0h1v1h-1zm-734 1h1v1h-1zm80 0h1v1h-1zm411 0h1v1h-1zm274 0h1v1h-1zm-1007 1h1v1h-1zm278 0h1v1h-1zm79 0h1v1h-1zm411 2l-1-2h1zm37-2h1v1h-1zm-804 1h1v1h-1zm197 0h1v1h-1zm608 0h1v1h-1zm137 0h1v1h-1zm-941 1h1v1h-1zm195 0h1v1h-1zm48 0h1v1h-1zm699 0h1v1h-1zm-748 1h1v1h-1zm381 0h1v1h-1zm106 0h1v1h-1zm54 0h1v1h-1zm208 0h1v1h-1zm-940 1h1v1h-1zm190 0h1v1h-1zm79 0h1v1h-1zm495 0h1v1h-1zm241 0h1v1h-1zm-737 1h1v1h-1zm55 0h1v1h-1zm480 0h1v1h-1zm-798 1h1v1h-1zm262 0h1v1h-1zm197 0h1v1h-1zm270 0h1v1h-1zm272 0h1v1h-1zm-999 1h1v1h-1zm804 0h1v1h-1zm74 0h1v1h-1zm-873 1h1v1h-1zm175 0h1v1h-1zm79 0h1v1h-1zm133 0h1v1h-1zm64 0h1v1h-1zm-447 1h1v1h-1zm555 5v-5h1zm164-5h1v1h-1zm209 0h1v1h-1zm-924 1h1v1h-1zm166 0h1v1h-1zm623 0h1v1h-1zm198 0h1v1h-1zm-743 1h1v1h-1zm136 0h1v1h-1zm336 0h1v1h-1zm-707 1h1v1h-1zm298 0h1v1h-1zm346 0h1v1h-1zm-410 2v-1h1l-1 2zm609-1h1v1h-1zm-688 1h1v1h-1zm623 0h1v1h-1zm74 0h1v1h-1zm-698 4v-2h1zm79-2h1v1h-1zm-220 1h1v1h-1zm287 1h1v1h-1zm352 0h1v1h-1zm199 0h1v1h-1zm-154 1h1v1h-1zm-544 1h1v1h-1zm79 0h1v1h-1zm310 4v-4l1 4zm154-4h1v1h-1zm12 4v-4h1v4zm137-4h1v1h-1zm74 0h1v1h-1zm-900 1h1v1h-1zm431 0h1v1h-1zm326 2v-2h1zm74-2h1v1h-1zm-857 2v-1l2 1h-1zm459-1h1v1h-1zm239 1v-1h2zm-460 4v-4h1zm-79 1v-4h1v14h-1v-5zm522-4h1v1h-1zm-207 2l-2-1h1 1zm202 0v-1h1 1zm-5 0h1v1h-1zm182 0h1v1h-1zm-371 1h1v1h-1zm158 0h1v1h-1zm-609 1h1v1h-1zm608 0h1v1h-1zm5 0h1v1h-1zm21 0h1v1h-1zm-177 1h1v1h-1zm174 0h1v1h-1zm-100 1h1v1h-1zm-530 1h1v1h-1zm461 1h1v1h-1zm164 0h1v1h-1zm-419 5v-4l1 4zm418-4h1v1h-1zm-691 2h1v1h-1zm689 0h1v1h-1zm-621 6v-5h1v5zm620-5h1v1h-1zm-611 2l1-1v2h-1zm456-1h1v1h-1zm138 0h1v1h-1zm-71 1h1v1h-1zm303 0h1v1h-1zm-369 1h1v1h-1zm295 0h1v1h-1zm-828 1h1v1h-1zm177 2v-2h1zm-101 2v-3h1v3zm525-2h1v1h-1zm83 0h1v1h-1zm-205 2v-1h1 1v1zm188-1h1v1h-1zm-543 4v-3l1 3zm52-3h1v1h-1zm305 0h1v1h-1zm-195 1h1v1h-1zm397 2v-2h1zm-607-1h1v1h-1zm40 0h1v1h-1zm19 0h1v1h-1zm329 0h1v1h-1zm140 0h1v1h-1zm61 0h1v1h-1zm166 0h1v1h-1zm-827 1h1v1h-1zm115 0h1v1h-1zm56 0h1v1h-1zm293 0h1v1h-1zm137 0h1v1h-1zm-551 1h1v1h-1zm287 0h1v1h-1zm538 0h1v1h-1zm-765 1h1v1h-1zm493 0h1v1h-1zm55 0h1v1h-1zm171 0h1v1h-1zm55 0h1v1h-1zm19 0h1v1h-1zm-734 1h1v1h-1zm171 0h1v1h-1zm92 0h1v1h-1zm172 0h1v1h-1zm53 0h1v1h-1zm173 0h1v1h-1zm74 0h1v1h-1zm-856 1h1v1h-1zm35 0h1v1h-1zm26 0h1v1h-1zm547 0h1v1h-1zm-609 1h1v1h-1zm434 0h1v1h-1zm351 0h1v1h-1zm74 0h1v1h-1zm-860 1h1v1h-1zm88 0h1v1h-1zm275 13v-13l1 13zm48-13h1v1h-1zm25 0h1v1h-1zm126 0h1v1h-1zm225 0h1v1h-1zm37 0h1v1h-1zm37 0h1v1h-1zm-772 1h1v1h-1zm299 0h1v1h-1zm218 0h1v1h-1zm93 0h1v1h-1zm-736 1h1v1h-1zm34 0h1v1h-1zm63 0h1v1h-1zm30 0h1v1h-1zm28 0h1v1h-1zm159 0h1v1h-1zm289 0h1v1h-1zm224 0h1v1h-1zm74 0h1v1h-1zm-899 1h1v1h-1zm126 0h1v1h-1zm156 0h1v1h-1zm193 0h1v1h-1zm28 0h1v1h-1zm134 0h1v1h-1zm292 0h1v1h-1zm-901 1h1v1h-1zm65 0h1v1h-1zm70 2v-2l1 2zm145-2h1v1h-1zm134 0h1v1h-1zm164 0h1v1h-1zm297 0h1v1h-1zm-898 1h1v1h-1zm20 1v-1h2zm262-1h1v1h-1zm193 0h1v1h-1zm129 0h1v1h-1zm22 0h1v1h-1zm110 0h1v1h-1zm90 0h1v1h-1zm19 0h1v1h-1zm74 0h1v1h-1zm-914 1h1v1h-1zm11 0h1v1h-1zm111 0h1v1h-1zm159 0h1v1h-1zm138 0h1v1h-1zm55 0h1v1h-1zm133 1l-3-1h2 1zm9 0v-1h2zm111-1h1v1h-1zm10 0h1v1h-1zm90 1l-2-1h2zm83-1h1v1h-1zm-755 8v-1h8v1zm80 0v-1h7v1zm90-1h1v1h-1zm54 1v-1h8v1zm93 2v-1l2 1zm-473 1v-1l3 1zm11 0l3-1v1zm593 0v-1l2 1zm12 0l3-1v1zm-667 18l1-15v15zm-14 1l-1-1h14v1z"/>
		<path id="Path 5" class="s4" d="m2092 206h1v1h-1zm-237 136v-1h102v388l-103 1v-1l1-15v-2-3-1-7-1l-1-2v-1l-1-1v-1l1-335v-1-1l1-2v-12zm-354 231h1v1h-1zm378 189h25v82l43 1 1 21-69 1zm182 0h1v1h-1zm1 3h1v1h-1zm-34 1h1v1h-1zm36 4h1v1h-1zm-38 1h1v1h-1zm-2 6h1v1h-1zm43 2h1v1h-1zm1 2h1v1h-1zm-46 2h1v1h-1zm47 1h1v1h-1zm-48 1h1v1h-1zm49 2h1v1h-1zm-50 1h1v1h-1zm51 1h1v1h-1zm-52 2h1v1h-1zm-1 2h1v1h-1zm54 0h1v1h-1zm1 2h1v1h-1zm1 3h1v1h-1zm1 3h1v1h-1zm-60 1h1v1h-1zm61 1h1v1h-1zm-62 2h1v1h-1zm63 1h1v1h-1zm-64 1h1v1h-1zm-1 3h1v1h-1zm67 1h1v1h-1zm1 4h1v1h-1zm1 2h1v1h-1zm-72 2h1v1h-1zm73 1h1v1h-1zm-74 1h1v1h-1zm-1 3h1v1h-1zm77 1h1v1h-1zm-79 4h1v1h-1zm80 0h1v1h-1zm1 2h1v1h-1zm1 3h1v1h-1zm1 3h1v1h-1zm-86 1h1v1h-1zm87 1h1v1h-1zm-89 4h1v1h-1zm90 0h1v1h-1zm1 2h1v1h-1zm-92 1h1v1h-1zm93 2h1v1h-1zm-95 3h1v1h-1zm96 0h1v1h-1zm1 2h1v1h-1zm1 3h1v1h-1zm1 3h1v1h-1zm-102 1h1v1h-1zm103 1h1v1h-1z"/>
		<path id="Path 6" fill-rule="evenodd" class="s1" d="m1905 276h1v1h-1zm-3 3h1v1h-1zm5 0h1v1h-1zm-7 3h1v1h-1zm9 0h1v1h-1zm1 2h1v1h-1zm-13 3h1v1h-1zm15 0h1v1h-1zm-583 4h1v1h-1zm-115 3h1v1h-1zm122 0h1v1h-1zm555 2h1v1h-1zm27 0h1v1h-1zm-709 1h1v1h-1zm-3 2h1v1h-1zm-2 1h1v1h-1zm-1 1h1v1h-1zm685 0h1v1h-1zm33 0h1v1h-1zm-572 1h1v1h-1zm1 1h1v1h-1zm-151 1h1v1h-1zm152 0h1v1h-1zm535 0h1v1h-1zm37 0h1v1h-1zm-725 1h1v1h-1zm-1 1h1v1h-1zm-1 1h1v1h-1zm159 0h1v1h-1zm529 0h1v1h-1zm41 0h1v1h-1zm-730 1h1v1h-1zm-1 1h1v1h-1zm689 0h1v1h-1zm43 0h1v1h-1zm-733 1h1v1h-1zm689 0h1v1h-1zm-1 2h1v1h-1zm47 0h1v1h-1zm-738 2h1v1h-1zm172 1h1v1h-1zm1 1h1v1h-1zm-175 1h1v1h-1zm177 2h1v1h-1zm2 3h1v1h-1zm1 2h1v1h-1zm-289 44v-29 5 20zm300-8h1v1h-1zm471 2h1v1h-1zm-1 1h1v1h-1zm-1 1h1v1h-1zm-1 1h1v1h-1zm-1 1h1v1h-1zm-1 1h1v1h-1zm-5 6h1v1h-1zm-1 1h1v1h-1zm-1 1h1v1h-1zm-1 1h1v1h-1zm-1 1h1v1h-1zm-2 2h1v1h-1zm-1 1h1v1h-1zm-3 4h1v1h-1zm-1 1h1v1h-1zm-1 1h1v1h-1zm-1 1h1v1h-1zm-1 1h1v1h-1zm-1 1h1v1h-1zm-5 6h1v1h-1zm-1 1h1v1h-1zm-1 1h1v1h-1zm-1 1h1v1h-1zm-1 1h1v1h-1zm-1 1h1v1h-1zm-1 1h1v1h-1zm-7 8h1v1h-1zm-1 1h1v1h-1zm-1 1h1v1h-1zm-2 2h1v1h-1zm-713 5h1v1h-1zm-210 2v-1h15v1zm-8 1v-1h3zm925-1h1v1h-1zm-931 2v-1h5 1zm43 0l-5-1h5zm887-1h1v1h-1zm-933 2l2-1h1zm49 0l-2-1h2zm883-1h1v1h-1zm-936 2v-1h2zm935-1h1v1h-1zm-938 2l2-1h1zm63 0l-2-1h2zm874-1h1v1h-1zm-939 1h1v1h-1zm66 0h1v1h-1zm872 0h1v1h-1zm-868 2h1v1h-1zm-77 1h1v1h-1zm80 0h1v1h-1zm1 1h1v1h-1zm-84 1h1v1h-1zm86 0h1v1h-1zm166 0h1v1h-1zm692 0h1v1h-1zm-856 1h1v1h-1zm855 0h1v1h-1zm-946 1h1v1h-1zm92 0h1v1h-1zm853 0h1v1h-1zm-946 1h1v1h-1zm95 0h1v1h-1zm163 0h1v1h-1zm687 0h1v1h-1zm-947 2l1-1h1zm98-1h1v1h-1zm848 0h1v1h-1zm-947 1h1v1h-1zm100 0h1v1h-1zm162 0h1v1h-1zm684 0h1v1h-1zm-947 1h1v1h-1zm103 0h1v1h-1zm843 0h1v1h-1zm-948 2l1-1h1zm106-1h1v1h-1zm841 0h1v1h-1zm-948 1h1v1h-1zm108 0h1v1h-1zm160 0h1v1h-1zm-269 1h1v1h-1zm110 0h1v1h-1zm-111 1h1v1h-1zm112 0h1v1h-1zm1 1h1v1h-1zm159 0h1v1h-1zm-158 1h1v1h-1zm159 0h1v1h-1zm-158 1h1v1h-1zm159 0h1v1h-1zm671 0h1v1h-1zm-829 1h1v1h-1zm828 0h1v1h-1zm-948 1h1v1h-1zm121 0h1v1h-1zm826 0h1v1h-1zm-948 1h1v1h-1zm947 0h1v1h-1zm-824 1h1v1h-1zm159 0h1v1h-1zm664 0h1v1h-1zm-822 1h1v1h-1zm159 0h1v1h-1zm-158 1h1v1h-1zm159 0h1v1h-1zm-287 1h1v1h-1zm130 2l-1-2 1 1zm158-2h1v1h-1zm1 1h1v1h-1zm-159 1h1v1h-1zm160 0h1v1h-1zm-292 1h1v1h-1zm133 0h1v1h-1zm160 0h1v1h-1zm1 1h1v1h-1zm651 0h1v1h-1zm-946 1h1v1h-1zm135 0h1v1h-1zm161 0h1v1h-1zm649 0h1v1h-1zm-648 1h1v1h-1zm647 0h1v1h-1zm-1 1h1v1h-1zm-945 1h1v1h-1zm139 0h1v1h-1zm163 0h1v1h-1zm642 0h1v1h-1zm-641 1h1v1h-1zm640 0h1v1h-1zm-944 2l1-1-1 2zm142 1l-1-2h1v1zm163-2h1v1h-1zm638 0h1v1h-1zm-944 2h1v1h-1zm143 0h1v1h-1zm166 0h1v1h-1zm1 1h1v1h-1zm-311 2l1-1-1 2zm145-1h1v1h-1zm796 1h1v1h-1zm-942 3v-2h1zm941-2h1v1h-1zm-1 1h1v1h-1zm-941 1h1v1h-1zm149 0h1v1h-1zm791 0h1v1h-1zm-1 1h1v1h-1zm-788 3l-1-2h1zm787-2h1v1h-1zm-939 2v-1h1l-1 2zm326-1h1v1h-1zm-327 4v-2h1zm333-1h1v1h-1zm601 3h1v1h-1zm-1 1h1v1h-1zm-935 4v-3h1zm345-3h1v1h-1zm589 0h1v1h-1zm-1 1h1v1h-1zm-1 1h1v1h-1zm-1 1h1v1h-1zm-932 3v-2h1zm162 6l-2-6h1zm-163-2v-2h1zm928-1h1v1h-1zm-1 1h1v1h-1zm-1 1h1v1h-1zm-762 6l-1-3h1v2zm-166 2v-3h1zm167 4l-1-6h1zm763-6h1v1h-1zm2 3h1v1h-1zm-933 5v-4h1l-2 10v-5zm934-3h1v1h-1zm1 1h1v1h-1zm1 2h1v1h-1zm1 2h1v1h-1zm2 3h1v1h-1zm-770 54v-53h1v6l1 1v39l-1 2v5zm-171-41v-7h1l-1 9zm945-6h1v1h-1zm1 2h1v1h-1zm2 3h1v1h-1zm1 2h1v1h-1zm-950 38v-37h1v37zm951-37h1v1h-1zm1 2h1v1h-1zm3 5h1v1h-1zm2 4h1v1h-1zm-396 3h1v1h-1zm398 0h1v1h-1zm-394 2h1v1h-1zm395 0h1v1h-1zm2 3h1v1h-1zm1 2h1v1h-1zm-385 3h1v1h-1zm387 0h1v1h-1zm-386 1h1v1h-1zm1 1h1v1h-1zm1 1h1v1h-1zm1 1h1v1h-1zm386 1h1v1h-1zm-383 3h1v1h-1zm385 1h1v1h-1zm-383 2h1v1h-1zm385 1h1v1h-1zm-971 3v-2l1 8h-1zm972-1h1v1h-1zm1 1h1v1h-1zm-384 1h1v1h-1zm264 1h1v1h-1zm121 0h1v1h-1zm-122 1h1v1h-1zm-682 4l1-3v3zm681-3h1v1h-1zm7 0h1v1h-1zm117 0h1v1h-1zm1 1h1v1h-1zm-117 1h1v1h-1zm-690 7l1-6v1 5zm808-6h1v1h-1zm-976 6v-4l2 8h-1v-3zm979-1h1v1h-1zm-117 1h1v1h-1zm118 1h1v1h-1zm-117 1h1v1h-1zm118 1h1v1h-1zm-816 8l2-6-1 6zm672-6h1v1h-1zm-835 3v-2l1 2zm834-2h1v1h-1zm147 0h1v1h-1zm-148 1h1v1h-1zm-1 1h1v1h-1zm-1 1h1v1h-1zm152 0h1v1h-1zm-982 4v-3l1 3zm829-3h1v1h-1zm-1 1h1v1h-1zm37 0h1v1h-1zm118 0h1v1h-1zm-156 1h1v1h-1zm-826 2v-1l1 3zm825-1h1v1h-1zm-1 1h1v1h-1zm160 0h1v1h-1zm-825 4l1-3v3zm664-3h1v1h-1zm-1 1h1v1h-1zm163 0h1v1h-1zm-984 3v-2l1 2zm820-2h1v1h-1zm-1 1h1v1h-1zm-818 2v-1l1 3h-1zm817-1h1v1h-1zm-1 1h1v1h-1zm51 0h1v1h-1zm118 0h1v1h-1zm-170 1h1v1h-1zm171 0h1v1h-1zm-172 1h1v1h-1zm-660 4l1-3v1zm659-3h1v1h-1zm175 2h1v1h-1zm1 1h1v1h-1zm-986 2v-1l1 2zm987 0h1v1h-1zm-118 1h1v1h-1zm120 2h1v1h-1zm1 2h1v1h-1zm-844 3l1-2v1 1zm846 0h1v1h-1zm-118 2h1v1h-1zm119 0h1v1h-1zm2 4h1v1h-1zm-985 4v-1l1 2zm987-1h1v1h-1zm-858 3l1-2v1zm740-1h1v1h-1zm119 0h1v1h-1zm1 1h1v1h-1zm1 2h1v1h-1zm2 3h1v1h-1zm-984 3l-1-2 2 2zm985-1h1v1h-1zm-872 3l1-2v1zm548 0h1v1h-1zm206 0h1v1h-1zm120 0h1v1h-1zm-755 1h1v1h-1zm756 1h1v1h-1zm-119 1h1v1h-1zm-1048 2h1v1h-1zm1169 1h1v1h-1zm1 1h1v1h-1zm-1558 2h1v1h-1zm1439 0h1v1h-1zm120 0h1v1h-1zm1 2h1v1h-1zm-119 1h1v1h-1zm120 0h1v1h-1zm1 2h1v1h-1zm-969 2v-1l2 1h-1zm-210 0h1v1h-1zm212 1v-1l3 1zm58 0l3-1v1zm911 0h1v1h-1zm-962 2v-1l3 1h-1zm45 0l3-1-2 1zm797-1h1v1h-1zm-1439 1h1v1h-1zm600 1v-1l3 1zm39 0l3-1v1zm147-1h1v1h-1zm774 0h1v1h-1zm-953 2v-1l5 1zm217-1h1v1h-1zm-823 1h1v1h-1zm612 1v-1h19v1zm828-1h1v1h-1zm-228 1h1v1h-1zm349 0h1v1h-1zm-1559 2h1v1h-1zm1560 0h1v1h-1zm-1190 1h1v1h-1zm454 0h1v1h-1zm737 1h1v1h-1zm-354 1h1v1h-1zm234 0h1v1h-1zm121 1h1v1h-1zm-1559 1h1v1h-1zm1203 0h1v1h-1zm357 0h1v1h-1zm-358 1h1v1h-1zm359 1h1v1h-1zm-1559 1h1v1h-1zm360 1h1v1h-1zm838 0h1v1h-1zm-1197 1h1v1h-1zm824 0h1v1h-1zm372 0h1v1h-1zm364 0h1v1h-1zm-365 2h1v1h-1zm245 0h1v1h-1zm121 0h1v1h-1zm-1205 1h1v1h-1zm838 0h1v1h-1zm-428 1h1v1h-1zm-762 1h1v1h-1zm825 1h1v1h-1zm363 0h1v1h-1zm-839 1h1v1h-1zm411 0h1v1h-1zm427 0h1v1h-1zm373 0h1v1h-1zm-1557 2h1v1h-1zm1 1h1v1h-1zm343 0h1v1h-1zm411 0h1v1h-1zm-753 1h1v1h-1zm341 0h1v1h-1zm483 0h1v1h-1zm355 0h1v1h-1zm257 0h1v1h-1zm121 0h1v1h-1zm-1217 1h1v1h-1zm485 0h1v1h-1zm353 0h1v1h-1zm380 0h1v1h-1zm-807 1h1v1h-1zm75 0h1v1h-1zm351 0h1v1h-1zm-655 1h1v1h-1zm305 0h1v1h-1zm349 0h1v1h-1zm383 0h1v1h-1zm-731 1h1v1h-1zm347 0h1v1h-1zm-346 1h1v1h-1zm345 0h1v1h-1zm265 0h1v1h-1zm-915 1h1v1h-1zm224 0h1v1h-1zm82 0h1v1h-1zm343 0h1v1h-1zm388 0h1v1h-1zm-814 1h1v1h-1zm84 0h1v1h-1zm341 0h1v1h-1zm-647 1h1v1h-1zm307 0h1v1h-1zm339 0h1v1h-1zm391 0h1v1h-1zm-1036 1h1v1h-1zm307 0h1v1h-1zm337 0h1v1h-1zm-336 1h1v1h-1zm335 0h1v1h-1zm-838 1h1v1h-1zm196 0h1v1h-1zm308 0h1v1h-1zm333 0h1v1h-1zm396 0h1v1h-1zm-1234 1h1v1h-1zm413 0h1v1h-1zm93 0h1v1h-1zm-507 1h1v1h-1zm508 0h1v1h-1zm728 0h1v1h-1zm-1237 1h1v1h-1zm201 0h1v1h-1zm309 0h1v1h-1zm606 0h1v1h-1zm-1117 1h1v1h-1zm512 0h1v1h-1zm324 0h1v1h-1zm-323 1h1v1h-1zm322 0h1v1h-1zm-321 1h1v1h-1zm-823 1h1v1h-1zm305 0h1v1h-1zm209 0h1v1h-1zm310 0h1v1h-1zm-520 1h1v1h-1zm211 0h1v1h-1zm311 0h1v1h-1zm314 0h1v1h-1zm-837 1h1v1h-1zm213 0h1v1h-1zm311 0h1v1h-1zm312 0h1v1h-1zm-1135 1h1v1h-1zm824 0h1v1h-1zm-529 2h1v1h-1zm532 0h1v1h-1zm304 0h1v1h-1zm296 0h1v1h-1zm-1423 1h1v1h-1zm290 0h1v1h-1zm221 0h1v1h-1zm194 0h1v1h-1zm119 0h1v1h-1zm301 0h1v1h-1zm-613 1h1v1h-1zm192 0h1v1h-1zm-417 1h1v1h-1zm226 0h1v1h-1zm190 0h1v1h-1zm124 0h1v1h-1zm295 0h1v1h-1zm-1118 1h1v1h-1zm510 0h1v1h-1zm188 0h1v1h-1zm-418 1h1v1h-1zm231 0h1v1h-1zm186 0h1v1h-1zm129 0h1v1h-1zm289 0h1v1h-1zm-603 1h1v1h-1zm910 0h1v1h-1zm-909 1h1v1h-1zm-507 1h1v1h-1zm508 0h1v1h-1zm179 0h1v1h-1zm138 0h1v1h-1zm593 1h1v1h-1zm-1413 2h1v1h-1zm260 0h1v1h-1zm247 0h1v1h-1zm171 0h1v1h-1zm147 0h1v1h-1zm269 0h1v1h-1zm-586 1h1v1h-1zm1 1h1v1h-1zm166 0h1v1h-1zm-1 1h1v1h-1zm-161 2h1v1h-1zm158 0h1v1h-1zm414 0h1v1h-1zm-569 2h1v1h-1zm902 0h1v1h-1zm-900 1h1v1h-1zm901 1h1v1h-1zm-1179 1h1v1h-1zm281 0h1v1h-1zm141 0h1v1h-1zm759 2h1v1h-1zm-894 1h1v1h-1zm4 2h1v1h-1zm-383 15h-41 6 28zm837 0h-41 8 28zm-440 26h1v1h-1zm21 18l14-1 1-16v13 1 1l-14 2zm-51-16h1v1h-1zm641 0h1v1h-1zm-642 1h1v1h-1zm601 0h1v1h-1zm-1 1h1v1h-1zm-1 1h1v1h-1zm-561 2h1v1h-1zm499 3h1v1h-1zm57 0h1v1h-1zm56 0h1v1h-1zm-116 5h1v1h-1zm-1 1h1v1h-1zm223 2h8-7zm203 0h8-7zm-907 9v-9 1zm478-9h1v1h-1zm130 5l-5-1 4 1zm-443 3v-1h10v1zm622 0v-1h10v1zm74 0v-1h10v1zm-684 0h1v1h-1zm62 0h1v1h-1zm17 1l-2-1h2zm57-1h1v1h-1zm135 0h1v1h-1zm-267 2l-3-1h1zm55 0l2-1h1zm23 0l-3-1h1zm522 0v-1h2zm22 0l-2-1h2zm52 0v-1h2zm22 0l-2-1h2zm40-1h1v1h-1zm-760 1h1v1h-1zm24 0h1v1h-1zm54 0h1v1h-1zm24 0h1v1h-1zm169 0h1v1h-1zm24 0h1v1h-1zm271 0h1v1h-1zm56 0h1v1h-1zm26 1l-2-1h1zm48 0l1-1h1zm26 0l-2-1h1zm65-1h1v1h-1zm-789 1h1v1h-1zm78 0h1v1h-1zm28 0h1v1h-1zm166 0h1v1h-1zm245 0h1v1h-1zm105 0h1v1h-1zm28 0h1v1h-1zm46 0h1v1h-1zm28 0h1v1h-1zm45 0h1v1h-1zm21 0h1v1h-1zm-1009 1h1v1h-1zm217 1l1-1h1zm78 0l1-1h1zm31-1h1v1h-1zm164 0h1v1h-1zm214 0h1v1h-1zm33 0h1v1h-1zm103 0h1v1h-1zm32 1l-2-1h1zm42-1h1v1h-1zm32 1l-2-1h1zm41-1h1v1h-1zm23 0h1v1h-1zm-794 1h1v1h-1zm34 0h1v1h-1zm77 0h1v1h-1zm192 0h1v1h-1zm184 0h1v1h-1zm35 0h1v1h-1zm70 0h1v1h-1zm31 0h1v1h-1zm34 2l-1-2 1 1zm40-2h1v1h-1zm-698 1h1v1h-1zm36 0h1v1h-1zm42 1l1-1h1l-2 2zm35-1h1v1h-1zm74 0h1v1h-1zm118 0h1v1h-1zm182 0h1v1h-1zm37 0h1v1h-1zm44 0h1v1h-1zm55 0h1v1h-1zm74 0h1v1h-1zm-698 1h1v1h-1zm38 0h1v1h-1zm77 0h1v1h-1zm372 0h1v1h-1zm136 0h1v1h-1zm36 0h1v1h-1zm38 0h1v1h-1zm74 0h1v1h-1zm-981 1h1v1h-1zm209 0h1v1h-1zm40 0h1v1h-1zm114 0h1v1h-1zm154 0h1v1h-1zm315 0h1v1h-1zm38 0h1v1h-1zm36 1l1-1-1 2zm38-1h1v1h-1zm-694 1h1v1h-1zm37 0h1v1h-1zm584 0h1v1h-1zm74 0h1v1h-1zm-737 1h1v1h-1zm119 0h1v1h-1zm191 0h1v1h-1zm313 0h1v1h-1zm74 0h1v1h-1zm-698 1h1v1h-1zm44 0h1v1h-1zm579 0h1v1h-1zm43 2l-1-2 1 1zm31-1l1-1-1 2zm42-1h1v1h-1zm-694 1h1v1h-1zm33 1l1-1-1 2zm44 1l-1-2h1zm365-2h1v1h-1zm-685 1h1v1h-1zm197 0h1v1h-1zm623 1v-1h1l-1 2zm45 1l-1-2h1zm29 0v-2h1zm45 1l-1-3h1v2zm-664 0v-2h1zm526-2h-3 1zm-605 2v-1h1l-1 2zm48-1h1v1h-1zm575 2v-2h1zm74-1h1v1h-1zm47 2l-1-2h1zm-745 1v-2h1zm79-2h1v1h-1zm47 4v-3l1 3zm545 0l-48 1v-3h1zm26 0v-2h1v2zm-645 2l-1-3h1v1zm-53 1v-3h1l-1 4zm127-2l-47-1h47zm146-1h1v1h-1zm426 1v-1h47zm-425 0h1v1h-1zm1 1h1v1h-1zm-430 2h1v1h-1zm439 3h1v1h-1zm245 1v-1h6v10l-1 1v2h-1l1-12zm-680 0h1v1h-1zm670 1v-1h8zm-519 1v-1l1 5h-1zm513 0v-1h4 2zm-7 1v-1h3zm-4 1l3-1h1zm-718 2v-2 1zm268 0l1-2v1 1zm448-2h1v1h-1zm-6 3h1v1h-1zm-493 3v-2l1 2zm50 0l1-2v2zm442-2h1v1h-1zm-176 1h1v1h-1zm175 0h1v1h-1zm-490 2v-1l1 2h-1zm48 1l1-2v1 1zm268-2h1v1h-1zm173 0h1v1h-1zm-487 5v-1l1 2zm44 1l1-2v1 1zm483 0l1-2v1 1zm-144 0h1v1h-1zm143 2l1-2v1zm-142-1h1v1h-1zm85 0h1v1h-1zm218 0h1v1h-1zm-696 4h1v1h-1zm15 1l-1-1 2 1zm32 0l2-1-1 1zm349-1h1v1h-1zm79 0h1v1h-1zm149 0h1v1h-1zm139 0h1v1h-1zm-899 1h1v1h-1zm59 0h1v1h-1zm221 0h1v1h-1zm253 0h1v1h-1zm77 0h1v1h-1zm151 0h1v1h-1zm63 0h1v1h-1zm11 0h1v1h-1zm-902 1h1v1h-1zm221 1l-1-1 2 1zm26 0l2-1-1 1zm13-1h1v1h-1zm86 0h1v1h-1zm132 0h1v1h-1zm123 0h1v1h-1zm75 0h1v1h-1zm-675 1h1v1h-1zm221 1v-1l2 1zm23 0l2-1v1h-1zm14-1h1v1h-1zm26 0h1v1h-1zm60 0h1v1h-1zm257 0h1v1h-1zm73 0h1v1h-1zm-673 1h1v1h-1zm63 0h1v1h-1zm141 0h1v1h-1zm80 0h1v1h-1zm317 0h1v1h-1zm71 0h1v1h-1zm215 0h1v1h-1zm74 0h1v1h-1zm-960 1h1v1h-1zm61 0h1v1h-1zm60 0h1v1h-1zm83 0h1v1h-1zm22 1l-3-1 5 1zm2 0l12-1v1h-3l-1 1h-8zm56-1h1v1h-1zm186 0h1v1h-1zm7 0h1v1h-1zm54 0h1v1h-1zm139 0h1v1h-1zm35 1v-1l4 1h-1zm4 0l14-1-14 2zm176-1h1v1h-1zm74 0h1v1h-1zm-958 1h1v1h-1zm59 0h1v1h-1zm20 0h1v1h-1zm40 0h1v1h-1zm85 0h1v1h-1zm80 0h1v1h-1zm193 0h1v1h-1zm52 0h1v1h-1zm139 0h1v1h-1zm215 0h1v1h-1zm74 0h1v1h-1zm-956 1h1v1h-1zm57 0h1v1h-1zm147 0h1v1h-1zm132 0h1v1h-1zm141 0h1v1h-1zm50 0h1v1h-1zm159 0h1v1h-1zm47 0h1v1h-1zm96 0h1v1h-1zm74 0h1v1h-1zm52 0h1v1h-1zm-899 1h1v1h-1zm73 0h1v1h-1zm76 0h1v1h-1zm130 0h1v1h-1zm143 0h1v1h-1zm48 0h1v1h-1zm161 0h1v1h-1zm143 0h1v1h-1zm74 0h1v1h-1zm-901 1h1v1h-1zm52 0h1v1h-1zm25 0h1v1h-1zm50 0h1v1h-1zm40 0h1v1h-1zm36 0h1v1h-1zm81 0h1v1h-1zm47 0h1v1h-1zm131 0h1v1h-1zm14 0h1v1h-1zm46 0h1v1h-1zm163 0h1v1h-1zm42 0h1v1h-1zm101 0h1v1h-1zm47 0h1v1h-1zm74 0h1v1h-1zm-821 1h1v1h-1zm-125 1h1v1h-1zm46 0h1v1h-1zm61 0h1v1h-1zm177 0h1v1h-1zm585 0h1v1h-1zm74 0h1v1h-1zm-865 1h1v1h-1zm50 0h1v1h-1zm194 0h1v1h-1zm105 0h1v1h-1zm327 0h1v1h-1zm151 0h1v1h-1zm-170 1h1v1h-1zm18 0h1v1h-1zm-672 1h1v1h-1zm610 0h1v1h-1zm60 0h1v1h-1zm-654 2l-14-1 13 1zm759 0l-18-1h5l2 1h10zm74 0l-18-1h5l2 1h10zm-780 0h-13 1 11zm560 0h-13 1 11zm38 0h-8 1 6z"/>
		<path id="Path 7" class="s0" d="m872 421l3-1h1 4 15 4 2l3 1 5 1h1l2 1h1 2l2 1 2 1h1l1 1h1l2 1 1 1h1 1l1 1 1 1h1l1 1h1l1 1 1 1h1l1 1 1 1 1 1h1l1 1 1 1 1 1 1 1 1 1 1 1 1 1 1 1 1 1 1 1v1l1 1 1 1 1 1 1 2 1 1 1 1v1l1 1 1 2 1 1v1l1 2 1 1v1l1 1 1 2v1l1 1v1l1 2 1 2v1l1 2 1 3v1l1 2v1 1l2 6v1 1l1 3 1 6 1 4v3 1 53 1 3l-1 3-1 6v1l-1 3v1l-2 6v1 1l-1 2-1 3v1l-1 2v1l-1 1-1 3v1l-1 1v1l-1 2-1 1v1l-1 1-1 2v1l-1 1-1 2-1 1v1l-1 1-1 2-1 1-1 2-1 1-1 1v1l-1 1-1 1-1 1-1 1v1h-1l-1 2-1 1-1 1-1 1h-1l-1 1-1 1-1 1-1 1-1 1h-1l-1 1-1 1h-1l-1 1-2 1-1 1h-1l-1 1-2 1h-1l-1 1h-1l-3 1-2 1h-1l-3 1-3 1h-2l-4 1h-1-19-1l-5-1h-1-3l-3-1-3-1h-2l-2-1-3-1-2-1h-1-1l-1-1-2-1-1-1h-1l-2-1-1-1h-1l-1-1-1-1h-1l-1-1-3-2-1-1-1-1-1-1-1-1-1-1-1-1-1-1-2-2-1-1-1-1-1-1-1-1-1-2-1-1-1-2-1-1-1-1-1-2-1-1v-1l-1-1-1-2v-1l-1-1-1-2-1-2v-1l-1-2-1-1v-1l-1-2v-1l-1-3-1-2v-1l-1-3-1-3v-1-1l-1-2v-2l-2-8v-2-1l-1-8v-37l1-9v-2-3l2-10v-1-1l1-3v-1-1l1-4 1-2v-1-1l1-2v-1l1-3v-1l1-2v-1l1-2 1-2v-1-1l1-1 1-2 1-2v-1l1-1 1-2v-1l1-1 1-2 1-1v-1l1-1 1-2 1-1 1-2 1-1 1-1 1-1v-1l1-1 2-2 1-1 1-1 1-1 2-1 1-1 1-1 2-1 1-1 1-1 2-1 1-1 2-1 1-1h1l2-1 3-1 1-1h1l3-1 2-1h2l3-1zm1290 359l34 2 4 4 1 10-5 7-6 2h-28zm-118 7v-3h3v1l1 2v1l1 2v2l1 1v1l1 2v2l1 1v2l1 2 1 1v3l1 1v1l1 2v2l1 1v2l1 2 1 2v2l1 1v1l1 2v1l-1 1h-1-8-1-4-1-3-6l-5-1v-1-2l1-2v-1l1-1v-2l1-1v-2l1-2v-1l1-1v-3l1-1v-1l1-2v-1l1-1v-3l1-1v-1l1-1v-2l1-1v-2l1-2v-1zm-990 9l2-1h1 1 10 1 1l1 1 3 1 1 1h1l3 2 1 1 1 1 1 1 1 1 1 1v1l1 1 1 1v1 1l1 1 1 3v1l1 3v10l-1 2v2l-1 2-1 2v1l-1 1-1 2-1 1v1l-2 2-1 1-2 1-1 1-2 1-2 1-1 1h-1l-12 1-5-1h-1l-1-1-2-1-2-1-1-1-2-1-1-1-2-2v-1l-1-1-1-2-1-1v-1l-1-2-1-2v-1-1l-1-5v-5l1-4v-1-1l1-2 1-2v-1l1-1v-1l1-1 1-1v-1l1-1 1-1 1-1 1-1 2-1 1-1h1l1-1zm78 0l1-1h2 11 1l2 1 3 1 1 1h1l1 1 1 1 1 1 1 1 1 1 1 2 1 1v1l1 2 1 2v2 3h-47v-1-2l1-1v-1l1-2 1-2 1-2 1-1v-1h1l2-2v-1l2-1 1-1h1l1-1zm544 0l2-1h1 1 10 1 1l2 1 2 1 2 1 1 1 2 1 1 2 1 1 1 1 1 1v1l1 2 1 2v1l1 3v2l-47-2v-1-1l1-2 1-2v-1l1-1 1-1v-1l1-1 1-1 1-1 1-1 1-1 1-1h1l1-1h1zm74 0l2-1h1 1 10 1 1l2 1 2 1 2 1 1 1 2 1 2 2v1l1 1 1 1v1l1 1v1l1 3 1 2v3h-47v-2-1-1l1-1v-1l1-2 1-2 1-1 1-2 1-1 1-1 1-1 1-1 1-1h1l2-1zm412 25l33 1 8 8v10l-8 7-32 1zm-607 4l8-1h1 1 5l-1 12v1l-1 1-1 2-1 2-1 1-1 1-1 1-1 1-1 1h-1l-1 1-3 1-1 1h-1l-14 1-4-1h-1l-2-1-2-1-1-1-1-1-1-1-1-1v-1-7-1l1-1 1-1 1-1 1-1 2-1 2-1h1l1-1h1l4-1 3-1h3 1z"/>
		<path id="Path 8" fill-rule="evenodd" class="s3" d="m1904 276h1v1h-1zm-3 4h1v1h-1zm7 0h1v1h-1zm-619 2h1v1h-1zm-38 1h1v1h-1zm46 0h1v1h-1zm602 0h1v1h-1zm-655 1h1v1h-1zm60 0h1v1h-1zm6 1h1v1h-1zm4 1h1v1h-1zm-84 1h1v1h-1zm89 0h1v1h-1zm3 1h1v1h-1zm574 0h1v1h-1zm-571 1h1v1h-1zm570 0h1v1h-1zm19 0h1v1h-1zm-586 1h1v1h-1zm566 1h1v1h-1zm21 0h1v1h-1zm-700 2h1v1h-1zm120 0h1v1h-1zm557 1h1v1h-1zm25 0h1v1h-1zm-707 2h1v1h-1zm130 0h1v1h-1zm550 1h1v1h-1zm29 0h1v1h-1zm-574 2h1v1h-1zm544 0h1v1h-1zm31 0h1v1h-1zm-573 1h1v1h-1zm1 1h1v1h-1zm5 4h1v1h-1zm532 0h1v1h-1zm39 0h1v1h-1zm-566 5h1v1h-1zm2 2h1v1h-1zm1 1h1v1h-1zm568 0h1v1h-1zm-563 7h1v1h-1zm-181 2h1v1h-1zm-1 2h1v1h-1zm-1 3h1v1h-1zm189 4h1v1h-1zm-191 3h1v1h-1zm193 2h1v1h-1zm2 7h1v1h-1zm2 10h1v1h-1zm474 6h1v1h-1zm-8 9h1v1h-1zm-1 1h1v1h-1zm-1 1h1v1h-1zm-1 1h1v1h-1zm-6 7h1v1h-1zm-755 1h1v1h-1zm751 3h1v1h-1zm-750 4h1v1h-1zm741 6h1v1h-1zm-1 1h1v1h-1zm-738 3h1v1h-1zm1 3h1v1h-1zm1 4h1v1h-1zm727 0h1v1h-1zm-1 1h1v1h-1zm-1 1h1v1h-1zm-724 2h1v1h-1zm722 0h1v1h-1zm-721 2h1v1h-1zm717 3h1v1h-1zm-2 2h1v1h-1zm-1 1h1v1h-1zm-1 1h1v1h-1zm-2 2h1v1h-1zm-922 2l4-1v1zm19 0v-1l4 1zm-24 0h1v1h-1zm-6 1h1v1h-1zm44 0h1v1h-1zm183 0h1v1h-1zm-180 1h1v1h-1zm-54 1h1v1h-1zm61 1h1v1h-1zm2 1h1v1h-1zm870 1h1v1h-1zm-866 1h1v1h-1zm864 1h1v1h-1zm-860 1h1v1h-1zm168 2h1v1h-1zm-258 2h1v1h-1zm-4 3h1v1h-1zm944 3h1v1h-1zm-2 2h1v1h-1zm-949 2h1v1h-1zm-1 1h1v1h-1zm280 1h1v1h-1zm-158 1h1v1h-1zm-124 1h1v1h-1zm946 1h1v1h-1zm-1 1h1v1h-1zm-1 1h1v1h-1zm-816 1h1v1h-1zm814 1h1v1h-1zm-947 2h1v1h-1zm138 5h1v1h-1zm-142 2h1v1h-1zm143 0h1v1h-1zm799 1h1v1h-1zm-1 1h1v1h-1zm-943 2h1v1h-1zm148 2h1v1h-1zm171 0h1v1h-1zm1 1h1v1h-1zm-171 1h1v1h-1zm173 0h1v1h-1zm-324 1h1v1h-1zm938 1h1v1h-1zm-939 1h1v1h-1zm330 0h1v1h-1zm607 1h1v1h-1zm-601 2h1v1h-1zm599 0h1v1h-1zm-937 3h1v1h-1zm-1 4h1v1h-1zm354 0h1v1h-1zm2 1h1v1h-1zm-196 1h1v1h-1zm769 1h1v1h-1zm-930 1h1v1h-1zm929 0h1v1h-1zm-551 5h1v1h-1zm-215 1h1v1h-1zm219 0h1v1h-1zm-384 2h1v1h-1zm390 0h1v1h-1zm-224 1h1v1h-1zm228 0h1v1h-1zm3 1h1v1h-1zm4 1h1v1h-1zm5 1h1v1h-1zm-407 1h1v1h-1zm419 2h1v1h-1zm9 2h1v1h-1zm-429 1h1v1h-1zm441 2h1v1h-1zm9 2h1v1h-1zm-280 1h1v1h-1zm283 0h1v1h-1zm5 1h1v1h-1zm5 1h1v1h-1zm-464 4l1-2v2zm472-2h1v1h-1zm471 0h1v1h-1zm-467 1h1v1h-1zm4 1h1v1h-1zm-308 1h1v1h-1zm313 0h1v1h-1zm3 1h1v1h-1zm9 2h1v1h-1zm9 2h1v1h-1zm-507 3l1-2v2zm510-2h1v1h-1zm5 1h1v1h-1zm12 3h1v1h-1zm3 1h1v1h-1zm4 1h1v1h-1zm4 1h1v1h-1zm2 1h1v1h-1zm4 1h1v1h-1zm2 1h1v1h-1zm6 2h1v1h-1zm12 5h1v1h-1zm4 2h1v1h-1zm2 1h1v1h-1zm3 2h1v1h-1zm10 9h1v1h-1zm5 7h1v1h-1zm-587 3l-1-2h1zm171 0h1v1h-1zm686 2h1v1h-1zm-7 3h1v1h-1zm-850 1h1v1h-1zm170 1h1v1h-1zm690 0h1v1h-1zm-13 1h1v1h-1zm-255 1h1v1h-1zm269 0h1v1h-1zm-16 1h1v1h-1zm-1288 1h1v1h-1zm196 0h1v1h-1zm1109 0h1v1h-1zm-19 1h1v1h-1zm-674 1h1v1h-1zm673 0h1v1h-1zm-978 1h1v1h-1zm977 0h1v1h-1zm-1 1h1v1h-1zm-1 1h1v1h-1zm26 0h1v1h-1zm-862 3l-1-2h1zm863-1h1v1h-1zm-1003 2h1v1h-1zm1004 0h1v1h-1zm-864 1h1v1h-1zm163 3h1v1h-1zm-162 2h1v1h-1zm-558 1h1v1h-1zm1426 2h1v1h-1zm-708 2h1v1h-1zm-158 1h1v1h-1zm691 1h1v1h-1zm-836 1h1v1h-1zm1014 0h1v1h-1zm-868 1h1v1h-1zm155 1h1v1h-1zm-714 2h1v1h-1zm412 0h1v1h-1zm1017 0h1v1h-1zm-60 1h1v1h-1zm-808 1h1v1h-1zm263 1h1v1h-1zm543 0h1v1h-1zm-1 1h1v1h-1zm-1365 1h1v1h-1zm1364 0h1v1h-1zm67 0h1v1h-1zm-612 3h1v1h-1zm5 0h1v1h-1zm422 0h1v1h-1zm-1245 1h1v1h-1zm707 0h1v1h-1zm725 0h1v1h-1zm-1024 1h1v1h-1zm155 0h1v1h-1zm143 1h1v1h-1zm118 1h1v1h-1zm-823 2h1v1h-1zm1243 0h1v1h-1zm-428 1h1v1h-1zm-113 1h1v1h-1zm122 0h1v1h-1zm-823 1h1v1h-1zm1241 1h1v1h-1zm194 0h1v1h-1zm-1434 2h1v1h-1zm402 0h1v1h-1zm164 0h1v1h-1zm131 1h1v1h-1zm126 0h1v1h-1zm-12 1h1v1h-1zm626 1h1v1h-1zm-1036 1h1v1h-1zm409 0h1v1h-1zm15 2h1v1h-1zm413 0h1v1h-1zm-838 1h1v1h-1zm1039 0h1v1h-1zm-630 1h1v1h-1zm-118 1h1v1h-1zm135 0h1v1h-1zm411 0h1v1h-1zm-838 1h1v1h-1zm291 0h1v1h-1zm118 0h1v1h-1zm633 0h1v1h-1zm-866 1h1v1h-1zm114 0h1v1h-1zm138 0h1v1h-1zm-823 1h1v1h-1zm572 0h1v1h-1zm1 1h1v1h-1zm1 1h1v1h-1zm865 0h1v1h-1zm-208 1h1v1h-1zm-551 1h1v1h-1zm145 0h1v1h-1zm-146 1h1v1h-1zm-676 2h1v1h-1zm388 0h1v1h-1zm435 0h1v1h-1zm616 0h1v1h-1zm-213 1h1v1h-1zm-646 1h1v1h-1zm91 0h1v1h-1zm153 0h1v1h-1zm-28 1h1v1h-1zm429 0h1v1h-1zm-642 1h1v1h-1zm85 0h1v1h-1zm773 0h1v1h-1zm-1439 1h1v1h-1zm585 1h1v1h-1zm208 0h1v1h-1zm31 0h1v1h-1zm-441 1h1v1h-1zm278 0h1v1h-1zm131 1h1v1h-1zm429 0h1v1h-1zm-1219 1h1v1h-1zm589 0h1v1h-1zm851 0h1v1h-1zm-849 1h1v1h-1zm62 0h1v1h-1zm136 0h1v1h-1zm-410 1h1v1h-1zm220 2l-2-1h2zm226-1h1v1h-1zm-224 1h1v1h-1zm43 0h1v1h-1zm572 0h1v1h-1zm-608 1h1v1h-1zm179 0h1v1h-1zm-410 1h1v1h-1zm237 0h1v1h-1zm20 0h1v1h-1zm193 0h1v1h-1zm-823 1h1v1h-1zm782 0h1v1h-1zm428 1h1v1h-1zm-429 1h1v1h-1zm660 0h1v1h-1zm-1439 1h1v1h-1zm368 1h1v1h-1zm457 1h1v1h-1zm616 1h1v1h-1zm-615 1h1v1h-1zm-461 2h1v1h-1zm410 0h1v1h-1zm428 0h1v1h-1zm-429 2h1v1h-1zm670 0h1v1h-1zm-671 1h1v1h-1zm-411 1h1v1h-1zm-355 1h1v1h-1zm765 0h1v1h-1zm59 0h1v1h-1zm-823 1h1v1h-1zm1438 0h1v1h-1zm-613 1h1v1h-1zm365 0h1v1h-1zm-839 1h1v1h-1zm-349 1h1v1h-1zm1 1h1v1h-1zm346 1h1v1h-1zm411 0h1v1h-1zm68 0h1v1h-1zm613 0h1v1h-1zm-612 1h1v1h-1zm357 0h1v1h-1zm-428 2h1v1h-1zm-751 1h1v1h-1zm520 0h1v1h-1zm916 0h1v1h-1zm-1435 1h1v1h-1zm337 0h1v1h-1zm-1 1h1v1h-1zm412 0h1v1h-1zm-746 1h1v1h-1zm333 0h1v1h-1zm186 0h1v1h-1zm226 0h1v1h-1zm-413 1h1v1h-1zm-330 1h1v1h-1zm329 0h1v1h-1zm1105 0h1v1h-1zm-1433 1h1v1h-1zm327 0h1v1h-1zm-1 1h1v1h-1zm1108 0h1v1h-1zm-1432 1h1v1h-1zm323 0h1v1h-1zm413 0h1v1h-1zm-735 1h1v1h-1zm734 0h1v1h-1zm698 0h1v1h-1zm-1431 1h1v1h-1zm1 1h1v1h-1zm516 0h1v1h-1zm638 0h1v1h-1zm-424 1h1v1h-1zm-728 1h1v1h-1zm1 1h1v1h-1zm1430 0h1v1h-1zm-1120 1h1v1h-1zm206 0h1v1h-1zm208 0h1v1h-1zm-1 1h1v1h-1zm422 0h1v1h-1zm286 0h1v1h-1zm121 0h1v1h-1zm-408 1h1v1h-1zm-423 1h1v1h-1zm711 0h1v1h-1zm-712 1h1v1h-1zm-416 1h1v1h-1zm216 0h1v1h-1zm199 0h1v1h-1zm421 0h1v1h-1zm-1131 1h1v1h-1zm512 0h1v1h-1zm196 1h1v1h-1zm-704 2h1v1h-1zm286 0h1v1h-1zm835 0h1v1h-1zm-1120 1h1v1h-1zm1422 0h1v1h-1zm-1419 2h1v1h-1zm2 1h1v1h-1zm1109 0h1v1h-1zm-283 1h1v1h-1zm-555 1h1v1h-1zm835 0h1v1h-1zm-1101 1h1v1h-1zm264 0h1v1h-1zm243 0h1v1h-1zm592 0h1v1h-1zm-1098 1h1v1h-1zm507 0h1v1h-1zm318 0h1v1h-1zm-148 2h1v1h-1zm-672 1h1v1h-1zm825 0h1v1h-1zm261 0h1v1h-1zm-837 1h1v1h-1zm258 0h1v1h-1zm-503 1h1v1h-1zm664 0h1v1h-1zm161 0h1v1h-1zm253 0h1v1h-1zm-1076 1h1v1h-1zm237 1h1v1h-1zm591 0h1v1h-1zm244 0h1v1h-1zm-1068 1h1v1h-1zm653 0h1v1h-1zm413 0h1v1h-1zm-837 1h1v1h-1zm834 0h1v1h-1zm-1059 1h1v1h-1zm502 0h1v1h-1zm324 0h1v1h-1zm231 0h1v1h-1zm-1055 1h1v1h-1zm1053 0h1v1h-1zm-1050 1h1v1h-1zm1047 0h1v1h-1zm-1045 1h1v1h-1zm633 0h1v1h-1zm-3 1h1v1h-1zm200 0h1v1h-1zm210 0h1v1h-1zm-535 1h1v1h-1zm123 0h1v1h-1zm205 0h1v1h-1zm-825 1h1v1h-1zm1027 0h1v1h-1zm-196 1h1v1h-1zm192 0h1v1h-1zm-520 1h1v1h-1zm330 0h1v1h-1zm188 0h1v1h-1zm-1012 1h1v1h-1zm497 0h1v1h-1zm512 0h1v1h-1zm-1005 1h1v1h-1zm166 0h1v1h-1zm428 0h1v1h-1zm235 0h1v1h-1zm173 0h1v1h-1zm-999 1h1v1h-1zm496 0h1v1h-1zm333 0h1v1h-1zm5 1h1v1h-1zm156 0h1v1h-1zm-983 1h1v1h-1zm146 0h1v1h-1zm427 0h1v1h-1zm257 0h1v1h-1zm-826 1h1v1h-1zm136 0h1v1h-1zm426 0h1v1h-1zm410 0h1v1h-1zm-843 1h1v1h-1zm375 0h1v1h-1zm51 0h1v1h-1zm282 0h1v1h-1zm-712 1h1v1h-1zm717 0h1v1h-1zm120 0h1v1h-1zm-945 1h1v1h-1zm101 0h1v1h-1zm732 0h1v1h-1zm105 0h1v1h-1zm-934 1h1v1h-1zm11 1h1v1h-1zm71 0h1v1h-1zm837 0h1v1h-1zm-476 25h1v1h-1zm15 0h1v1h-1zm589 0h1v1h-1zm17 0h1v1h-1zm-603 1h1v1h-1zm496 0h1v1h-1zm-494 1h1v1h-1zm577 0h1v1h-1zm31 0h1v1h-1zm-635 1h1v1h-1zm523 0h1v1h-1zm-492 2h1v1h-1zm568 0h1v1h-1zm-604 3h1v1h-1zm39 0h1v1h-1zm501 0h1v1h-1zm59 1h1v1h-1zm-600 1h1v1h-1zm651 0h1v1h-1zm-53 1h1v1h-1zm54 0h1v1h-1zm-653 1h1v1h-1zm597 2h1v1h-1zm58 0h1v1h-1zm-116 2h1v1h-1zm117 0h1v1h-1zm-611 1h1v1h-1zm550 0h1v1h-1zm-543 1h1v1h-1zm19 0h1v1h-1zm922 0h1v1h-1zm-399 1h1v1h-1zm64 1h1v1h-1zm-65 1h1v1h-1zm-420 1h1v1h-1zm419 2h1v1h-1zm76 0h1v1h-1zm-5 1h1v1h-1zm-72 2h1v1h-1zm-371 1h1v1h-1zm11 0h1v1h-1zm140 0h1v1h-1zm15 0h1v1h-1zm103 0h1v1h-1zm217 0h1v1h-1zm13 0h1v1h-1zm65 0h1v1h-1zm9 0h1v1h-1zm49 0h1v1h-1zm11 0h1v1h-1zm63 0h1v1h-1zm11 0h1v1h-1zm60 0h1v1h-1zm-997 1h1v1h-1zm244 0h1v1h-1zm60 0h1v1h-1zm18 0h1v1h-1zm76 0h1v1h-1zm99 0h1v1h-1zm236 0h1v1h-1zm261 0h1v1h-1zm14 0h1v1h-1zm-632 1h1v1h-1zm24 0h1v1h-1zm15 0h1v1h-1zm80 0h1v1h-1zm22 0h1v1h-1zm193 0h1v1h-1zm97 0h1v1h-1zm39 0h1v1h-1zm23 0h1v1h-1zm51 0h1v1h-1zm23 0h1v1h-1zm49 0h1v1h-1zm-991 1h1v1h-1zm221 0h1v1h-1zm26 0h1v1h-1zm12 0h1v1h-1zm40 0h1v1h-1zm26 0h1v1h-1zm75 0h1v1h-1zm336 0h1v1h-1zm43 0h1v1h-1zm28 0h1v1h-1zm183 0h1v1h-1zm-771 1h1v1h-1zm41 0h1v1h-1zm37 0h1v1h-1zm75 0h1v1h-1zm147 0h1v1h-1zm267 0h1v1h-1zm22 0h1v1h-1zm63 0h1v1h-1zm74 0h1v1h-1zm-574 1h1v1h-1zm31 0h1v1h-1zm383 0h1v1h-1zm-490 1h1v1h-1zm75 0h1v1h-1zm-1 1h1v1h-1zm505 0h1v1h-1zm-581 1h1v1h-1zm111 0h1v1h-1zm337 0h1v1h-1zm42 0h1v1h-1zm92 0h1v1h-1zm74 0h1v1h-1zm-657 1h1v1h-1zm519 0h1v1h-1zm139 0h1v1h-1zm-943 1h1v1h-1zm206 0h1v1h-1zm192 0h1v1h-1zm125 0h1v1h-1zm170 0h1v1h-1zm136 0h1v1h-1zm74 0h1v1h-1zm-902 1h1v1h-1zm248 0h1v1h-1zm271 0h1v1h-1zm-194 1h1v1h-1zm448 0h1v1h-1zm39 0h1v1h-1zm-808 1h1v1h-1zm199 0h1v1h-1zm479 0h1v1h-1zm144 0h1v1h-1zm44 0h1v1h-1zm30 0h1v1h-1zm44 0h1v1h-1zm-663 1h1v1h-1zm523 0h1v1h-1zm205 0h1v1h-1zm-999 1h1v1h-1zm192 0h1v1h-1zm48 0h1v1h-1zm437 0h1v1h-1zm3 0h1v1h-1zm82 0h1v1h-1zm53 0h1v1h-1zm74 1h1v1h-1zm46 0h1v1h-1zm-744 1h1v1h-1zm79 0h1v1h-1zm76 0h1v1h-1zm-335 1h1v1h-1zm451 1h1v1h-1zm352 0h1v1h-1zm74 0h1v1h-1zm-646 1h1v1h-1zm519 0h1v1h-1zm-571 1h1v1h-1zm79 0h1v1h-1zm442 0h1v1h-1zm-468 3v-2 13-1zm74-2h1v1h-1zm28 0h1v1h-1zm543 0h1v1h-1zm-858 1h1v1h-1zm2 1h1v1h-1zm2 1h1v1h-1zm433 0h1v1h-1zm1 1h1v1h-1zm-431 1h1v1h-1zm533 0h1v1h-1zm-532 1h1v1h-1zm435 0h1v1h-1zm245 1h1v1h-1zm-239 1h1v1h-1zm228 1l2-1v1zm-224 0h1v1h-1zm186 0h1v1h-1zm33 0h1v1h-1zm171 0h1v1h-1zm-385 1h1v1h-1zm83 0h1v1h-1zm124 0h1v1h-1zm193 0h1v1h-1zm-395 1h1v1h-1zm196 1h1v1h-1zm124 0h1v1h-1zm-839 1h1v1h-1zm527 0h1v1h-1zm302 0h1v1h-1zm-613 1h1v1h-1zm52 2v-2h1zm261-2h1v1h-1zm165 0h1v1h-1zm209 0h1v1h-1zm-618 1h1v1h-1zm246 0h1v1h-1zm162 1h1v1h-1zm-487 1h1v1h-1zm-205 1h1v1h-1zm216 0h1v1h-1zm50 0h1v1h-1zm333 0h1v1h-1zm-314 1h1v1h-1zm-284 1h1v1h-1zm205 0h1v1h-1zm11 0h1v1h-1zm48 0h1v1h-1zm483 0h1v1h-1zm-58 1h1v1h-1zm140 0h1v1h-1zm74 0h1v1h-1zm-827 1h1v1h-1zm141 0h1v1h-1zm46 0h1v1h-1zm337 0h1v1h-1zm146 0h1v1h-1zm-484 2h1v1h-1zm483 0h1v1h-1zm-743 1h1v1h-1zm205 0h1v1h-1zm54 0h1v1h-1zm432 0h1v1h-1zm138 0h1v1h-1zm-828 1h1v1h-1zm72 0h1v1h-1zm528 0h1v1h-1zm-468 1h1v1h-1zm73 0h1v1h-1zm80 0h1v1h-1zm316 0h1v1h-1zm81 0h1v1h-1zm-203 1h1v1h-1zm61 0h1v1h-1zm364 0h1v1h-1zm-902 1h1v1h-1zm82 0h1v1h-1zm202 0h1v1h-1zm147 0h1v1h-1zm47 0h1v1h-1zm211 0h1v1h-1zm-484 1h1v1h-1zm14 0h1v1h-1zm32 0h1v1h-1zm34 0h1v1h-1zm191 0h1v1h-1zm61 0h1v1h-1zm164 0h1v1h-1zm-634 1h1v1h-1zm59 0h1v1h-1zm80 0h1v1h-1zm56 0h1v1h-1zm170 0h1v1h-1zm311 0h1v1h-1zm-660 1h1v1h-1zm49 0h1v1h-1zm90 0h1v1h-1zm26 0h1v1h-1zm232 0h1v1h-1zm56 0h1v1h-1zm154 0h1v1h-1zm141 0h1v1h-1zm-585 1h1v1h-1zm495 0h1v1h-1zm-608 1h1v1h-1zm111 0h1v1h-1zm14 0h1v1h-1zm86 0h1v1h-1zm89 0h1v1h-1zm173 0h1v1h-1zm102 0h1v1h-1zm32 0h1v1h-1zm93 0h1v1h-1zm74 0h1v1h-1zm-773 1h1v1h-1zm45 0h1v1h-1zm53 1l-2-1h2zm25-1h1v1h-1zm86 0h1v1h-1zm130 0h1v1h-1zm134 0h1v1h-1zm105 0h1v1h-1zm122 0h1v1h-1zm32 0h1v1h-1zm42 0h1v1h-1zm21 0h1v1h-1zm-751 1h1v1h-1zm78 0h1v1h-1zm35 0h1v1h-1zm181 0h1v1h-1zm414 0h1v1h-1zm-878 1h1v1h-1zm247 0h1v1h-1zm37 0h1v1h-1zm445 0h1v1h-1zm32 0h1v1h-1zm116 0h1v1h-1zm74 0h1v1h-1zm-838 1h1v1h-1zm133 0h1v1h-1zm357 0h1v1h-1zm57 0h1v1h-1zm244 0h1v1h-1zm-824 1h1v1h-1zm86 0h1v1h-1zm121 0h1v1h-1zm142 0h1v1h-1zm32 0h1v1h-1zm60 0h1v1h-1zm84 0h1v1h-1zm53 0h1v1h-1zm30 0h1v1h-1zm38 0h1v1h-1zm34 0h1v1h-1zm114 0h1v1h-1zm32 0h1v1h-1zm42 0h1v1h-1zm-817 1h1v1h-1zm77 0h1v1h-1zm35 0h1v1h-1zm187 0h1v1h-1zm51 0h1v1h-1zm126 0h1v1h-1zm118 0h1v1h-1zm13 0h1v1h-1zm21 0h1v1h-1zm74 0h1v1h-1zm-786 1h1v1h-1zm116 0h1v1h-1zm78 0h1v1h-1zm50 0h1v1h-1zm167 0h1v1h-1zm265 0h1v1h-1zm147 0h1v1h-1zm74 0h1v1h-1zm-899 1h1v1h-1zm39 0h1v1h-1zm23 0h1v1h-1zm54 0h1v1h-1zm51 0h1v1h-1zm27 0h1v1h-1zm84 0h1v1h-1zm133 0h1v1h-1zm30 0h1v1h-1zm126 0h1v1h-1zm109 0h1v1h-1zm117 0h1v1h-1zm74 0h1v1h-1zm-900 1h1v1h-1zm31 0h1v1h-1zm62 0h1v1h-1zm110 0h1v1h-1zm220 0h1v1h-1zm19 0h1v1h-1zm59 0h1v1h-1zm136 0h1v1h-1zm92 0h1v1h-1zm124 0h1v1h-1zm50 0h1v1h-1zm24 0h1v1h-1zm-922 1h1v1h-1zm21 0h1v1h-1zm62 0h1v1h-1zm41 0h1v1h-1zm12 0h1v1h-1zm78 0h1v1h-1zm72 0h1v1h-1zm11 0h1v1h-1zm193 0h1v1h-1zm113 0h1v1h-1zm24 0h1v1h-1zm57 0h1v1h-1zm12 0h1v1h-1zm31 0h1v1h-1zm7 0h1v1h-1zm108 0h1v1h-1zm74 0h1v1h-1z"/>
		<path id="Path 9" class="s4" d="m2043 787h1v1h-1zm6 5h1v1h-1zm-8 1h1v1h-1zm-1 3h1v1h-1zm-1 2h1v1h-1zm12 0h1v1h-1zm-13 4h1v1h-1zm15 1h1v1h-1zm-17 4h1v1h-1zm18 0h1v1h-1zm-19 4h1v1h-1zm21 2h1v1h-1zm-23 4h1v1h-1zm-1 3h1v1h-1zm27 2h1v1h-1zm-29 4h1v1h-1zm15 2h1v1h-1zm5 0h1v1h-1zm9 0h1v1h-1zm-34 18h1v1h-1zm40 0h1v1h-1zm1 1h1v1h-1zm-43 4h1v1h-1zm44 0h1v1h-1zm1 2h1v1h-1zm-46 2h1v1h-1zm-1 2h1v1h-1zm-1 3h1v1h-1zm50 0h1v1h-1zm1 2h1v1h-1zm-53 4h1v1h-1zm55 0h1v1h-1z"/>
		<path id="Path 10" class="s1" d="m964 598h1v1h-1zm-153 4h1v1h-1zm151 1h1v1h-1zm-2 4h1v1h-1zm-1 2h1v1h-1zm-144 1h1v1h-1zm142 3h1v1h-1zm-140 1h1v1h-1zm1 2h1v1h-1zm137 0h1v1h-1zm-1 2h1v1h-1zm-134 1h1v1h-1zm1 1h1v1h-1zm131 1h1v1h-1zm-129 2h1v1h-1zm127 1h1v1h-1zm-1 1h1v1h-1zm-124 1h1v1h-1zm1 1h1v1h-1zm122 0h1v1h-1zm-121 1h1v1h-1zm120 0h1v1h-1zm-119 1h1v1h-1zm118 0h1v1h-1zm-1 1h1v1h-1zm-114 2h1v1h-1zm1 1h1v1h-1zm1 1h1v1h-1zm1 1h1v1h-1zm107 0h1v1h-1zm-106 1h1v1h-1zm1 1h1v1h-1zm102 0h1v1h-1zm-101 1h1v1h-1zm100 0h1v1h-1zm-1 1h1v1h-1zm-1 1h1v1h-1zm-94 1h1v1h-1zm2 1h1v1h-1zm89 0h1v1h-1zm-88 1h1v1h-1zm87 0h1v1h-1zm-85 1h1v1h-1zm83 0h1v1h-1zm-79 2h1v1h-1zm76 0h1v1h-1zm-2 1h1v1h-1zm-71 1h1v1h-1zm67 1h1v1h-1zm119 188h1v1h-1zm46 0h1v1h-1zm483 0h1v1h-1zm-527 3h1v1h-1zm42 0h1v1h-1zm482 2h1v1h-1zm-1 1h1v1h-1zm-484 1h1v1h-1zm447 0h1v1h-1zm36 0h1v1h-1zm-35 1h1v1h-1zm34 0h1v1h-1zm-515 1h1v1h-1zm30 0h1v1h-1zm452 0h1v1h-1zm32 0h1v1h-1zm-31 1h1v1h-1zm29 0h1v1h-1zm-507 2h1v1h-1zm20 0h1v1h-1zm483 0h1v1h-1z"/>
		<path id="Path 11" class="s3" d="m803 576h1v1h-1zm139 58h1v1h-1zm-2 2h1v1h-1zm-6 5h1v1h-1zm102 185v-7 1 5zm534 7h1v1h-1zm-526 11h1v1h-1zm23 7h1v1h-1z"/>
		<path id="Path 12" class="s4" d="m2060 827h1v1h-1z"/>
	</g>
</svg>